EBGaramondVF-Expanded_Xbold.ufo
<glyph name="numbersign" format="1">
  <advance width="468"/>
  <unicode hex="0023"/>
  <outline>
    <contour>
      <point x="54" y="-79" type="curve" smooth="yes"/>
      <point x="67" y="-79"/>
      <point x="95" y="-77"/>
      <point x="98" y="-64" type="curve" smooth="yes"/>
      <point x="142" y="115" type="line"/>
      <point x="241" y="121" type="line"/>
      <point x="198" y="-53" type="line"/>
      <point x="198" y="-56" type="line" smooth="yes"/>
      <point x="198" y="-62"/>
      <point x="202" y="-68"/>
      <point x="208" y="-68" type="curve" smooth="yes"/>
      <point x="221" y="-68"/>
      <point x="249" y="-66"/>
      <point x="252" y="-53" type="curve" smooth="yes"/>
      <point x="295" y="123" type="line"/>
      <point x="346" y="126" type="line" smooth="yes"/>
      <point x="368" y="127"/>
      <point x="377" y="164"/>
      <point x="377" y="174" type="curve" smooth="yes"/>
      <point x="377" y="181"/>
      <point x="371" y="186"/>
      <point x="364" y="186" type="curve"/>
      <point x="310" y="183" type="line"/>
      <point x="344" y="321" type="line"/>
      <point x="393" y="324" type="line" smooth="yes"/>
      <point x="415" y="325"/>
      <point x="424" y="363"/>
      <point x="424" y="373" type="curve" smooth="yes"/>
      <point x="424" y="380"/>
      <point x="418" y="384"/>
      <point x="411" y="384" type="curve"/>
      <point x="359" y="381" type="line"/>
      <point x="401" y="553" type="line"/>
      <point x="401" y="555"/>
      <point x="402" y="556"/>
      <point x="402" y="558" type="curve" smooth="yes"/>
      <point x="402" y="564"/>
      <point x="399" y="570"/>
      <point x="394" y="570" type="curve" smooth="yes"/>
      <point x="380" y="570"/>
      <point x="350" y="567"/>
      <point x="347" y="553" type="curve" smooth="yes"/>
      <point x="304" y="378" type="line"/>
      <point x="206" y="373" type="line"/>
      <point x="247" y="542" type="line" smooth="yes"/>
      <point x="247" y="544"/>
      <point x="248" y="546"/>
      <point x="248" y="548" type="curve" smooth="yes"/>
      <point x="247" y="554"/>
      <point x="245" y="559"/>
      <point x="238" y="559" type="curve" smooth="yes"/>
      <point x="224" y="559"/>
      <point x="196" y="556"/>
      <point x="192" y="539" type="curve" smooth="yes"/>
      <point x="151" y="371" type="line"/>
      <point x="88" y="368" type="line" smooth="yes"/>
      <point x="67" y="367"/>
      <point x="64" y="330"/>
      <point x="64" y="320" type="curve" smooth="yes"/>
      <point x="64" y="313"/>
      <point x="71" y="308"/>
      <point x="78" y="308" type="curve"/>
      <point x="136" y="311" type="line"/>
      <point x="102" y="173" type="line"/>
      <point x="41" y="170" type="line" smooth="yes"/>
      <point x="20" y="169"/>
      <point x="17" y="132"/>
      <point x="17" y="122" type="curve" smooth="yes"/>
      <point x="17" y="115"/>
      <point x="24" y="110"/>
      <point x="31" y="110" type="curve"/>
      <point x="88" y="113" type="line"/>
      <point x="44" y="-64" type="line"/>
      <point x="44" y="-67" type="line" smooth="yes"/>
      <point x="44" y="-73"/>
      <point x="48" y="-79"/>
    </contour>
    <contour>
      <point x="157" y="175" type="line"/>
      <point x="191" y="313" type="line"/>
      <point x="289" y="318" type="line"/>
      <point x="256" y="180" type="line"/>
    </contour>
  </outline>
</glyph>
<glyph name="dollar" format="1">
  <advance width="441"/>
  <unicode hex="0024"/>
  <outline>
    <contour>
      <point x="165" y="-82" type="curve" smooth="yes"/>
      <point x="182" y="-82"/>
      <point x="201" y="-79"/>
      <point x="203" y="-67" type="curve" smooth="yes"/>
      <point x="214" y="11" type="line" smooth="yes"/>
      <point x="215" y="16"/>
      <point x="218" y="18"/>
      <point x="223" y="18" type="curve" smooth="yes"/>
      <point x="327" y="20"/>
      <point x="398" y="93"/>
      <point x="398" y="194" type="curve" smooth="yes"/>
      <point x="398" y="284"/>
      <point x="325" y="331"/>
      <point x="275" y="362" type="curve" smooth="yes"/>
      <point x="261" y="371"/>
      <point x="260" y="376"/>
      <point x="261" y="384" type="curve" smooth="yes"/>
      <point x="283" y="557" type="line"/>
      <point x="283" y="559"/>
      <point x="285" y="561"/>
      <point x="287" y="561" type="curve" smooth="yes"/>
      <point x="311" y="557"/>
      <point x="328" y="524"/>
      <point x="342" y="490" type="curve" smooth="yes"/>
      <point x="347" y="479"/>
      <point x="361" y="472"/>
      <point x="374" y="472" type="curve" smooth="yes"/>
      <point x="381" y="472"/>
      <point x="391" y="476"/>
      <point x="391" y="485" type="curve" smooth="yes"/>
      <point x="391" y="513"/>
      <point x="379" y="562"/>
      <point x="372" y="588" type="curve" smooth="yes"/>
      <point x="369" y="597"/>
      <point x="362" y="608"/>
      <point x="352" y="611" type="curve" smooth="yes"/>
      <point x="337" y="617"/>
      <point x="323" y="623"/>
      <point x="302" y="628" type="curve" smooth="yes"/>
      <point x="297" y="629"/>
      <point x="296" y="632"/>
      <point x="296" y="635" type="curve" smooth="yes"/>
      <point x="296" y="644"/>
      <point x="302" y="685"/>
      <point x="303" y="695" type="curve"/>
      <point x="303" y="702"/>
      <point x="297" y="710"/>
      <point x="290" y="710" type="curve" smooth="yes"/>
      <point x="277" y="710"/>
      <point x="236" y="708"/>
      <point x="234" y="695" type="curve" smooth="yes"/>
      <point x="227" y="638" type="line" smooth="yes"/>
      <point x="227" y="635"/>
      <point x="223" y="632"/>
      <point x="217" y="632" type="curve" smooth="yes"/>
      <point x="118" y="629"/>
      <point x="55" y="552"/>
      <point x="55" y="466" type="curve" smooth="yes"/>
      <point x="55" y="390"/>
      <point x="119" y="346"/>
      <point x="174" y="316" type="curve" smooth="yes"/>
      <point x="186" y="309"/>
      <point x="187" y="304"/>
      <point x="186" y="299" type="curve" smooth="yes"/>
      <point x="160" y="91" type="line" smooth="yes"/>
      <point x="159" y="87"/>
      <point x="154" y="87"/>
      <point x="150" y="89" type="curve" smooth="yes"/>
      <point x="120" y="103"/>
      <point x="104" y="121"/>
      <point x="83" y="179" type="curve" smooth="yes"/>
      <point x="80" y="188"/>
      <point x="73" y="192"/>
      <point x="62" y="192" type="curve" smooth="yes"/>
      <point x="49" y="192"/>
      <point x="40" y="185"/>
      <point x="40" y="177" type="curve"/>
      <point x="42" y="152"/>
      <point x="41" y="104"/>
      <point x="48" y="79" type="curve" smooth="yes"/>
      <point x="50" y="72"/>
      <point x="56" y="66"/>
      <point x="60" y="61" type="curve" smooth="yes"/>
      <point x="87" y="40"/>
      <point x="122" y="25"/>
      <point x="144" y="19" type="curve" smooth="yes"/>
      <point x="147" y="19"/>
      <point x="152" y="16"/>
      <point x="151" y="10" type="curve"/>
      <point x="141" y="-62" type="line" smooth="yes"/>
      <point x="139" y="-75"/>
      <point x="151" y="-82"/>
    </contour>
    <contour>
      <point x="233" y="79" type="curve"/>
      <point x="227" y="79"/>
      <point x="225" y="81"/>
      <point x="225" y="88" type="curve"/>
      <point x="249" y="269" type="line" smooth="yes"/>
      <point x="249" y="272"/>
      <point x="253" y="275"/>
      <point x="257" y="273" type="curve" smooth="yes"/>
      <point x="286" y="257"/>
      <point x="313" y="229"/>
      <point x="313" y="174" type="curve" smooth="yes"/>
      <point x="313" y="117"/>
      <point x="276" y="82"/>
    </contour>
    <contour>
      <point x="192" y="413" type="curve"/>
      <point x="160" y="435"/>
      <point x="144" y="452"/>
      <point x="144" y="489" type="curve" smooth="yes"/>
      <point x="144" y="543"/>
      <point x="179" y="566"/>
      <point x="212" y="567" type="curve" smooth="yes"/>
      <point x="216" y="567"/>
      <point x="218" y="564"/>
      <point x="218" y="560" type="curve"/>
      <point x="200" y="414" type="line"/>
      <point x="200" y="412"/>
      <point x="200" y="410"/>
    </contour>
  </outline>
</glyph>
<glyph name="ampersand" format="1">
  <advance width="756"/>
  <unicode hex="0026"/>
  <outline>
    <contour>
      <point x="212" y="-15" type="curve" smooth="yes"/>
      <point x="305" y="-15"/>
      <point x="358" y="35"/>
      <point x="421" y="103" type="curve"/>
      <point x="427" y="109" type="line"/>
      <point x="438" y="95" type="line" smooth="yes"/>
      <point x="495" y="19"/>
      <point x="517" y="-15"/>
      <point x="588" y="-15" type="curve" smooth="yes"/>
      <point x="643" y="-15"/>
      <point x="715" y="34"/>
      <point x="715" y="51" type="curve" smooth="yes"/>
      <point x="715" y="60"/>
      <point x="710" y="66"/>
      <point x="701" y="66" type="curve" smooth="yes"/>
      <point x="695" y="66"/>
      <point x="689" y="64"/>
      <point x="684" y="61" type="curve" smooth="yes"/>
      <point x="660" y="47"/>
      <point x="637" y="41"/>
      <point x="609" y="41" type="curve" smooth="yes"/>
      <point x="558" y="41"/>
      <point x="522" y="81"/>
      <point x="477" y="141" type="curve" smooth="yes"/>
      <point x="465" y="157" type="line"/>
      <point x="465" y="157"/>
      <point x="613" y="315"/>
      <point x="626" y="326" type="curve"/>
      <point x="645" y="343"/>
      <point x="675" y="362"/>
      <point x="704" y="364" type="curve" smooth="yes"/>
      <point x="720" y="365"/>
      <point x="736" y="375"/>
      <point x="736" y="389" type="curve" smooth="yes"/>
      <point x="736" y="398"/>
      <point x="727" y="407"/>
      <point x="720" y="407" type="curve" smooth="yes"/>
      <point x="696" y="407"/>
      <point x="658" y="399"/>
      <point x="628" y="399" type="curve" smooth="yes"/>
      <point x="613" y="399"/>
      <point x="563" y="408"/>
      <point x="557" y="408" type="curve" smooth="yes"/>
      <point x="548" y="408"/>
      <point x="534" y="402"/>
      <point x="534" y="387" type="curve" smooth="yes"/>
      <point x="534" y="377"/>
      <point x="544" y="371"/>
      <point x="547" y="369" type="curve"/>
      <point x="557" y="367"/>
      <point x="564" y="354"/>
      <point x="564" y="348" type="curve" smooth="yes"/>
      <point x="564" y="333"/>
      <point x="503" y="257"/>
      <point x="458" y="210" type="curve" smooth="yes"/>
      <point x="440" y="191" type="line"/>
      <point x="427" y="207" type="line" smooth="yes"/>
      <point x="382" y="262"/>
      <point x="364" y="283"/>
      <point x="313" y="338" type="curve" smooth="yes"/>
      <point x="300" y="352" type="line"/>
      <point x="314" y="357" type="line" smooth="yes"/>
      <point x="379" y="384"/>
      <point x="412" y="426"/>
      <point x="411" y="477" type="curve" smooth="yes"/>
      <point x="411" y="529"/>
      <point x="370" y="599"/>
      <point x="284" y="599" type="curve" smooth="yes"/>
      <point x="215" y="599"/>
      <point x="145" y="554"/>
      <point x="145" y="484" type="curve" smooth="yes"/>
      <point x="145" y="425"/>
      <point x="185" y="396"/>
      <point x="204" y="374" type="curve"/>
      <point x="219" y="358" type="line"/>
      <point x="199" y="349" type="line" smooth="yes"/>
      <point x="103" y="306"/>
      <point x="38" y="233"/>
      <point x="38" y="127" type="curve" smooth="yes"/>
      <point x="38" y="45"/>
      <point x="109" y="-15"/>
    </contour>
    <contour>
      <point x="238" y="50" type="curve" smooth="yes"/>
      <point x="165" y="50"/>
      <point x="115" y="99"/>
      <point x="115" y="160" type="curve" smooth="yes"/>
      <point x="115" y="219"/>
      <point x="137" y="279"/>
      <point x="230" y="315" type="curve" smooth="yes"/>
      <point x="251" y="323" type="line"/>
      <point x="263" y="310" type="line" smooth="yes"/>
      <point x="320" y="248"/>
      <point x="346" y="211"/>
      <point x="385" y="165" type="curve" smooth="yes"/>
      <point x="399" y="148" type="line"/>
      <point x="390" y="139" type="line" smooth="yes"/>
      <point x="340" y="88"/>
      <point x="304" y="50"/>
    </contour>
    <contour>
      <point x="273" y="387" type="line"/>
      <point x="257" y="401" type="line" smooth="yes"/>
      <point x="207" y="448"/>
      <point x="203" y="465"/>
      <point x="203" y="491" type="curve" smooth="yes"/>
      <point x="203" y="527"/>
      <point x="239" y="553"/>
      <point x="279" y="553" type="curve" smooth="yes"/>
      <point x="325" y="553"/>
      <point x="347" y="513"/>
      <point x="347" y="476" type="curve" smooth="yes"/>
      <point x="347" y="443"/>
      <point x="325" y="412"/>
      <point x="292" y="396" type="curve" smooth="yes"/>
    </contour>
  </outline>
</glyph>
<glyph name="quotesingle" format="1">
  <advance width="200"/>
  <unicode hex="0027"/>
  <outline>
    <contour>
      <point x="67" y="460" type="curve" smooth="yes"/>
      <point x="69" y="453"/>
      <point x="78" y="448"/>
      <point x="89" y="451" type="curve" smooth="yes"/>
      <point x="101" y="462"/>
      <point x="125" y="496"/>
      <point x="126" y="523" type="curve" smooth="yes"/>
      <point x="130" y="555"/>
      <point x="137" y="617"/>
      <point x="134" y="654" type="curve" smooth="yes"/>
      <point x="129" y="665"/>
      <point x="123" y="674"/>
      <point x="111" y="670" type="curve" smooth="yes"/>
      <point x="98" y="668"/>
      <point x="87" y="658"/>
      <point x="75" y="645" type="curve"/>
      <point x="70" y="639"/>
      <point x="63" y="612"/>
      <point x="63" y="591" type="curve" smooth="yes"/>
      <point x="63" y="585"/>
      <point x="66" y="538"/>
      <point x="66" y="507" type="curve" smooth="yes"/>
      <point x="66" y="492"/>
      <point x="66" y="475"/>
    </contour>
  </outline>
</glyph>
<glyph name="asterisk" format="1">
  <advance width="340"/>
  <unicode hex="002A"/>
  <outline>
    <contour>
      <point x="184" y="372" type="curve" smooth="yes"/>
      <point x="196" y="372"/>
      <point x="205" y="383"/>
      <point x="204" y="397" type="curve" smooth="yes"/>
      <point x="201" y="429"/>
      <point x="198" y="459"/>
      <point x="195" y="487" type="curve"/>
      <point x="221" y="476"/>
      <point x="248" y="462"/>
      <point x="281" y="450" type="curve" smooth="yes"/>
      <point x="289" y="447"/>
      <point x="307" y="451"/>
      <point x="307" y="465" type="curve" smooth="yes"/>
      <point x="307" y="473"/>
      <point x="303" y="482"/>
      <point x="297" y="485" type="curve" smooth="yes"/>
      <point x="266" y="502"/>
      <point x="239" y="513"/>
      <point x="213" y="525" type="curve"/>
      <point x="287" y="580" type="line" smooth="yes"/>
      <point x="292" y="584"/>
      <point x="295" y="594"/>
      <point x="295" y="600" type="curve" smooth="yes"/>
      <point x="295" y="610"/>
      <point x="285" y="615"/>
      <point x="277" y="615" type="curve" smooth="yes"/>
      <point x="272" y="615"/>
      <point x="264" y="612"/>
      <point x="261" y="609" type="curve" smooth="yes"/>
      <point x="231" y="591"/>
      <point x="210" y="576"/>
      <point x="187" y="560" type="curve"/>
      <point x="178" y="648" type="line" smooth="yes"/>
      <point x="177" y="659"/>
      <point x="167" y="670"/>
      <point x="157" y="670" type="curve" smooth="yes"/>
      <point x="145" y="670"/>
      <point x="134" y="659"/>
      <point x="136" y="641" type="curve" smooth="yes"/>
      <point x="139" y="611"/>
      <point x="142" y="583"/>
      <point x="146" y="555" type="curve"/>
      <point x="118" y="567"/>
      <point x="90" y="579"/>
      <point x="62" y="591" type="curve" smooth="yes"/>
      <point x="52" y="595"/>
      <point x="34" y="591"/>
      <point x="34" y="577" type="curve" smooth="yes"/>
      <point x="34" y="570"/>
      <point x="36" y="559"/>
      <point x="48" y="554" type="curve" smooth="yes"/>
      <point x="76" y="540"/>
      <point x="102" y="529"/>
      <point x="128" y="517" type="curve"/>
      <point x="55" y="463" type="line" smooth="yes"/>
      <point x="48" y="458"/>
      <point x="46" y="449"/>
      <point x="46" y="442" type="curve" smooth="yes"/>
      <point x="46" y="432"/>
      <point x="56" y="428"/>
      <point x="64" y="428" type="curve" smooth="yes"/>
      <point x="68" y="428"/>
      <point x="78" y="430"/>
      <point x="81" y="433" type="curve" smooth="yes"/>
      <point x="111" y="451"/>
      <point x="131" y="466"/>
      <point x="154" y="482" type="curve"/>
      <point x="163" y="390" type="line" smooth="yes"/>
      <point x="164" y="381"/>
      <point x="175" y="372"/>
    </contour>
  </outline>
</glyph>
<glyph name="plus" format="1">
  <advance width="590"/>
  <unicode hex="002B"/>
  <outline>
    <contour>
      <point x="275" y="-8" type="curve" smooth="yes"/>
      <point x="286" y="-8"/>
      <point x="331" y="-5"/>
      <point x="331" y="16" type="curve" smooth="yes"/>
      <point x="331" y="205" type="line" smooth="yes"/>
      <point x="331" y="210"/>
      <point x="332" y="211"/>
      <point x="336" y="211" type="curve" smooth="yes"/>
      <point x="514" y="211" type="line" smooth="yes"/>
      <point x="533" y="211"/>
      <point x="545" y="241"/>
      <point x="545" y="262" type="curve" smooth="yes"/>
      <point x="545" y="271"/>
      <point x="539" y="276"/>
      <point x="532" y="276" type="curve" smooth="yes"/>
      <point x="334" y="276" type="line" smooth="yes"/>
      <point x="331" y="276"/>
      <point x="331" y="277"/>
      <point x="331" y="284" type="curve" smooth="yes"/>
      <point x="331" y="469" type="line" smooth="yes"/>
      <point x="331" y="476"/>
      <point x="322" y="482"/>
      <point x="314" y="482" type="curve" smooth="yes"/>
      <point x="306" y="482"/>
      <point x="259" y="473"/>
      <point x="259" y="451" type="curve" smooth="yes"/>
      <point x="259" y="287" type="line" smooth="yes"/>
      <point x="259" y="279"/>
      <point x="258" y="276"/>
      <point x="251" y="276" type="curve" smooth="yes"/>
      <point x="69" y="276" type="line" smooth="yes"/>
      <point x="51" y="276"/>
      <point x="45" y="240"/>
      <point x="45" y="227" type="curve" smooth="yes"/>
      <point x="45" y="219"/>
      <point x="52" y="211"/>
      <point x="59" y="211" type="curve" smooth="yes"/>
      <point x="255" y="211" type="line" smooth="yes"/>
      <point x="258" y="211"/>
      <point x="259" y="209"/>
      <point x="259" y="204" type="curve" smooth="yes"/>
      <point x="259" y="6" type="line" smooth="yes"/>
      <point x="259" y="-1"/>
      <point x="267" y="-8"/>
    </contour>
  </outline>
</glyph>
<glyph name="zero" format="1">
  <advance width="480"/>
  <unicode hex="0030"/>
  <outline>
    <contour>
      <point x="235" y="-14" type="curve" smooth="yes"/>
      <point x="383" y="-14"/>
      <point x="445" y="166"/>
      <point x="445" y="316" type="curve" smooth="yes"/>
      <point x="445" y="461"/>
      <point x="381" y="630"/>
      <point x="245" y="630" type="curve" smooth="yes"/>
      <point x="97" y="630"/>
      <point x="35" y="454"/>
      <point x="35" y="302" type="curve" smooth="yes"/>
      <point x="35" y="154"/>
      <point x="99" y="-14"/>
    </contour>
    <contour>
      <point x="252" y="51" type="curve" smooth="yes"/>
      <point x="162" y="51"/>
      <point x="118" y="188"/>
      <point x="118" y="319" type="curve" smooth="yes"/>
      <point x="118" y="449"/>
      <point x="146" y="563"/>
      <point x="226" y="563" type="curve" smooth="yes"/>
      <point x="316" y="563"/>
      <point x="363" y="430"/>
      <point x="363" y="299" type="curve" smooth="yes"/>
      <point x="363" y="169"/>
      <point x="332" y="51"/>
    </contour>
  </outline>
</glyph>
<glyph name="one" format="1">
  <advance width="480"/>
  <unicode hex="0031"/>
  <outline>
    <contour>
      <point x="112" y="-3" type="curve" smooth="yes"/>
      <point x="161" y="-3"/>
      <point x="203" y="2"/>
      <point x="257" y="2" type="curve" smooth="yes"/>
      <point x="310" y="2"/>
      <point x="347" y="-3"/>
      <point x="398" y="-3" type="curve" smooth="yes"/>
      <point x="412" y="-3"/>
      <point x="418" y="6"/>
      <point x="418" y="16" type="curve" smooth="yes"/>
      <point x="418" y="27"/>
      <point x="410" y="35"/>
      <point x="397" y="39" type="curve" smooth="yes"/>
      <point x="319" y="61"/>
      <point x="295" y="68"/>
      <point x="295" y="141" type="curve" smooth="yes"/>
      <point x="295" y="557" type="line" smooth="yes"/>
      <point x="295" y="585"/>
      <point x="297" y="602"/>
      <point x="299" y="622" type="curve" smooth="yes"/>
      <point x="300" y="629"/>
      <point x="294" y="638"/>
      <point x="282" y="638" type="curve" smooth="yes"/>
      <point x="273" y="638"/>
      <point x="265" y="633"/>
      <point x="251" y="621" type="curve" smooth="yes"/>
      <point x="218" y="591"/>
      <point x="188" y="583"/>
      <point x="132" y="574" type="curve" smooth="yes"/>
      <point x="118" y="571"/>
      <point x="107" y="562"/>
      <point x="107" y="550" type="curve" smooth="yes"/>
      <point x="107" y="537"/>
      <point x="120" y="530"/>
      <point x="133" y="528" type="curve" smooth="yes"/>
      <point x="176" y="525"/>
      <point x="217" y="516"/>
      <point x="217" y="466" type="curve" smooth="yes"/>
      <point x="217" y="144" type="line" smooth="yes"/>
      <point x="217" y="66"/>
      <point x="183" y="57"/>
      <point x="113" y="40" type="curve" smooth="yes"/>
      <point x="99" y="37"/>
      <point x="92" y="28"/>
      <point x="92" y="17" type="curve" smooth="yes"/>
      <point x="92" y="7"/>
      <point x="98" y="-3"/>
    </contour>
  </outline>
</glyph>
<glyph name="two" format="1">
  <advance width="480"/>
  <unicode hex="0032"/>
  <outline>
    <contour>
      <point x="419" y="-3" type="curve" smooth="yes"/>
      <point x="426" y="-3"/>
      <point x="437" y="0"/>
      <point x="441" y="21" type="curve" smooth="yes"/>
      <point x="451" y="71"/>
      <point x="472" y="123"/>
      <point x="472" y="135" type="curve" smooth="yes"/>
      <point x="472" y="141"/>
      <point x="469" y="153"/>
      <point x="456" y="153" type="curve" smooth="yes"/>
      <point x="438" y="153"/>
      <point x="429" y="135"/>
      <point x="422" y="122" type="curve" smooth="yes"/>
      <point x="402" y="83"/>
      <point x="378" y="63"/>
      <point x="326" y="62" type="curve" smooth="yes"/>
      <point x="302" y="61"/>
      <point x="273" y="61"/>
      <point x="245" y="61" type="curve" smooth="yes"/>
      <point x="208" y="61"/>
      <point x="200" y="61"/>
      <point x="178" y="64" type="curve" smooth="yes"/>
      <point x="170" y="65"/>
      <point x="164" y="66"/>
      <point x="164" y="71" type="curve" smooth="yes"/>
      <point x="164" y="76"/>
      <point x="294" y="234"/>
      <point x="339" y="288" type="curve" smooth="yes"/>
      <point x="381" y="339"/>
      <point x="411" y="411"/>
      <point x="411" y="465" type="curve" smooth="yes"/>
      <point x="411" y="562"/>
      <point x="351" y="630"/>
      <point x="251" y="630" type="curve" smooth="yes"/>
      <point x="131" y="630"/>
      <point x="55" y="541"/>
      <point x="55" y="503" type="curve" smooth="yes"/>
      <point x="55" y="485"/>
      <point x="69" y="462"/>
      <point x="84" y="462" type="curve" smooth="yes"/>
      <point x="97" y="462"/>
      <point x="110" y="475"/>
      <point x="115" y="483" type="curve" smooth="yes"/>
      <point x="143" y="529"/>
      <point x="174" y="566"/>
      <point x="226" y="566" type="curve" smooth="yes"/>
      <point x="280" y="566"/>
      <point x="321" y="523"/>
      <point x="321" y="452" type="curve" smooth="yes"/>
      <point x="321" y="375"/>
      <point x="256" y="282"/>
      <point x="194" y="209" type="curve" smooth="yes"/>
      <point x="40" y="28" type="line" smooth="yes"/>
      <point x="35" y="22"/>
      <point x="32" y="21"/>
      <point x="32" y="15" type="curve" smooth="yes"/>
      <point x="32" y="9"/>
      <point x="47" y="-2"/>
      <point x="52" y="-2" type="curve" smooth="yes"/>
      <point x="72" y="-2"/>
      <point x="234" y="3"/>
      <point x="284" y="3" type="curve" smooth="yes"/>
      <point x="334" y="3"/>
      <point x="399" y="-3"/>
    </contour>
  </outline>
</glyph>
<glyph name="three" format="1">
  <advance width="480"/>
  <unicode hex="0033"/>
  <outline>
    <contour>
      <point x="161" y="-38" type="curve" smooth="yes"/>
      <point x="297" y="-38"/>
      <point x="439" y="53"/>
      <point x="439" y="203" type="curve" smooth="yes"/>
      <point x="439" y="290"/>
      <point x="374" y="353"/>
      <point x="302" y="356" type="curve" smooth="yes"/>
      <point x="298" y="356"/>
      <point x="298" y="360"/>
      <point x="301" y="362" type="curve"/>
      <point x="368" y="409"/>
      <point x="391" y="466"/>
      <point x="391" y="516" type="curve" smooth="yes"/>
      <point x="391" y="584"/>
      <point x="327" y="630"/>
      <point x="261" y="630" type="curve" smooth="yes"/>
      <point x="125" y="630"/>
      <point x="68" y="535"/>
      <point x="68" y="500" type="curve" smooth="yes"/>
      <point x="68" y="490"/>
      <point x="79" y="463"/>
      <point x="105" y="463" type="curve" smooth="yes"/>
      <point x="119" y="463"/>
      <point x="147" y="562"/>
      <point x="226" y="562" type="curve" smooth="yes"/>
      <point x="276" y="562"/>
      <point x="309" y="527"/>
      <point x="309" y="475" type="curve" smooth="yes"/>
      <point x="309" y="411"/>
      <point x="246" y="365"/>
      <point x="186" y="339" type="curve" smooth="yes"/>
      <point x="172" y="332"/>
      <point x="156" y="320"/>
      <point x="155" y="292" type="curve" smooth="yes"/>
      <point x="154" y="278"/>
      <point x="166" y="268"/>
      <point x="173" y="272" type="curve" smooth="yes"/>
      <point x="196" y="284"/>
      <point x="223" y="286"/>
      <point x="238" y="286" type="curve" smooth="yes"/>
      <point x="315" y="286"/>
      <point x="354" y="216"/>
      <point x="354" y="150" type="curve" smooth="yes"/>
      <point x="354" y="78"/>
      <point x="281" y="23"/>
      <point x="208" y="23" type="curve" smooth="yes"/>
      <point x="171" y="23"/>
      <point x="150" y="38"/>
      <point x="133" y="52" type="curve" smooth="yes"/>
      <point x="120" y="61"/>
      <point x="109" y="71"/>
      <point x="94" y="71" type="curve" smooth="yes"/>
      <point x="76" y="71"/>
      <point x="50" y="38"/>
      <point x="50" y="21" type="curve" smooth="yes"/>
      <point x="50" y="-18"/>
      <point x="114" y="-38"/>
    </contour>
  </outline>
</glyph>
<glyph name="four" format="1">
  <advance width="480"/>
  <unicode hex="0034"/>
  <outline>
    <contour>
      <point x="219" y="-4" type="curve" smooth="yes"/>
      <point x="273" y="-4"/>
      <point x="285" y="4"/>
      <point x="331" y="4" type="curve" smooth="yes"/>
      <point x="377" y="4"/>
      <point x="392" y="-4"/>
      <point x="446" y="-4" type="curve" smooth="yes"/>
      <point x="461" y="-4"/>
      <point x="471" y="4"/>
      <point x="471" y="17" type="curve" smooth="yes"/>
      <point x="471" y="32"/>
      <point x="462" y="38"/>
      <point x="443" y="44" type="curve" smooth="yes"/>
      <point x="396" y="55"/>
      <point x="368" y="74"/>
      <point x="368" y="111" type="curve" smooth="yes"/>
      <point x="368" y="167" type="line" smooth="yes"/>
      <point x="368" y="168"/>
      <point x="376" y="172"/>
      <point x="381" y="173" type="curve"/>
      <point x="389" y="174"/>
      <point x="400" y="175"/>
      <point x="412" y="175" type="curve" smooth="yes"/>
      <point x="428" y="175"/>
      <point x="446" y="174"/>
      <point x="461" y="174" type="curve" smooth="yes"/>
      <point x="465" y="174"/>
      <point x="482" y="220"/>
      <point x="482" y="236" type="curve" smooth="yes"/>
      <point x="482" y="240"/>
      <point x="477" y="244"/>
      <point x="471" y="244" type="curve"/>
      <point x="449" y="243"/>
      <point x="431" y="242"/>
      <point x="412" y="242" type="curve" smooth="yes"/>
      <point x="400" y="242"/>
      <point x="387" y="242"/>
      <point x="372" y="243" type="curve"/>
      <point x="369" y="243"/>
      <point x="367" y="246"/>
      <point x="367" y="249" type="curve" smooth="yes"/>
      <point x="367" y="351" type="line" smooth="yes"/>
      <point x="367" y="393"/>
      <point x="367" y="415"/>
      <point x="352" y="415" type="curve" smooth="yes"/>
      <point x="343" y="415"/>
      <point x="316" y="413"/>
      <point x="296" y="402" type="curve"/>
      <point x="288" y="398"/>
      <point x="287" y="394"/>
      <point x="287" y="380" type="curve" smooth="yes"/>
      <point x="287" y="250" type="line" smooth="yes"/>
      <point x="287" y="246"/>
      <point x="280" y="242"/>
      <point x="275" y="242" type="curve" smooth="yes"/>
      <point x="144" y="242" type="line" smooth="yes"/>
      <point x="140" y="242"/>
      <point x="142" y="248"/>
      <point x="144" y="251" type="curve" smooth="yes"/>
      <point x="387" y="628" type="line"/>
      <point x="387" y="628"/>
      <point x="395" y="642"/>
      <point x="389" y="642" type="curve" smooth="yes"/>
      <point x="339" y="642" type="line" smooth="yes"/>
      <point x="329" y="642"/>
      <point x="317" y="626"/>
      <point x="309" y="614" type="curve" smooth="yes"/>
      <point x="59" y="235" type="line" smooth="yes"/>
      <point x="47" y="217"/>
      <point x="41" y="208"/>
      <point x="20" y="177" type="curve" smooth="yes"/>
      <point x="19" y="176"/>
      <point x="19" y="175"/>
      <point x="19" y="174" type="curve" smooth="yes"/>
      <point x="19" y="170"/>
      <point x="24" y="164"/>
      <point x="29" y="164" type="curve" smooth="yes"/>
      <point x="134" y="165"/>
      <point x="190" y="171"/>
      <point x="272" y="171" type="curve" smooth="yes"/>
      <point x="273" y="171"/>
      <point x="287" y="168"/>
      <point x="287" y="162" type="curve" smooth="yes"/>
      <point x="287" y="100" type="line" smooth="yes"/>
      <point x="287" y="66"/>
      <point x="275" y="50"/>
      <point x="221" y="44" type="curve" smooth="yes"/>
      <point x="202" y="40"/>
      <point x="193" y="32"/>
      <point x="193" y="18" type="curve" smooth="yes"/>
      <point x="193" y="4"/>
      <point x="205" y="-4"/>
    </contour>
  </outline>
</glyph>
<glyph name="five" format="1">
  <advance width="480"/>
  <unicode hex="0035"/>
  <outline>
    <contour>
      <point x="109" y="-38" type="curve" smooth="yes"/>
      <point x="180" y="-38"/>
      <point x="245" y="-20"/>
      <point x="298" y="10" type="curve" smooth="yes"/>
      <point x="372" y="53"/>
      <point x="420" y="120"/>
      <point x="420" y="193" type="curve" smooth="yes"/>
      <point x="420" y="274"/>
      <point x="383" y="323"/>
      <point x="309" y="362" type="curve" smooth="yes"/>
      <point x="263" y="386"/>
      <point x="200" y="406"/>
      <point x="157" y="421" type="curve" smooth="yes"/>
      <point x="148" y="424"/>
      <point x="145" y="431"/>
      <point x="146" y="440" type="curve" smooth="yes"/>
      <point x="149" y="456"/>
      <point x="173" y="525"/>
      <point x="185" y="527" type="curve" smooth="yes"/>
      <point x="211" y="532"/>
      <point x="288" y="539"/>
      <point x="333" y="545" type="curve" smooth="yes"/>
      <point x="347" y="547"/>
      <point x="358" y="557"/>
      <point x="367" y="577" type="curve" smooth="yes"/>
      <point x="372" y="587"/>
      <point x="378" y="599"/>
      <point x="384" y="610" type="curve" smooth="yes"/>
      <point x="389" y="619"/>
      <point x="383" y="628"/>
      <point x="373" y="627" type="curve" smooth="yes"/>
      <point x="295" y="620"/>
      <point x="227" y="608"/>
      <point x="166" y="592" type="curve" smooth="yes"/>
      <point x="145" y="587"/>
      <point x="132" y="576"/>
      <point x="125" y="556" type="curve" smooth="yes"/>
      <point x="111" y="512"/>
      <point x="77" y="433"/>
      <point x="77" y="397" type="curve" smooth="yes"/>
      <point x="77" y="379"/>
      <point x="83" y="366"/>
      <point x="101" y="351" type="curve"/>
      <point x="278" y="309"/>
      <point x="341" y="264"/>
      <point x="341" y="194" type="curve" smooth="yes"/>
      <point x="341" y="114"/>
      <point x="267" y="22"/>
      <point x="108" y="22" type="curve" smooth="yes"/>
      <point x="88" y="22"/>
      <point x="71" y="4"/>
      <point x="71" y="-11" type="curve" smooth="yes"/>
      <point x="71" y="-27"/>
      <point x="89" y="-38"/>
    </contour>
  </outline>
</glyph>
<glyph name="six" format="1">
  <advance width="480"/>
  <unicode hex="0036"/>
  <outline>
    <contour>
      <point x="252" y="-16" type="curve" smooth="yes"/>
      <point x="349" y="-16"/>
      <point x="457" y="65"/>
      <point x="457" y="190" type="curve" smooth="yes"/>
      <point x="457" y="262"/>
      <point x="395" y="313"/>
      <point x="326" y="313" type="curve" smooth="yes"/>
      <point x="295" y="313"/>
      <point x="258" y="295"/>
      <point x="234" y="276" type="curve" smooth="yes"/>
      <point x="222" y="266"/>
      <point x="211" y="256"/>
      <point x="201" y="245" type="curve" smooth="yes"/>
      <point x="182" y="224"/>
      <point x="188" y="200"/>
      <point x="208" y="216" type="curve" smooth="yes"/>
      <point x="231" y="232"/>
      <point x="253" y="237"/>
      <point x="288" y="237" type="curve" smooth="yes"/>
      <point x="341" y="237"/>
      <point x="379" y="193"/>
      <point x="379" y="146" type="curve" smooth="yes"/>
      <point x="379" y="83"/>
      <point x="330" y="54"/>
      <point x="276" y="55" type="curve" smooth="yes"/>
      <point x="210" y="56"/>
      <point x="135" y="111"/>
      <point x="133" y="213" type="curve" smooth="yes"/>
      <point x="133" y="307"/>
      <point x="179" y="400"/>
      <point x="236" y="462" type="curve" smooth="yes"/>
      <point x="287" y="520"/>
      <point x="350" y="562"/>
      <point x="427" y="590" type="curve" smooth="yes"/>
      <point x="434" y="592"/>
      <point x="451" y="602"/>
      <point x="453" y="620" type="curve" smooth="yes"/>
      <point x="454" y="627"/>
      <point x="448" y="645"/>
      <point x="417" y="636" type="curve" smooth="yes"/>
      <point x="323" y="610"/>
      <point x="243" y="555"/>
      <point x="186" y="499" type="curve" smooth="yes"/>
      <point x="112" y="427"/>
      <point x="47" y="318"/>
      <point x="47" y="193" type="curve" smooth="yes"/>
      <point x="47" y="53"/>
      <point x="149" y="-16"/>
    </contour>
  </outline>
</glyph>
<glyph name="eight" format="1">
  <advance width="480"/>
  <unicode hex="0038"/>
  <outline>
    <contour>
      <point x="230" y="-14" type="curve"/>
      <point x="328" y="-14"/>
      <point x="427" y="60"/>
      <point x="427" y="164" type="curve"/>
      <point x="427" y="241"/>
      <point x="375" y="288"/>
      <point x="314" y="326" type="curve" smooth="yes"/>
      <point x="303" y="333"/>
      <point x="302" y="335"/>
      <point x="319" y="347" type="curve"/>
      <point x="342" y="363"/>
      <point x="353" y="373"/>
      <point x="360" y="379" type="curve" smooth="yes"/>
      <point x="385" y="400"/>
      <point x="409" y="437"/>
      <point x="409" y="496" type="curve" smooth="yes"/>
      <point x="409" y="577"/>
      <point x="330" y="630"/>
      <point x="250" y="630" type="curve"/>
      <point x="161" y="630"/>
      <point x="68" y="567"/>
      <point x="68" y="489" type="curve"/>
      <point x="68" y="404"/>
      <point x="112" y="379"/>
      <point x="171" y="327" type="curve"/>
      <point x="179" y="320"/>
      <point x="183" y="319"/>
      <point x="174" y="314" type="curve" smooth="yes"/>
      <point x="128" y="284"/>
      <point x="53" y="235"/>
      <point x="53" y="141" type="curve" smooth="yes"/>
      <point x="53" y="49"/>
      <point x="138" y="-14"/>
    </contour>
    <contour>
      <point x="244" y="49" type="curve"/>
      <point x="174" y="49"/>
      <point x="133" y="112"/>
      <point x="133" y="166" type="curve" smooth="yes"/>
      <point x="133" y="214"/>
      <point x="164" y="240"/>
      <point x="214" y="274" type="curve" smooth="yes"/>
      <point x="219" y="277"/>
      <point x="223" y="279"/>
      <point x="226" y="279" type="curve"/>
      <point x="232" y="279"/>
      <point x="238" y="276"/>
      <point x="246" y="271" type="curve"/>
      <point x="287" y="246"/>
      <point x="347" y="199"/>
      <point x="347" y="144" type="curve" smooth="yes"/>
      <point x="347" y="93"/>
      <point x="303" y="49"/>
    </contour>
    <contour>
      <point x="258" y="371" type="curve"/>
      <point x="254" y="369"/>
      <point x="248" y="372"/>
      <point x="244" y="374" type="curve" smooth="yes"/>
      <point x="184" y="415"/>
      <point x="146" y="443"/>
      <point x="146" y="490" type="curve" smooth="yes"/>
      <point x="145" y="532"/>
      <point x="181" y="565"/>
      <point x="245" y="565" type="curve" smooth="yes"/>
      <point x="303" y="565"/>
      <point x="331" y="531"/>
      <point x="331" y="487" type="curve" smooth="yes"/>
      <point x="331" y="443"/>
      <point x="309" y="400"/>
    </contour>
  </outline>
</glyph>
<glyph name="equal" format="1">
  <advance width="566"/>
  <unicode hex="003D"/>
  <outline>
    <contour>
      <point x="64" y="306" type="curve"/>
      <point x="484" y="306" type="line"/>
      <point x="502" y="306"/>
      <point x="515" y="336"/>
      <point x="515" y="357" type="curve" smooth="yes"/>
      <point x="515" y="365"/>
      <point x="509" y="371"/>
      <point x="502" y="371" type="curve"/>
      <point x="74" y="371" type="line"/>
      <point x="56" y="371"/>
      <point x="50" y="335"/>
      <point x="50" y="322" type="curve" smooth="yes"/>
      <point x="50" y="314"/>
      <point x="57" y="306"/>
    </contour>
    <contour>
      <point x="64" y="135" type="curve"/>
      <point x="484" y="135" type="line"/>
      <point x="502" y="135"/>
      <point x="515" y="163"/>
      <point x="515" y="185" type="curve" smooth="yes"/>
      <point x="515" y="194"/>
      <point x="509" y="199"/>
      <point x="502" y="199" type="curve"/>
      <point x="74" y="199" type="line"/>
      <point x="56" y="199"/>
      <point x="50" y="163"/>
      <point x="50" y="151" type="curve" smooth="yes"/>
      <point x="50" y="143"/>
      <point x="57" y="135"/>
    </contour>
  </outline>
</glyph>
<glyph name="at" format="1">
  <advance width="749"/>
  <unicode hex="0040"/>
  <outline>
    <contour>
      <point x="382" y="-157" type="curve" smooth="yes"/>
      <point x="514" y="-157"/>
      <point x="640" y="-69"/>
      <point x="640" y="-27" type="curve" smooth="yes"/>
      <point x="640" y="-8"/>
      <point x="632" y="2"/>
      <point x="612" y="2" type="curve" smooth="yes"/>
      <point x="601" y="2"/>
      <point x="588" y="-11"/>
      <point x="571" y="-22" type="curve" smooth="yes"/>
      <point x="518" y="-63"/>
      <point x="445" y="-94"/>
      <point x="392" y="-94" type="curve" smooth="yes"/>
      <point x="235" y="-94"/>
      <point x="110" y="32"/>
      <point x="110" y="214" type="curve" smooth="yes"/>
      <point x="110" y="396"/>
      <point x="244" y="516"/>
      <point x="393" y="516" type="curve" smooth="yes"/>
      <point x="531" y="516"/>
      <point x="639" y="404"/>
      <point x="639" y="245" type="curve" smooth="yes"/>
      <point x="639" y="152"/>
      <point x="586" y="106"/>
      <point x="534" y="106" type="curve" smooth="yes"/>
      <point x="506" y="106"/>
      <point x="502" y="121"/>
      <point x="502" y="138" type="curve" smooth="yes"/>
      <point x="502" y="148"/>
      <point x="504" y="158"/>
      <point x="505" y="168" type="curve"/>
      <point x="524" y="305" type="line" smooth="yes"/>
      <point x="527" y="323"/>
      <point x="537" y="368"/>
      <point x="546" y="395" type="curve"/>
      <point x="549" y="399"/>
      <point x="532" y="404"/>
      <point x="528" y="404" type="curve" smooth="yes"/>
      <point x="518" y="404"/>
      <point x="513" y="382"/>
      <point x="503" y="382" type="curve" smooth="yes"/>
      <point x="499" y="382"/>
      <point x="495" y="384"/>
      <point x="480" y="389" type="curve" smooth="yes"/>
      <point x="468" y="394"/>
      <point x="435" y="398"/>
      <point x="415" y="398" type="curve" smooth="yes"/>
      <point x="305" y="398"/>
      <point x="204" y="311"/>
      <point x="204" y="175" type="curve" smooth="yes"/>
      <point x="204" y="96"/>
      <point x="256" y="52"/>
      <point x="322" y="52" type="curve" smooth="yes"/>
      <point x="385" y="52"/>
      <point x="428" y="94"/>
      <point x="438" y="94" type="curve" smooth="yes"/>
      <point x="448" y="94"/>
      <point x="451" y="52"/>
      <point x="496" y="48" type="curve" smooth="yes"/>
      <point x="605" y="48"/>
      <point x="709" y="130"/>
      <point x="709" y="265" type="curve" smooth="yes"/>
      <point x="709" y="437"/>
      <point x="569" y="578"/>
      <point x="415" y="578" type="curve" smooth="yes"/>
      <point x="219" y="578"/>
      <point x="40" y="450"/>
      <point x="40" y="203" type="curve" smooth="yes"/>
      <point x="40" y="-10"/>
      <point x="199" y="-157"/>
    </contour>
    <contour>
      <point x="358" y="103" type="curve" smooth="yes"/>
      <point x="321" y="103"/>
      <point x="277" y="124"/>
      <point x="277" y="196" type="curve" smooth="yes"/>
      <point x="277" y="294"/>
      <point x="335" y="346"/>
      <point x="391" y="346" type="curve" smooth="yes"/>
      <point x="433" y="346"/>
      <point x="457" y="328"/>
      <point x="457" y="291" type="curve" smooth="yes"/>
      <point x="457" y="287"/>
      <point x="457" y="282"/>
      <point x="456" y="279" type="curve"/>
      <point x="443" y="173" type="line" smooth="yes"/>
      <point x="439" y="143"/>
      <point x="429" y="133"/>
      <point x="417" y="124" type="curve" smooth="yes"/>
      <point x="397" y="111"/>
      <point x="381" y="103"/>
    </contour>
  </outline>
</glyph>
<glyph name="A" format="1">
  <advance width="692"/>
  <unicode hex="0041"/>
  <outline>
    <contour>
      <point x="27" y="-5" type="curve" smooth="yes"/>
      <point x="60" y="-5"/>
      <point x="103" y="5"/>
      <point x="147" y="5" type="curve" smooth="yes"/>
      <point x="184" y="5"/>
      <point x="220" y="2"/>
      <point x="238" y="2" type="curve" smooth="yes"/>
      <point x="255" y="2"/>
      <point x="267" y="7"/>
      <point x="267" y="21" type="curve" smooth="yes"/>
      <point x="267" y="36"/>
      <point x="260" y="45"/>
      <point x="241" y="55" type="curve" smooth="yes"/>
      <point x="217" y="65"/>
      <point x="198" y="81"/>
      <point x="198" y="109" type="curve" smooth="yes"/>
      <point x="198" y="122"/>
      <point x="220" y="190"/>
      <point x="229" y="216" type="curve" smooth="yes"/>
      <point x="234" y="230"/>
      <point x="240" y="234"/>
      <point x="246" y="234" type="curve" smooth="yes"/>
      <point x="427" y="234" type="line" smooth="yes"/>
      <point x="445" y="234"/>
      <point x="451" y="233"/>
      <point x="454" y="223" type="curve" smooth="yes"/>
      <point x="469" y="173"/>
      <point x="483" y="128"/>
      <point x="483" y="99" type="curve" smooth="yes"/>
      <point x="483" y="78"/>
      <point x="468" y="64"/>
      <point x="428" y="56" type="curve" smooth="yes"/>
      <point x="409" y="53"/>
      <point x="395" y="39"/>
      <point x="395" y="24" type="curve" smooth="yes"/>
      <point x="395" y="10"/>
      <point x="407" y="4"/>
      <point x="424" y="4" type="curve" smooth="yes"/>
      <point x="448" y="4"/>
      <point x="490" y="5"/>
      <point x="529" y="5" type="curve" smooth="yes"/>
      <point x="574" y="5"/>
      <point x="640" y="-5"/>
      <point x="668" y="-5" type="curve" smooth="yes"/>
      <point x="685" y="-5"/>
      <point x="697" y="-2"/>
      <point x="697" y="12" type="curve" smooth="yes"/>
      <point x="697" y="27"/>
      <point x="687" y="45"/>
      <point x="659" y="51" type="curve" smooth="yes"/>
      <point x="620" y="59"/>
      <point x="585" y="71"/>
      <point x="555" y="152" type="curve" smooth="yes"/>
      <point x="522" y="247"/>
      <point x="449" y="459"/>
      <point x="385" y="662" type="curve" smooth="yes"/>
      <point x="382" y="670"/>
      <point x="381" y="678"/>
      <point x="378" y="684" type="curve"/>
      <point x="377" y="686"/>
      <point x="374" y="686"/>
      <point x="373" y="685" type="curve"/>
      <point x="369" y="679"/>
      <point x="366" y="659"/>
      <point x="354" y="651" type="curve" smooth="yes"/>
      <point x="342" y="643"/>
      <point x="330" y="640"/>
      <point x="318" y="636" type="curve"/>
      <point x="316" y="615"/>
      <point x="311" y="597"/>
      <point x="304" y="578" type="curve" smooth="yes"/>
      <point x="236" y="393"/>
      <point x="204" y="306"/>
      <point x="129" y="135" type="curve" smooth="yes"/>
      <point x="104" y="84"/>
      <point x="70" y="67"/>
      <point x="39" y="56" type="curve" smooth="yes"/>
      <point x="9" y="45"/>
      <point x="-2" y="32"/>
      <point x="-2" y="17" type="curve" smooth="yes"/>
      <point x="-2" y="4"/>
      <point x="10" y="-5"/>
    </contour>
    <contour>
      <point x="284" y="297" type="line" smooth="yes"/>
      <point x="271" y="297"/>
      <point x="263" y="297"/>
      <point x="263" y="304" type="curve" smooth="yes"/>
      <point x="263" y="306"/>
      <point x="264" y="309"/>
      <point x="265" y="312" type="curve" smooth="yes"/>
      <point x="342" y="516" type="line" smooth="yes"/>
      <point x="346" y="526"/>
      <point x="348" y="533"/>
      <point x="350" y="533" type="curve" smooth="yes"/>
      <point x="353" y="533"/>
      <point x="355" y="527"/>
      <point x="359" y="515" type="curve" smooth="yes"/>
      <point x="423" y="312" type="line"/>
      <point x="424" y="308"/>
      <point x="425" y="304"/>
      <point x="425" y="302" type="curve" smooth="yes"/>
      <point x="425" y="297"/>
      <point x="421" y="297"/>
      <point x="411" y="297" type="curve" smooth="yes"/>
    </contour>
  </outline>
</glyph>
<glyph name="B" format="1">
  <advance width="587"/>
  <unicode hex="0042"/>
  <outline>
    <contour>
      <point x="48" y="-5" type="curve" smooth="yes"/>
      <point x="106" y="-5"/>
      <point x="126" y="0"/>
      <point x="178" y="0" type="curve" smooth="yes"/>
      <point x="218" y="0"/>
      <point x="255" y="-4"/>
      <point x="273" y="-4" type="curve" smooth="yes"/>
      <point x="349" y="-4"/>
      <point x="401" y="9"/>
      <point x="443" y="30" type="curve" smooth="yes"/>
      <point x="484" y="51"/>
      <point x="547" y="84"/>
      <point x="547" y="194" type="curve" smooth="yes"/>
      <point x="547" y="310"/>
      <point x="465" y="339"/>
      <point x="405" y="359" type="curve" smooth="yes"/>
      <point x="399" y="361"/>
      <point x="400" y="367"/>
      <point x="405" y="369" type="curve" smooth="yes"/>
      <point x="438" y="382"/>
      <point x="451" y="391"/>
      <point x="472" y="412" type="curve" smooth="yes"/>
      <point x="487" y="427"/>
      <point x="506" y="463"/>
      <point x="506" y="508" type="curve" smooth="yes"/>
      <point x="506" y="617"/>
      <point x="430" y="657"/>
      <point x="274" y="657" type="curve" smooth="yes"/>
      <point x="216" y="657"/>
      <point x="201" y="652"/>
      <point x="163" y="652" type="curve" smooth="yes"/>
      <point x="122" y="652"/>
      <point x="113" y="653"/>
      <point x="59" y="653" type="curve" smooth="yes"/>
      <point x="40" y="653"/>
      <point x="30" y="645"/>
      <point x="30" y="632" type="curve" smooth="yes"/>
      <point x="30" y="619"/>
      <point x="40" y="609"/>
      <point x="63" y="606" type="curve" smooth="yes"/>
      <point x="112" y="598"/>
      <point x="130" y="577"/>
      <point x="130" y="522" type="curve" smooth="yes"/>
      <point x="130" y="116" type="line" smooth="yes"/>
      <point x="130" y="67"/>
      <point x="102" y="51"/>
      <point x="52" y="42" type="curve" smooth="yes"/>
      <point x="29" y="35"/>
      <point x="19" y="29"/>
      <point x="19" y="15" type="curve" smooth="yes"/>
      <point x="19" y="2"/>
      <point x="31" y="-5"/>
    </contour>
    <contour>
      <point x="287" y="62" type="curve" smooth="yes"/>
      <point x="236" y="62"/>
      <point x="208" y="76"/>
      <point x="208" y="124" type="curve" smooth="yes"/>
      <point x="208" y="296" type="line" smooth="yes"/>
      <point x="208" y="308"/>
      <point x="222" y="328"/>
      <point x="265" y="328" type="curve" smooth="yes"/>
      <point x="325" y="328"/>
      <point x="361" y="314"/>
      <point x="379" y="306" type="curve" smooth="yes"/>
      <point x="406" y="293"/>
      <point x="453" y="260"/>
      <point x="453" y="194" type="curve" smooth="yes"/>
      <point x="453" y="120"/>
      <point x="375" y="62"/>
    </contour>
    <contour>
      <point x="254" y="385" type="curve" smooth="yes"/>
      <point x="238" y="385"/>
      <point x="208" y="387"/>
      <point x="208" y="416" type="curve" smooth="yes"/>
      <point x="208" y="560" type="line" smooth="yes"/>
      <point x="208" y="585"/>
      <point x="219" y="598"/>
      <point x="274" y="598" type="curve" smooth="yes"/>
      <point x="397" y="598"/>
      <point x="420" y="534"/>
      <point x="420" y="487" type="curve" smooth="yes"/>
      <point x="420" y="440"/>
      <point x="389" y="416"/>
      <point x="375" y="409" type="curve" smooth="yes"/>
      <point x="334" y="390"/>
      <point x="290" y="385"/>
    </contour>
  </outline>
</glyph>
<glyph name="C" format="1">
  <advance width="710"/>
  <unicode hex="0043"/>
  <outline>
    <contour>
      <point x="407" y="-15" type="curve" smooth="yes"/>
      <point x="472" y="-15"/>
      <point x="547" y="-6"/>
      <point x="596" y="14" type="curve" smooth="yes"/>
      <point x="616" y="23"/>
      <point x="618" y="23"/>
      <point x="628" y="46" type="curve" smooth="yes"/>
      <point x="642" y="80"/>
      <point x="654" y="143"/>
      <point x="655" y="162" type="curve" smooth="yes"/>
      <point x="657" y="192"/>
      <point x="616" y="200"/>
      <point x="599" y="168" type="curve" smooth="yes"/>
      <point x="562" y="98"/>
      <point x="508" y="50"/>
      <point x="422" y="50" type="curve" smooth="yes"/>
      <point x="243" y="50"/>
      <point x="147" y="195"/>
      <point x="147" y="344" type="curve" smooth="yes"/>
      <point x="147" y="474"/>
      <point x="259" y="596"/>
      <point x="415" y="596" type="curve" smooth="yes"/>
      <point x="468" y="596"/>
      <point x="515" y="586"/>
      <point x="546" y="566" type="curve" smooth="yes"/>
      <point x="580" y="546"/>
      <point x="593" y="516"/>
      <point x="606" y="472" type="curve" smooth="yes"/>
      <point x="616" y="441"/>
      <point x="655" y="453"/>
      <point x="654" y="474" type="curve" smooth="yes"/>
      <point x="650" y="526"/>
      <point x="642" y="572"/>
      <point x="639" y="603" type="curve" smooth="yes"/>
      <point x="637" y="621"/>
      <point x="630" y="631"/>
      <point x="610" y="637" type="curve" smooth="yes"/>
      <point x="546" y="655"/>
      <point x="509" y="663"/>
      <point x="432" y="663" type="curve" smooth="yes"/>
      <point x="227" y="663"/>
      <point x="46" y="517"/>
      <point x="46" y="323" type="curve" smooth="yes"/>
      <point x="46" y="119"/>
      <point x="220" y="-15"/>
    </contour>
  </outline>
</glyph>
<glyph name="D" format="1">
  <advance width="754"/>
  <unicode hex="0044"/>
  <outline>
    <contour>
      <point x="371" y="-7" type="curve" smooth="yes"/>
      <point x="562" y="-7"/>
      <point x="719" y="150"/>
      <point x="719" y="342" type="curve" smooth="yes"/>
      <point x="719" y="517"/>
      <point x="611" y="659"/>
      <point x="340" y="659" type="curve" smooth="yes"/>
      <point x="313" y="659"/>
      <point x="212" y="651"/>
      <point x="169" y="651" type="curve" smooth="yes"/>
      <point x="121" y="651"/>
      <point x="109" y="653"/>
      <point x="58" y="653" type="curve" smooth="yes"/>
      <point x="41" y="653"/>
      <point x="29" y="647"/>
      <point x="29" y="633" type="curve" smooth="yes"/>
      <point x="29" y="616"/>
      <point x="39" y="611"/>
      <point x="62" y="605" type="curve" smooth="yes"/>
      <point x="113" y="594"/>
      <point x="129" y="575"/>
      <point x="129" y="524" type="curve" smooth="yes"/>
      <point x="129" y="140" type="line" smooth="yes"/>
      <point x="129" y="78"/>
      <point x="112" y="56"/>
      <point x="62" y="44" type="curve" smooth="yes"/>
      <point x="39" y="38"/>
      <point x="29" y="36"/>
      <point x="29" y="17" type="curve" smooth="yes"/>
      <point x="29" y="-1"/>
      <point x="41" y="-5"/>
      <point x="58" y="-5" type="curve" smooth="yes"/>
      <point x="111" y="-5"/>
      <point x="123" y="0"/>
      <point x="163" y="0" type="curve" smooth="yes"/>
      <point x="242" y="0"/>
      <point x="351" y="-7"/>
    </contour>
    <contour>
      <point x="359" y="60" type="curve" smooth="yes"/>
      <point x="284" y="60"/>
      <point x="209" y="70"/>
      <point x="209" y="143" type="curve" smooth="yes"/>
      <point x="209" y="510" type="line" smooth="yes"/>
      <point x="209" y="595"/>
      <point x="258" y="596"/>
      <point x="345" y="596" type="curve" smooth="yes"/>
      <point x="482" y="596"/>
      <point x="624" y="497"/>
      <point x="624" y="325" type="curve" smooth="yes"/>
      <point x="624" y="170"/>
      <point x="515" y="60"/>
    </contour>
  </outline>
</glyph>
<glyph name="E" format="1">
  <advance width="564"/>
  <unicode hex="0045"/>
  <outline>
    <contour>
      <point x="66" y="-5" type="curve" smooth="yes"/>
      <point x="120" y="-5"/>
      <point x="136" y="1"/>
      <point x="181" y="1" type="curve" smooth="yes"/>
      <point x="281" y="1"/>
      <point x="366" y="-5"/>
      <point x="494" y="-5" type="curve" smooth="yes"/>
      <point x="502" y="-5"/>
      <point x="504" y="3"/>
      <point x="508" y="12" type="curve" smooth="yes"/>
      <point x="520" y="39"/>
      <point x="539" y="137"/>
      <point x="539" y="155" type="curve" smooth="yes"/>
      <point x="539" y="163"/>
      <point x="532" y="171"/>
      <point x="520" y="172" type="curve" smooth="yes"/>
      <point x="508" y="173"/>
      <point x="497" y="164"/>
      <point x="493" y="156" type="curve" smooth="yes"/>
      <point x="473" y="117"/>
      <point x="460" y="93"/>
      <point x="440" y="79" type="curve" smooth="yes"/>
      <point x="421" y="66"/>
      <point x="396" y="62"/>
      <point x="357" y="62" type="curve" smooth="yes"/>
      <point x="290" y="62" type="line" smooth="yes"/>
      <point x="245" y="62"/>
      <point x="224" y="78"/>
      <point x="224" y="129" type="curve" smooth="yes"/>
      <point x="224" y="279" type="line" smooth="yes"/>
      <point x="224" y="302"/>
      <point x="235" y="305"/>
      <point x="258" y="305" type="curve" smooth="yes"/>
      <point x="331" y="305" type="line" smooth="yes"/>
      <point x="360" y="305"/>
      <point x="367" y="296"/>
      <point x="374" y="269" type="curve" smooth="yes"/>
      <point x="380" y="246"/>
      <point x="396" y="235"/>
      <point x="413" y="235" type="curve" smooth="yes"/>
      <point x="427" y="235"/>
      <point x="429" y="245"/>
      <point x="429" y="254" type="curve" smooth="yes"/>
      <point x="429" y="262"/>
      <point x="427" y="317"/>
      <point x="427" y="337" type="curve" smooth="yes"/>
      <point x="427" y="353"/>
      <point x="430" y="403"/>
      <point x="430" y="412" type="curve" smooth="yes"/>
      <point x="430" y="422"/>
      <point x="419" y="431"/>
      <point x="408" y="431" type="curve" smooth="yes"/>
      <point x="394" y="431"/>
      <point x="383" y="421"/>
      <point x="378" y="406" type="curve" smooth="yes"/>
      <point x="369" y="382"/>
      <point x="362" y="367"/>
      <point x="330" y="367" type="curve" smooth="yes"/>
      <point x="242" y="367" type="line" smooth="yes"/>
      <point x="232" y="367"/>
      <point x="224" y="377"/>
      <point x="224" y="389" type="curve" smooth="yes"/>
      <point x="224" y="555" type="line" smooth="yes"/>
      <point x="224" y="574"/>
      <point x="249" y="587"/>
      <point x="260" y="587" type="curve" smooth="yes"/>
      <point x="373" y="587" type="line" smooth="yes"/>
      <point x="398" y="587"/>
      <point x="421" y="581"/>
      <point x="440" y="560" type="curve" smooth="yes"/>
      <point x="449" y="550"/>
      <point x="456" y="530"/>
      <point x="461" y="513" type="curve" smooth="yes"/>
      <point x="464" y="504"/>
      <point x="471" y="495"/>
      <point x="483" y="495" type="curve" smooth="yes"/>
      <point x="493" y="495"/>
      <point x="505" y="502"/>
      <point x="505" y="514" type="curve" smooth="yes"/>
      <point x="505" y="541"/>
      <point x="497" y="606"/>
      <point x="490" y="644" type="curve"/>
      <point x="489" y="651"/>
      <point x="479" y="653"/>
      <point x="472" y="653" type="curve" smooth="yes"/>
      <point x="467" y="653"/>
      <point x="432" y="652"/>
      <point x="387" y="651" type="curve" smooth="yes"/>
      <point x="345" y="651"/>
      <point x="294" y="650"/>
      <point x="250" y="650" type="curve" smooth="yes"/>
      <point x="180" y="650"/>
      <point x="148" y="653"/>
      <point x="73" y="653" type="curve" smooth="yes"/>
      <point x="56" y="653"/>
      <point x="44" y="646"/>
      <point x="44" y="632" type="curve" smooth="yes"/>
      <point x="44" y="617"/>
      <point x="53" y="606"/>
      <point x="77" y="600" type="curve" smooth="yes"/>
      <point x="126" y="589"/>
      <point x="144" y="575"/>
      <point x="144" y="527" type="curve" smooth="yes"/>
      <point x="144" y="119" type="line" smooth="yes"/>
      <point x="144" y="71"/>
      <point x="120" y="55"/>
      <point x="70" y="44" type="curve" smooth="yes"/>
      <point x="46" y="39"/>
      <point x="37" y="29"/>
      <point x="37" y="14" type="curve" smooth="yes"/>
      <point x="37" y="0"/>
      <point x="49" y="-5"/>
    </contour>
  </outline>
</glyph>
<glyph name="F" format="1">
  <advance width="519"/>
  <unicode hex="0046"/>
  <outline>
    <contour>
      <point x="66" y="-5" type="curve" smooth="yes"/>
      <point x="120" y="-5"/>
      <point x="143" y="2"/>
      <point x="192" y="2" type="curve" smooth="yes"/>
      <point x="230" y="2"/>
      <point x="236" y="-5"/>
      <point x="290" y="-5" type="curve" smooth="yes"/>
      <point x="307" y="-5"/>
      <point x="319" y="0"/>
      <point x="319" y="14" type="curve" smooth="yes"/>
      <point x="319" y="29"/>
      <point x="310" y="40"/>
      <point x="286" y="44" type="curve" smooth="yes"/>
      <point x="236" y="54"/>
      <point x="222" y="78"/>
      <point x="220" y="121" type="curve" smooth="yes"/>
      <point x="217" y="187"/>
      <point x="217" y="216"/>
      <point x="217" y="277" type="curve" smooth="yes"/>
      <point x="217" y="294"/>
      <point x="228" y="301"/>
      <point x="241" y="302" type="curve" smooth="yes"/>
      <point x="261" y="303"/>
      <point x="279" y="304"/>
      <point x="301" y="304" type="curve" smooth="yes"/>
      <point x="316" y="304"/>
      <point x="328" y="303"/>
      <point x="343" y="303" type="curve" smooth="yes"/>
      <point x="356" y="303"/>
      <point x="370" y="292"/>
      <point x="381" y="265" type="curve" smooth="yes"/>
      <point x="385" y="256"/>
      <point x="395" y="240"/>
      <point x="418" y="240" type="curve" smooth="yes"/>
      <point x="432" y="240"/>
      <point x="435" y="250"/>
      <point x="435" y="259" type="curve" smooth="yes"/>
      <point x="434" y="287"/>
      <point x="432" y="318"/>
      <point x="432" y="336" type="curve" smooth="yes"/>
      <point x="432" y="352"/>
      <point x="432" y="381"/>
      <point x="435" y="403" type="curve" smooth="yes"/>
      <point x="437" y="416"/>
      <point x="425" y="425"/>
      <point x="413" y="425" type="curve" smooth="yes"/>
      <point x="404" y="425"/>
      <point x="392" y="412"/>
      <point x="386" y="400" type="curve" smooth="yes"/>
      <point x="376" y="381"/>
      <point x="362" y="368"/>
      <point x="347" y="368" type="curve" smooth="yes"/>
      <point x="323" y="368"/>
      <point x="269" y="365"/>
      <point x="227" y="365" type="curve" smooth="yes"/>
      <point x="218" y="365"/>
      <point x="217" y="376"/>
      <point x="217" y="387" type="curve"/>
      <point x="216" y="411"/>
      <point x="216" y="422"/>
      <point x="216" y="456" type="curve" smooth="yes"/>
      <point x="216" y="491"/>
      <point x="216" y="512"/>
      <point x="217" y="537" type="curve" smooth="yes"/>
      <point x="218" y="563"/>
      <point x="220" y="587"/>
      <point x="251" y="587" type="curve" smooth="yes"/>
      <point x="378" y="587" type="line" smooth="yes"/>
      <point x="402" y="587"/>
      <point x="419" y="579"/>
      <point x="433" y="565" type="curve" smooth="yes"/>
      <point x="440" y="557"/>
      <point x="447" y="542"/>
      <point x="451" y="526" type="curve" smooth="yes"/>
      <point x="454" y="515"/>
      <point x="463" y="509"/>
      <point x="477" y="509" type="curve" smooth="yes"/>
      <point x="487" y="509"/>
      <point x="492" y="521"/>
      <point x="492" y="533" type="curve" smooth="yes"/>
      <point x="492" y="547"/>
      <point x="490" y="628"/>
      <point x="487" y="651" type="curve" smooth="yes"/>
      <point x="486" y="658"/>
      <point x="476" y="660"/>
      <point x="469" y="660" type="curve" smooth="yes"/>
      <point x="445" y="660"/>
      <point x="413" y="650"/>
      <point x="370" y="650" type="curve"/>
      <point x="329" y="650"/>
      <point x="283" y="650"/>
      <point x="244" y="650" type="curve" smooth="yes"/>
      <point x="175" y="650"/>
      <point x="145" y="653"/>
      <point x="72" y="653" type="curve" smooth="yes"/>
      <point x="55" y="653"/>
      <point x="43" y="648"/>
      <point x="43" y="634" type="curve" smooth="yes"/>
      <point x="43" y="619"/>
      <point x="52" y="606"/>
      <point x="76" y="600" type="curve" smooth="yes"/>
      <point x="126" y="589"/>
      <point x="137" y="565"/>
      <point x="137" y="511" type="curve" smooth="yes"/>
      <point x="137" y="120" type="line" smooth="yes"/>
      <point x="137" y="71"/>
      <point x="120" y="54"/>
      <point x="70" y="44" type="curve" smooth="yes"/>
      <point x="46" y="40"/>
      <point x="37" y="29"/>
      <point x="37" y="14" type="curve" smooth="yes"/>
      <point x="37" y="0"/>
      <point x="49" y="-5"/>
    </contour>
  </outline>
</glyph>
<glyph name="G" format="1">
  <advance width="729"/>
  <unicode hex="0047"/>
  <outline>
    <contour>
      <point x="392" y="-14" type="curve" smooth="yes"/>
      <point x="519" y="-14"/>
      <point x="610" y="50"/>
      <point x="630" y="53" type="curve" smooth="yes"/>
      <point x="644" y="55"/>
      <point x="644" y="67"/>
      <point x="644" y="72" type="curve" smooth="yes"/>
      <point x="644" y="77"/>
      <point x="635" y="82"/>
      <point x="631" y="89" type="curve"/>
      <point x="628" y="95"/>
      <point x="625" y="98"/>
      <point x="625" y="105" type="curve" smooth="yes"/>
      <point x="625" y="132" type="line" smooth="yes"/>
      <point x="625" y="160"/>
      <point x="626" y="184"/>
      <point x="634" y="203" type="curve" smooth="yes"/>
      <point x="642" y="223"/>
      <point x="654" y="233"/>
      <point x="672" y="241" type="curve" smooth="yes"/>
      <point x="677" y="242"/>
      <point x="693" y="254"/>
      <point x="693" y="267" type="curve" smooth="yes"/>
      <point x="693" y="286"/>
      <point x="677" y="290"/>
      <point x="672" y="290" type="curve" smooth="yes"/>
      <point x="637" y="290"/>
      <point x="619" y="286"/>
      <point x="585" y="286" type="curve" smooth="yes"/>
      <point x="532" y="286"/>
      <point x="510" y="290"/>
      <point x="463" y="290" type="curve" smooth="yes"/>
      <point x="452" y="290"/>
      <point x="436" y="281"/>
      <point x="436" y="262" type="curve" smooth="yes"/>
      <point x="436" y="241"/>
      <point x="455" y="234"/>
      <point x="463" y="234" type="curve" smooth="yes"/>
      <point x="481" y="234"/>
      <point x="537" y="225"/>
      <point x="554" y="209" type="curve" smooth="yes"/>
      <point x="558" y="205"/>
      <point x="559" y="196"/>
      <point x="559" y="186" type="curve" smooth="yes"/>
      <point x="559" y="174"/>
      <point x="558" y="158"/>
      <point x="558" y="148" type="curve" smooth="yes"/>
      <point x="558" y="119"/>
      <point x="543" y="97"/>
      <point x="528" y="84" type="curve" smooth="yes"/>
      <point x="516" y="75"/>
      <point x="483" y="54"/>
      <point x="406" y="54" type="curve" smooth="yes"/>
      <point x="273" y="54"/>
      <point x="144" y="154"/>
      <point x="144" y="324" type="curve" smooth="yes"/>
      <point x="144" y="466"/>
      <point x="249" y="594"/>
      <point x="404" y="594" type="curve" smooth="yes"/>
      <point x="495" y="594"/>
      <point x="544" y="557"/>
      <point x="556" y="541" type="curve" smooth="yes"/>
      <point x="571" y="522"/>
      <point x="578" y="509"/>
      <point x="586" y="488" type="curve" smooth="yes"/>
      <point x="589" y="476"/>
      <point x="595" y="461"/>
      <point x="608" y="461" type="curve" smooth="yes"/>
      <point x="625" y="461"/>
      <point x="632" y="471"/>
      <point x="632" y="481" type="curve" smooth="yes"/>
      <point x="632" y="515"/>
      <point x="627" y="568"/>
      <point x="622" y="618" type="curve" smooth="yes"/>
      <point x="621" y="625"/>
      <point x="619" y="627"/>
      <point x="613" y="630" type="curve" smooth="yes"/>
      <point x="586" y="643"/>
      <point x="459" y="663"/>
      <point x="413" y="663" type="curve" smooth="yes"/>
      <point x="214" y="663"/>
      <point x="45" y="509"/>
      <point x="45" y="311" type="curve" smooth="yes"/>
      <point x="45" y="126"/>
      <point x="207" y="-14"/>
    </contour>
  </outline>
</glyph>
<glyph name="H" format="1">
  <advance width="810"/>
  <unicode hex="0048"/>
  <outline>
    <contour>
      <point x="66" y="-5" type="curve" smooth="yes"/>
      <point x="120" y="-5"/>
      <point x="133" y="4"/>
      <point x="176" y="4" type="curve" smooth="yes"/>
      <point x="222" y="4"/>
      <point x="239" y="-5"/>
      <point x="293" y="-5" type="curve" smooth="yes"/>
      <point x="310" y="-5"/>
      <point x="322" y="4"/>
      <point x="322" y="17" type="curve" smooth="yes"/>
      <point x="322" y="32"/>
      <point x="313" y="38"/>
      <point x="290" y="44" type="curve" smooth="yes"/>
      <point x="244" y="54"/>
      <point x="210" y="90"/>
      <point x="210" y="138" type="curve" smooth="yes"/>
      <point x="210" y="283" type="line" smooth="yes"/>
      <point x="210" y="291"/>
      <point x="210" y="294"/>
      <point x="215" y="294" type="curve" smooth="yes"/>
      <point x="597" y="294" type="line" smooth="yes"/>
      <point x="602" y="294"/>
      <point x="602" y="289"/>
      <point x="602" y="281" type="curve" smooth="yes"/>
      <point x="602" y="135" type="line" smooth="yes"/>
      <point x="602" y="81"/>
      <point x="575" y="53"/>
      <point x="533" y="42" type="curve" smooth="yes"/>
      <point x="510" y="38"/>
      <point x="501" y="32"/>
      <point x="501" y="17" type="curve" smooth="yes"/>
      <point x="501" y="4"/>
      <point x="513" y="-5"/>
      <point x="530" y="-5" type="curve" smooth="yes"/>
      <point x="584" y="-5"/>
      <point x="595" y="4"/>
      <point x="637" y="4" type="curve" smooth="yes"/>
      <point x="678" y="4"/>
      <point x="687" y="-5"/>
      <point x="741" y="-5" type="curve" smooth="yes"/>
      <point x="758" y="-5"/>
      <point x="770" y="4"/>
      <point x="770" y="17" type="curve" smooth="yes"/>
      <point x="770" y="32"/>
      <point x="761" y="38"/>
      <point x="738" y="44" type="curve" smooth="yes"/>
      <point x="688" y="55"/>
      <point x="682" y="75"/>
      <point x="682" y="130" type="curve" smooth="yes"/>
      <point x="682" y="525" type="line" smooth="yes"/>
      <point x="682" y="575"/>
      <point x="687" y="596"/>
      <point x="737" y="606" type="curve" smooth="yes"/>
      <point x="761" y="611"/>
      <point x="769" y="618"/>
      <point x="769" y="634" type="curve" smooth="yes"/>
      <point x="769" y="647"/>
      <point x="758" y="656"/>
      <point x="740" y="656" type="curve" smooth="yes"/>
      <point x="686" y="656"/>
      <point x="680" y="648"/>
      <point x="640" y="648" type="curve" smooth="yes"/>
      <point x="597" y="648"/>
      <point x="585" y="656"/>
      <point x="531" y="656" type="curve" smooth="yes"/>
      <point x="513" y="656"/>
      <point x="502" y="647"/>
      <point x="502" y="634" type="curve" smooth="yes"/>
      <point x="502" y="618"/>
      <point x="511" y="613"/>
      <point x="534" y="608" type="curve" smooth="yes"/>
      <point x="579" y="600"/>
      <point x="602" y="573"/>
      <point x="602" y="529" type="curve" smooth="yes"/>
      <point x="602" y="368" type="line" smooth="yes"/>
      <point x="602" y="360"/>
      <point x="596" y="358"/>
      <point x="590" y="358" type="curve" smooth="yes"/>
      <point x="224" y="358" type="line" smooth="yes"/>
      <point x="218" y="358"/>
      <point x="210" y="359"/>
      <point x="210" y="367" type="curve" smooth="yes"/>
      <point x="210" y="529" type="line" smooth="yes"/>
      <point x="210" y="569"/>
      <point x="239" y="598"/>
      <point x="286" y="606" type="curve" smooth="yes"/>
      <point x="310" y="611"/>
      <point x="319" y="618"/>
      <point x="319" y="634" type="curve" smooth="yes"/>
      <point x="319" y="647"/>
      <point x="308" y="656"/>
      <point x="290" y="656" type="curve" smooth="yes"/>
      <point x="236" y="656"/>
      <point x="221" y="648"/>
      <point x="176" y="648" type="curve" smooth="yes"/>
      <point x="134" y="648"/>
      <point x="122" y="656"/>
      <point x="68" y="656" type="curve" smooth="yes"/>
      <point x="50" y="656"/>
      <point x="39" y="647"/>
      <point x="39" y="634" type="curve" smooth="yes"/>
      <point x="39" y="618"/>
      <point x="48" y="613"/>
      <point x="71" y="606" type="curve" smooth="yes"/>
      <point x="120" y="592"/>
      <point x="130" y="577"/>
      <point x="130" y="524" type="curve" smooth="yes"/>
      <point x="130" y="130" type="line" smooth="yes"/>
      <point x="130" y="75"/>
      <point x="119" y="55"/>
      <point x="69" y="44" type="curve" smooth="yes"/>
      <point x="46" y="38"/>
      <point x="37" y="32"/>
      <point x="37" y="17" type="curve" smooth="yes"/>
      <point x="37" y="4"/>
      <point x="49" y="-5"/>
    </contour>
  </outline>
</glyph>
<glyph name="I" format="1">
  <advance width="340"/>
  <unicode hex="0049"/>
  <outline>
    <contour>
      <point x="48" y="-5" type="curve" smooth="yes"/>
      <point x="102" y="-5"/>
      <point x="126" y="4"/>
      <point x="176" y="4" type="curve" smooth="yes"/>
      <point x="222" y="4"/>
      <point x="239" y="-5"/>
      <point x="293" y="-5" type="curve" smooth="yes"/>
      <point x="310" y="-5"/>
      <point x="322" y="0"/>
      <point x="322" y="14" type="curve" smooth="yes"/>
      <point x="322" y="29"/>
      <point x="312" y="38"/>
      <point x="289" y="44" type="curve" smooth="yes"/>
      <point x="239" y="55"/>
      <point x="210" y="76"/>
      <point x="210" y="131" type="curve" smooth="yes"/>
      <point x="210" y="511" type="line" smooth="yes"/>
      <point x="210" y="570"/>
      <point x="231" y="589"/>
      <point x="281" y="600" type="curve" smooth="yes"/>
      <point x="304" y="607"/>
      <point x="314" y="619"/>
      <point x="314" y="634" type="curve" smooth="yes"/>
      <point x="314" y="648"/>
      <point x="302" y="653"/>
      <point x="285" y="653" type="curve" smooth="yes"/>
      <point x="231" y="653"/>
      <point x="219" y="648"/>
      <point x="176" y="648" type="curve" smooth="yes"/>
      <point x="130" y="648"/>
      <point x="113" y="653"/>
      <point x="59" y="653" type="curve" smooth="yes"/>
      <point x="42" y="653"/>
      <point x="30" y="648"/>
      <point x="30" y="634" type="curve" smooth="yes"/>
      <point x="30" y="619"/>
      <point x="40" y="607"/>
      <point x="63" y="600" type="curve" smooth="yes"/>
      <point x="113" y="589"/>
      <point x="130" y="570"/>
      <point x="130" y="511" type="curve" smooth="yes"/>
      <point x="130" y="131" type="line" smooth="yes"/>
      <point x="130" y="76"/>
      <point x="102" y="55"/>
      <point x="52" y="44" type="curve" smooth="yes"/>
      <point x="29" y="38"/>
      <point x="19" y="29"/>
      <point x="19" y="14" type="curve" smooth="yes"/>
      <point x="19" y="0"/>
      <point x="31" y="-5"/>
    </contour>
  </outline>
</glyph>
<glyph name="J" format="1">
  <advance width="340"/>
  <unicode hex="004A"/>
  <outline>
    <contour>
      <point x="34" y="-200" type="curve" smooth="yes"/>
      <point x="84" y="-200"/>
      <point x="121" y="-180"/>
      <point x="149" y="-148" type="curve" smooth="yes"/>
      <point x="185" y="-104"/>
      <point x="210" y="-33"/>
      <point x="210" y="47" type="curve" smooth="yes"/>
      <point x="210" y="512" type="line" smooth="yes"/>
      <point x="210" y="570"/>
      <point x="227" y="589"/>
      <point x="277" y="600" type="curve" smooth="yes"/>
      <point x="300" y="607"/>
      <point x="310" y="619"/>
      <point x="310" y="634" type="curve" smooth="yes"/>
      <point x="310" y="648"/>
      <point x="298" y="653"/>
      <point x="281" y="653" type="curve" smooth="yes"/>
      <point x="227" y="653"/>
      <point x="218" y="648"/>
      <point x="176" y="648" type="curve" smooth="yes"/>
      <point x="130" y="648"/>
      <point x="113" y="653"/>
      <point x="59" y="653" type="curve" smooth="yes"/>
      <point x="42" y="653"/>
      <point x="30" y="648"/>
      <point x="30" y="634" type="curve" smooth="yes"/>
      <point x="30" y="619"/>
      <point x="41" y="607"/>
      <point x="63" y="600" type="curve" smooth="yes"/>
      <point x="113" y="589"/>
      <point x="130" y="570"/>
      <point x="130" y="512" type="curve" smooth="yes"/>
      <point x="130" y="-1" type="line" smooth="yes"/>
      <point x="130" y="-85"/>
      <point x="111" y="-138"/>
      <point x="64" y="-138" type="curve" smooth="yes"/>
      <point x="45" y="-138"/>
      <point x="33" y="-132"/>
      <point x="21" y="-121" type="curve" smooth="yes"/>
      <point x="9" y="-111"/>
      <point x="-3" y="-104"/>
      <point x="-24" y="-104" type="curve" smooth="yes"/>
      <point x="-47" y="-104"/>
      <point x="-69" y="-128"/>
      <point x="-69" y="-151" type="curve" smooth="yes"/>
      <point x="-69" y="-182"/>
      <point x="-34" y="-200"/>
    </contour>
  </outline>
</glyph>
<glyph name="K" format="1">
  <advance width="681"/>
  <unicode hex="004B"/>
  <outline>
    <contour>
      <point x="65" y="-5" type="curve" smooth="yes"/>
      <point x="119" y="-5"/>
      <point x="135" y="4"/>
      <point x="180" y="4" type="curve" smooth="yes"/>
      <point x="223" y="4"/>
      <point x="237" y="-5"/>
      <point x="291" y="-5" type="curve" smooth="yes"/>
      <point x="308" y="-5"/>
      <point x="320" y="3"/>
      <point x="320" y="17" type="curve" smooth="yes"/>
      <point x="320" y="32"/>
      <point x="311" y="38"/>
      <point x="288" y="44" type="curve" smooth="yes"/>
      <point x="242" y="58"/>
      <point x="213" y="91"/>
      <point x="212" y="139" type="curve"/>
      <point x="212" y="191"/>
      <point x="211" y="239"/>
      <point x="211" y="302" type="curve" smooth="yes"/>
      <point x="211" y="309"/>
      <point x="210" y="323"/>
      <point x="215" y="323" type="curve" smooth="yes"/>
      <point x="220" y="323"/>
      <point x="230" y="314"/>
      <point x="238" y="306" type="curve"/>
      <point x="444" y="79" type="line" smooth="yes"/>
      <point x="449" y="74"/>
      <point x="453" y="70"/>
      <point x="453" y="65" type="curve" smooth="yes"/>
      <point x="453" y="61"/>
      <point x="449" y="57"/>
      <point x="437" y="54" type="curve"/>
      <point x="418" y="46"/>
      <point x="410" y="38"/>
      <point x="410" y="21" type="curve" smooth="yes"/>
      <point x="410" y="5"/>
      <point x="422" y="-1"/>
      <point x="439" y="-1" type="curve" smooth="yes"/>
      <point x="484" y="-1"/>
      <point x="495" y="0"/>
      <point x="520" y="0" type="curve" smooth="yes"/>
      <point x="575" y="0"/>
      <point x="600" y="-5"/>
      <point x="659" y="-5" type="curve" smooth="yes"/>
      <point x="676" y="-5"/>
      <point x="688" y="1"/>
      <point x="688" y="17" type="curve" smooth="yes"/>
      <point x="688" y="34"/>
      <point x="678" y="42"/>
      <point x="647" y="49" type="curve" smooth="yes"/>
      <point x="590" y="63"/>
      <point x="573" y="65"/>
      <point x="528" y="113" type="curve" smooth="yes"/>
      <point x="318" y="337" type="line" smooth="yes"/>
      <point x="311" y="344"/>
      <point x="308" y="350"/>
      <point x="313" y="355" type="curve"/>
      <point x="383" y="432"/>
      <point x="433" y="481"/>
      <point x="505" y="542" type="curve" smooth="yes"/>
      <point x="542" y="575"/>
      <point x="587" y="590"/>
      <point x="627" y="599" type="curve" smooth="yes"/>
      <point x="661" y="606"/>
      <point x="675" y="619"/>
      <point x="675" y="635" type="curve" smooth="yes"/>
      <point x="675" y="647"/>
      <point x="662" y="655"/>
      <point x="643" y="655" type="curve" smooth="yes"/>
      <point x="632" y="655"/>
      <point x="541" y="651"/>
      <point x="491" y="651" type="curve" smooth="yes"/>
      <point x="437" y="651" type="line" smooth="yes"/>
      <point x="420" y="651"/>
      <point x="408" y="645"/>
      <point x="408" y="632" type="curve" smooth="yes"/>
      <point x="408" y="616"/>
      <point x="414" y="608"/>
      <point x="437" y="598" type="curve"/>
      <point x="444" y="597"/>
      <point x="447" y="592"/>
      <point x="447" y="586" type="curve" smooth="yes"/>
      <point x="447" y="580"/>
      <point x="445" y="574"/>
      <point x="439" y="568" type="curve" smooth="yes"/>
      <point x="243" y="370" type="line"/>
      <point x="236" y="362"/>
      <point x="223" y="352"/>
      <point x="216" y="352" type="curve" smooth="yes"/>
      <point x="211" y="352"/>
      <point x="211" y="366"/>
      <point x="211" y="371" type="curve" smooth="yes"/>
      <point x="211" y="513" type="line" smooth="yes"/>
      <point x="211" y="561"/>
      <point x="221" y="592"/>
      <point x="265" y="601" type="curve" smooth="yes"/>
      <point x="288" y="606"/>
      <point x="298" y="620"/>
      <point x="298" y="633" type="curve" smooth="yes"/>
      <point x="298" y="645"/>
      <point x="286" y="653"/>
      <point x="269" y="653" type="curve" smooth="yes"/>
      <point x="215" y="653"/>
      <point x="210" y="650"/>
      <point x="172" y="650" type="curve" smooth="yes"/>
      <point x="128" y="650"/>
      <point x="114" y="653"/>
      <point x="60" y="653" type="curve" smooth="yes"/>
      <point x="43" y="653"/>
      <point x="31" y="649"/>
      <point x="31" y="636" type="curve" smooth="yes"/>
      <point x="31" y="623"/>
      <point x="41" y="613"/>
      <point x="64" y="607" type="curve" smooth="yes"/>
      <point x="114" y="593"/>
      <point x="131" y="579"/>
      <point x="131" y="524" type="curve" smooth="yes"/>
      <point x="131" y="130" type="line" smooth="yes"/>
      <point x="131" y="75"/>
      <point x="118" y="54"/>
      <point x="68" y="44" type="curve" smooth="yes"/>
      <point x="45" y="40"/>
      <point x="36" y="32"/>
      <point x="36" y="17" type="curve" smooth="yes"/>
      <point x="36" y="3"/>
      <point x="48" y="-5"/>
    </contour>
  </outline>
</glyph>
<glyph name="L" format="1">
  <advance width="594"/>
  <unicode hex="004C"/>
  <outline>
    <contour>
      <point x="65" y="-5" type="curve"/>
      <point x="65" y="-5"/>
      <point x="150" y="0"/>
      <point x="200" y="0" type="curve" smooth="yes"/>
      <point x="300" y="0"/>
      <point x="408" y="-5"/>
      <point x="542" y="-5" type="curve" smooth="yes"/>
      <point x="552" y="-5"/>
      <point x="555" y="3"/>
      <point x="556" y="12" type="curve" smooth="yes"/>
      <point x="561" y="64"/>
      <point x="569" y="104"/>
      <point x="583" y="159" type="curve" smooth="yes"/>
      <point x="584" y="165"/>
      <point x="585" y="169"/>
      <point x="585" y="174" type="curve" smooth="yes"/>
      <point x="585" y="183"/>
      <point x="577" y="193"/>
      <point x="563" y="193" type="curve" smooth="yes"/>
      <point x="549" y="193"/>
      <point x="535" y="175"/>
      <point x="524" y="152" type="curve" smooth="yes"/>
      <point x="511" y="125"/>
      <point x="505" y="113"/>
      <point x="481" y="89" type="curve" smooth="yes"/>
      <point x="470" y="77"/>
      <point x="444" y="63"/>
      <point x="413" y="63" type="curve" smooth="yes"/>
      <point x="297" y="63" type="line" smooth="yes"/>
      <point x="231" y="63"/>
      <point x="220" y="83"/>
      <point x="220" y="124" type="curve" smooth="yes"/>
      <point x="220" y="545" type="line" smooth="yes"/>
      <point x="220" y="584"/>
      <point x="259" y="591"/>
      <point x="303" y="601" type="curve" smooth="yes"/>
      <point x="332" y="607"/>
      <point x="342" y="619"/>
      <point x="342" y="634" type="curve" smooth="yes"/>
      <point x="342" y="648"/>
      <point x="330" y="653"/>
      <point x="313" y="653" type="curve" smooth="yes"/>
      <point x="259" y="653"/>
      <point x="236" y="650"/>
      <point x="187" y="650" type="curve" smooth="yes"/>
      <point x="143" y="650"/>
      <point x="129" y="653"/>
      <point x="75" y="653" type="curve" smooth="yes"/>
      <point x="58" y="653"/>
      <point x="46" y="648"/>
      <point x="46" y="634" type="curve" smooth="yes"/>
      <point x="46" y="619"/>
      <point x="55" y="605"/>
      <point x="79" y="600" type="curve" smooth="yes"/>
      <point x="129" y="590"/>
      <point x="140" y="586"/>
      <point x="140" y="538" type="curve" smooth="yes"/>
      <point x="140" y="116" type="line" smooth="yes"/>
      <point x="140" y="72"/>
      <point x="111" y="54"/>
      <point x="67" y="45" type="curve" smooth="yes"/>
      <point x="55" y="43"/>
      <point x="37" y="36"/>
      <point x="37" y="15" type="curve" smooth="yes"/>
      <point x="37" y="4"/>
      <point x="47" y="-5"/>
    </contour>
  </outline>
</glyph>
<glyph name="M" format="1">
  <advance width="901"/>
  <unicode hex="004D"/>
  <outline>
    <contour>
      <point x="48" y="-5" type="curve" smooth="yes"/>
      <point x="102" y="-5"/>
      <point x="103" y="0"/>
      <point x="139" y="0" type="curve" smooth="yes"/>
      <point x="176" y="0"/>
      <point x="179" y="-5"/>
      <point x="233" y="-5" type="curve" smooth="yes"/>
      <point x="250" y="-5"/>
      <point x="262" y="0"/>
      <point x="262" y="14" type="curve" smooth="yes"/>
      <point x="262" y="30"/>
      <point x="252" y="40"/>
      <point x="229" y="46" type="curve" smooth="yes"/>
      <point x="190" y="58"/>
      <point x="174" y="95"/>
      <point x="174" y="136" type="curve" smooth="yes"/>
      <point x="174" y="223"/>
      <point x="185" y="315"/>
      <point x="204" y="442" type="curve" smooth="yes"/>
      <point x="205" y="449"/>
      <point x="214" y="449"/>
      <point x="217" y="442" type="curve" smooth="yes"/>
      <point x="292" y="267"/>
      <point x="341" y="152"/>
      <point x="393" y="-4" type="curve" smooth="yes"/>
      <point x="396" y="-13"/>
      <point x="408" y="-12"/>
      <point x="411" y="-5" type="curve" smooth="yes"/>
      <point x="641" y="451" type="line" smooth="yes"/>
      <point x="648" y="464"/>
      <point x="655" y="465"/>
      <point x="657" y="451" type="curve"/>
      <point x="663" y="324"/>
      <point x="669" y="251"/>
      <point x="669" y="116" type="curve" smooth="yes"/>
      <point x="669" y="71"/>
      <point x="657" y="54"/>
      <point x="618" y="48" type="curve" smooth="yes"/>
      <point x="594" y="44"/>
      <point x="585" y="32"/>
      <point x="585" y="15" type="curve" smooth="yes"/>
      <point x="585" y="1"/>
      <point x="597" y="-5"/>
      <point x="614" y="-5" type="curve" smooth="yes"/>
      <point x="668" y="-5"/>
      <point x="678" y="0"/>
      <point x="719" y="0" type="curve" smooth="yes"/>
      <point x="765" y="0"/>
      <point x="782" y="-5"/>
      <point x="836" y="-5" type="curve" smooth="yes"/>
      <point x="853" y="-5"/>
      <point x="865" y="1"/>
      <point x="865" y="15" type="curve" smooth="yes"/>
      <point x="865" y="32"/>
      <point x="856" y="44"/>
      <point x="832" y="48" type="curve" smooth="yes"/>
      <point x="782" y="57"/>
      <point x="759" y="76"/>
      <point x="757" y="115" type="curve" smooth="yes"/>
      <point x="749" y="259"/>
      <point x="735" y="388"/>
      <point x="735" y="523" type="curve" smooth="yes"/>
      <point x="735" y="545"/>
      <point x="744" y="569"/>
      <point x="759" y="577" type="curve" smooth="yes"/>
      <point x="777" y="586"/>
      <point x="800" y="597"/>
      <point x="818" y="607" type="curve"/>
      <point x="838" y="620"/>
      <point x="844" y="626"/>
      <point x="844" y="640" type="curve" smooth="yes"/>
      <point x="844" y="654"/>
      <point x="828" y="656"/>
      <point x="821" y="656" type="curve" smooth="yes"/>
      <point x="795" y="656"/>
      <point x="739" y="648"/>
      <point x="694" y="648" type="curve" smooth="yes"/>
      <point x="655" y="648" type="line" smooth="yes"/>
      <point x="650" y="648"/>
      <point x="647" y="643"/>
      <point x="645" y="635" type="curve" smooth="yes"/>
      <point x="640" y="614"/>
      <point x="633" y="582"/>
      <point x="627" y="560" type="curve"/>
      <point x="439" y="172" type="line" smooth="yes"/>
      <point x="434" y="162"/>
      <point x="420" y="165"/>
      <point x="416" y="175" type="curve" smooth="yes"/>
      <point x="267" y="554" type="line" smooth="yes"/>
      <point x="257" y="579"/>
      <point x="252" y="607"/>
      <point x="245" y="631" type="curve" smooth="yes"/>
      <point x="242" y="641"/>
      <point x="235" y="647"/>
      <point x="226" y="647" type="curve" smooth="yes"/>
      <point x="200" y="647"/>
      <point x="102" y="655"/>
      <point x="76" y="655" type="curve" smooth="yes"/>
      <point x="56" y="655"/>
      <point x="42" y="650"/>
      <point x="42" y="634" type="curve" smooth="yes"/>
      <point x="42" y="619"/>
      <point x="51" y="611"/>
      <point x="64" y="607" type="curve" smooth="yes"/>
      <point x="86" y="601"/>
      <point x="104" y="594"/>
      <point x="120" y="579" type="curve" smooth="yes"/>
      <point x="132" y="567"/>
      <point x="138" y="551"/>
      <point x="139" y="530" type="curve" smooth="yes"/>
      <point x="140" y="518"/>
      <point x="140" y="503"/>
      <point x="140" y="492" type="curve" smooth="yes"/>
      <point x="140" y="416"/>
      <point x="125" y="298"/>
      <point x="103" y="136" type="curve" smooth="yes"/>
      <point x="96" y="82"/>
      <point x="79" y="52"/>
      <point x="52" y="46" type="curve" smooth="yes"/>
      <point x="29" y="39"/>
      <point x="19" y="30"/>
      <point x="19" y="14" type="curve" smooth="yes"/>
      <point x="19" y="0"/>
      <point x="31" y="-5"/>
    </contour>
  </outline>
</glyph>
<glyph name="N" format="1">
  <advance width="792"/>
  <unicode hex="004E"/>
  <outline>
    <contour>
      <point x="668" y="-17" type="curve" smooth="yes"/>
      <point x="678" y="-17"/>
      <point x="689" y="-13"/>
      <point x="689" y="8" type="curve" smooth="yes"/>
      <point x="689" y="21"/>
      <point x="684" y="57"/>
      <point x="684" y="105" type="curve" smooth="yes"/>
      <point x="684" y="249"/>
      <point x="689" y="468"/>
      <point x="694" y="517" type="curve" smooth="yes"/>
      <point x="699" y="567"/>
      <point x="714" y="592"/>
      <point x="753" y="600" type="curve" smooth="yes"/>
      <point x="773" y="605"/>
      <point x="782" y="616"/>
      <point x="782" y="631" type="curve" smooth="yes"/>
      <point x="782" y="646"/>
      <point x="771" y="651"/>
      <point x="757" y="651" type="curve" smooth="yes"/>
      <point x="698" y="651"/>
      <point x="691" y="646"/>
      <point x="651" y="646" type="curve" smooth="yes"/>
      <point x="620" y="646"/>
      <point x="612" y="650"/>
      <point x="564" y="650" type="curve" smooth="yes"/>
      <point x="549" y="650"/>
      <point x="534" y="645"/>
      <point x="534" y="631" type="curve" smooth="yes"/>
      <point x="534" y="615"/>
      <point x="547" y="605"/>
      <point x="568" y="599" type="curve" smooth="yes"/>
      <point x="607" y="589"/>
      <point x="625" y="554"/>
      <point x="625" y="515" type="curve" smooth="yes"/>
      <point x="625" y="388"/>
      <point x="622" y="250"/>
      <point x="622" y="181" type="curve"/>
      <point x="621" y="166"/>
      <point x="617" y="160"/>
      <point x="612" y="160" type="curve" smooth="yes"/>
      <point x="604" y="160"/>
      <point x="592" y="174"/>
      <point x="587" y="180" type="curve" smooth="yes"/>
      <point x="567" y="204"/>
      <point x="232" y="609"/>
      <point x="213" y="636" type="curve"/>
      <point x="206" y="645"/>
      <point x="201" y="653"/>
      <point x="189" y="653" type="curve" smooth="yes"/>
      <point x="117" y="653"/>
      <point x="113" y="656"/>
      <point x="35" y="658" type="curve" smooth="yes"/>
      <point x="28" y="658"/>
      <point x="12" y="655"/>
      <point x="12" y="638" type="curve" smooth="yes"/>
      <point x="12" y="621"/>
      <point x="31" y="607"/>
      <point x="54" y="598" type="curve" smooth="yes"/>
      <point x="94" y="584"/>
      <point x="129" y="562"/>
      <point x="129" y="494" type="curve" smooth="yes"/>
      <point x="129" y="348"/>
      <point x="123" y="203"/>
      <point x="116" y="137" type="curve" smooth="yes"/>
      <point x="110" y="85"/>
      <point x="97" y="55"/>
      <point x="62" y="45" type="curve" smooth="yes"/>
      <point x="42" y="40"/>
      <point x="33" y="30"/>
      <point x="33" y="14" type="curve" smooth="yes"/>
      <point x="33" y="0"/>
      <point x="44" y="-5"/>
      <point x="58" y="-5" type="curve" smooth="yes"/>
      <point x="115" y="-5"/>
      <point x="116" y="0"/>
      <point x="152" y="0" type="curve" smooth="yes"/>
      <point x="189" y="0"/>
      <point x="192" y="-5"/>
      <point x="251" y="-5" type="curve" smooth="yes"/>
      <point x="266" y="-5"/>
      <point x="277" y="0"/>
      <point x="277" y="14" type="curve" smooth="yes"/>
      <point x="277" y="30"/>
      <point x="268" y="40"/>
      <point x="247" y="45" type="curve" smooth="yes"/>
      <point x="199" y="58"/>
      <point x="187" y="95"/>
      <point x="187" y="137" type="curve" smooth="yes"/>
      <point x="187" y="246"/>
      <point x="192" y="381"/>
      <point x="192" y="469" type="curve" smooth="yes"/>
      <point x="192" y="477"/>
      <point x="194" y="490"/>
      <point x="201" y="490" type="curve" smooth="yes"/>
      <point x="206" y="490"/>
      <point x="212" y="486"/>
      <point x="222" y="474" type="curve" smooth="yes"/>
      <point x="245" y="446"/>
      <point x="564" y="71"/>
      <point x="582" y="46" type="curve" smooth="yes"/>
      <point x="614" y="2"/>
      <point x="656" y="-17"/>
    </contour>
  </outline>
</glyph>
<glyph name="O" format="1">
  <advance width="763"/>
  <unicode hex="004F"/>
  <outline>
    <contour>
      <point x="377" y="-14" type="curve" smooth="yes"/>
      <point x="599" y="-14"/>
      <point x="718" y="155"/>
      <point x="718" y="335" type="curve" smooth="yes"/>
      <point x="718" y="532"/>
      <point x="562" y="664"/>
      <point x="386" y="664" type="curve" smooth="yes"/>
      <point x="164" y="664"/>
      <point x="45" y="495"/>
      <point x="45" y="315" type="curve" smooth="yes"/>
      <point x="45" y="118"/>
      <point x="201" y="-14"/>
    </contour>
    <contour>
      <point x="392" y="55" type="curve" smooth="yes"/>
      <point x="225" y="55"/>
      <point x="141" y="194"/>
      <point x="141" y="361" type="curve" smooth="yes"/>
      <point x="141" y="501"/>
      <point x="219" y="593"/>
      <point x="370" y="593" type="curve" smooth="yes"/>
      <point x="537" y="593"/>
      <point x="622" y="456"/>
      <point x="622" y="290" type="curve" smooth="yes"/>
      <point x="622" y="149"/>
      <point x="545" y="55"/>
    </contour>
  </outline>
</glyph>
<glyph name="P" format="1">
  <advance width="552"/>
  <unicode hex="0050"/>
  <outline>
    <contour>
      <point x="49" y="-5" type="curve" smooth="yes"/>
      <point x="103" y="-5"/>
      <point x="128" y="4"/>
      <point x="178" y="4" type="curve" smooth="yes"/>
      <point x="222" y="4"/>
      <point x="235" y="-5"/>
      <point x="289" y="-5" type="curve" smooth="yes"/>
      <point x="306" y="-5"/>
      <point x="318" y="0"/>
      <point x="318" y="14" type="curve" smooth="yes"/>
      <point x="318" y="29"/>
      <point x="308" y="38"/>
      <point x="285" y="44" type="curve" smooth="yes"/>
      <point x="235" y="55"/>
      <point x="210" y="80"/>
      <point x="210" y="135" type="curve" smooth="yes"/>
      <point x="210" y="565" type="line" smooth="yes"/>
      <point x="210" y="589"/>
      <point x="236" y="599"/>
      <point x="274" y="599" type="curve" smooth="yes"/>
      <point x="371" y="599"/>
      <point x="441" y="557"/>
      <point x="441" y="470" type="curve" smooth="yes"/>
      <point x="441" y="373"/>
      <point x="400" y="316"/>
      <point x="320" y="316" type="curve" smooth="yes"/>
      <point x="300" y="316"/>
      <point x="290" y="317"/>
      <point x="280" y="317" type="curve" smooth="yes"/>
      <point x="268" y="317"/>
      <point x="258" y="300"/>
      <point x="258" y="291" type="curve" smooth="yes"/>
      <point x="258" y="275"/>
      <point x="274" y="254"/>
      <point x="303" y="254" type="curve" smooth="yes"/>
      <point x="456" y="254"/>
      <point x="527" y="357"/>
      <point x="527" y="480" type="curve" smooth="yes"/>
      <point x="527" y="592"/>
      <point x="426" y="658"/>
      <point x="274" y="658" type="curve" smooth="yes"/>
      <point x="246" y="658"/>
      <point x="203" y="652"/>
      <point x="163" y="652" type="curve" smooth="yes"/>
      <point x="122" y="652"/>
      <point x="119" y="653"/>
      <point x="65" y="653" type="curve" smooth="yes"/>
      <point x="47" y="653"/>
      <point x="34" y="646"/>
      <point x="34" y="632" type="curve" smooth="yes"/>
      <point x="34" y="616"/>
      <point x="46" y="606"/>
      <point x="69" y="600" type="curve" smooth="yes"/>
      <point x="119" y="584"/>
      <point x="130" y="557"/>
      <point x="130" y="507" type="curve" smooth="yes"/>
      <point x="130" y="132" type="line" smooth="yes"/>
      <point x="130" y="76"/>
      <point x="103" y="55"/>
      <point x="53" y="44" type="curve" smooth="yes"/>
      <point x="30" y="38"/>
      <point x="20" y="29"/>
      <point x="20" y="14" type="curve" smooth="yes"/>
      <point x="20" y="0"/>
      <point x="32" y="-5"/>
    </contour>
  </outline>
</glyph>
<glyph name="Q" format="1">
  <advance width="763"/>
  <unicode hex="0051"/>
  <outline>
    <contour>
      <point x="744" y="-248" type="curve" smooth="yes"/>
      <point x="781" y="-248"/>
      <point x="823" y="-238"/>
      <point x="861" y="-215" type="curve" smooth="yes"/>
      <point x="876" y="-206"/>
      <point x="879" y="-197"/>
      <point x="879" y="-185" type="curve" smooth="yes"/>
      <point x="879" y="-179"/>
      <point x="869" y="-173"/>
      <point x="863" y="-173" type="curve" smooth="yes"/>
      <point x="857" y="-173"/>
      <point x="850" y="-175"/>
      <point x="844" y="-177" type="curve"/>
      <point x="827" y="-184"/>
      <point x="802" y="-188"/>
      <point x="776" y="-187" type="curve" smooth="yes"/>
      <point x="711" y="-186"/>
      <point x="649" y="-166"/>
      <point x="598" y="-129" type="curve" smooth="yes"/>
      <point x="548" y="-93"/>
      <point x="510" y="-60"/>
      <point x="471" y="-18" type="curve"/>
      <point x="468" y="-15"/>
      <point x="467" y="-12"/>
      <point x="467" y="-9" type="curve" smooth="yes"/>
      <point x="467" y="-7"/>
      <point x="468" y="-4"/>
      <point x="475" y="-2" type="curve" smooth="yes"/>
      <point x="633" y="40"/>
      <point x="718" y="184"/>
      <point x="718" y="335" type="curve" smooth="yes"/>
      <point x="718" y="532"/>
      <point x="562" y="664"/>
      <point x="386" y="664" type="curve" smooth="yes"/>
      <point x="164" y="664"/>
      <point x="45" y="495"/>
      <point x="45" y="315" type="curve" smooth="yes"/>
      <point x="45" y="163"/>
      <point x="135" y="58"/>
      <point x="250" y="10" type="curve"/>
      <point x="278" y="-3"/>
      <point x="318" y="-15"/>
      <point x="365" y="-54" type="curve" smooth="yes"/>
      <point x="430" y="-108"/>
      <point x="471" y="-136"/>
      <point x="523" y="-173" type="curve" smooth="yes"/>
      <point x="587" y="-219"/>
      <point x="648" y="-248"/>
    </contour>
    <contour>
      <point x="392" y="55" type="curve" smooth="yes"/>
      <point x="225" y="55"/>
      <point x="141" y="194"/>
      <point x="141" y="361" type="curve" smooth="yes"/>
      <point x="141" y="501"/>
      <point x="219" y="593"/>
      <point x="370" y="593" type="curve" smooth="yes"/>
      <point x="537" y="593"/>
      <point x="622" y="456"/>
      <point x="622" y="290" type="curve" smooth="yes"/>
      <point x="622" y="149"/>
      <point x="545" y="55"/>
    </contour>
  </outline>
</glyph>
<glyph name="R" format="1">
  <advance width="713"/>
  <unicode hex="0052"/>
  <outline>
    <contour>
      <point x="637" y="-21" type="curve" smooth="yes"/>
      <point x="662" y="-21"/>
      <point x="718" y="-15"/>
      <point x="718" y="29" type="curve" smooth="yes"/>
      <point x="718" y="41"/>
      <point x="713" y="44"/>
      <point x="703" y="44" type="curve" smooth="yes"/>
      <point x="656" y="44"/>
      <point x="623" y="45"/>
      <point x="588" y="75" type="curve" smooth="yes"/>
      <point x="494" y="154"/>
      <point x="447" y="224"/>
      <point x="385" y="312" type="curve" smooth="yes"/>
      <point x="381" y="318"/>
      <point x="380" y="323"/>
      <point x="385" y="325" type="curve"/>
      <point x="440" y="353"/>
      <point x="503" y="403"/>
      <point x="503" y="493" type="curve" smooth="yes"/>
      <point x="503" y="602"/>
      <point x="424" y="657"/>
      <point x="278" y="657" type="curve" smooth="yes"/>
      <point x="220" y="657"/>
      <point x="201" y="652"/>
      <point x="163" y="652" type="curve" smooth="yes"/>
      <point x="124" y="652"/>
      <point x="115" y="656"/>
      <point x="66" y="656" type="curve" smooth="yes"/>
      <point x="49" y="656"/>
      <point x="37" y="648"/>
      <point x="37" y="634" type="curve" smooth="yes"/>
      <point x="37" y="619"/>
      <point x="46" y="612"/>
      <point x="69" y="606" type="curve" smooth="yes"/>
      <point x="120" y="593"/>
      <point x="130" y="578"/>
      <point x="130" y="517" type="curve" smooth="yes"/>
      <point x="130" y="130" type="line" smooth="yes"/>
      <point x="130" y="75"/>
      <point x="115" y="55"/>
      <point x="65" y="44" type="curve" smooth="yes"/>
      <point x="42" y="38"/>
      <point x="33" y="32"/>
      <point x="33" y="17" type="curve" smooth="yes"/>
      <point x="33" y="3"/>
      <point x="45" y="-5"/>
      <point x="62" y="-5" type="curve" smooth="yes"/>
      <point x="116" y="-5"/>
      <point x="133" y="4"/>
      <point x="178" y="4" type="curve" smooth="yes"/>
      <point x="222" y="4"/>
      <point x="235" y="-5"/>
      <point x="289" y="-5" type="curve" smooth="yes"/>
      <point x="306" y="-5"/>
      <point x="318" y="3"/>
      <point x="318" y="17" type="curve" smooth="yes"/>
      <point x="318" y="32"/>
      <point x="309" y="38"/>
      <point x="286" y="44" type="curve" smooth="yes"/>
      <point x="239" y="54"/>
      <point x="210" y="91"/>
      <point x="210" y="139" type="curve" smooth="yes"/>
      <point x="210" y="278" type="line" smooth="yes"/>
      <point x="210" y="290"/>
      <point x="214" y="298"/>
      <point x="225" y="297" type="curve" smooth="yes"/>
      <point x="243" y="295"/>
      <point x="275" y="290"/>
      <point x="304" y="277" type="curve" smooth="yes"/>
      <point x="324" y="267"/>
      <point x="336" y="256"/>
      <point x="347" y="238" type="curve" smooth="yes"/>
      <point x="416" y="130"/>
      <point x="450" y="90"/>
      <point x="499" y="32" type="curve" smooth="yes"/>
      <point x="534" y="-10"/>
      <point x="580" y="-21"/>
    </contour>
    <contour>
      <point x="263" y="355" type="curve" smooth="yes"/>
      <point x="230" y="355"/>
      <point x="210" y="356"/>
      <point x="210" y="383" type="curve" smooth="yes"/>
      <point x="210" y="447"/>
      <point x="211" y="492"/>
      <point x="212" y="519" type="curve" smooth="yes"/>
      <point x="215" y="574"/>
      <point x="223" y="593"/>
      <point x="266" y="593" type="curve" smooth="yes"/>
      <point x="392" y="593"/>
      <point x="413" y="538"/>
      <point x="413" y="473" type="curve" smooth="yes"/>
      <point x="413" y="411"/>
      <point x="355" y="355"/>
    </contour>
  </outline>
</glyph>
<glyph name="S" format="1">
  <advance width="465"/>
  <unicode hex="0053"/>
  <outline>
    <contour>
      <point x="204" y="-16" type="curve" smooth="yes"/>
      <point x="335" y="-16"/>
      <point x="422" y="61"/>
      <point x="422" y="180" type="curve" smooth="yes"/>
      <point x="422" y="280"/>
      <point x="347" y="327"/>
      <point x="277" y="370" type="curve" smooth="yes"/>
      <point x="210" y="410"/>
      <point x="152" y="444"/>
      <point x="152" y="496" type="curve" smooth="yes"/>
      <point x="152" y="569"/>
      <point x="201" y="595"/>
      <point x="255" y="595" type="curve" smooth="yes"/>
      <point x="307" y="595"/>
      <point x="340" y="564"/>
      <point x="360" y="506" type="curve" smooth="yes"/>
      <point x="364" y="492"/>
      <point x="379" y="489"/>
      <point x="391" y="489" type="curve" smooth="yes"/>
      <point x="399" y="489"/>
      <point x="415" y="492"/>
      <point x="415" y="506" type="curve" smooth="yes"/>
      <point x="415" y="537"/>
      <point x="403" y="583"/>
      <point x="395" y="616" type="curve" smooth="yes"/>
      <point x="392" y="627"/>
      <point x="384" y="638"/>
      <point x="374" y="642" type="curve" smooth="yes"/>
      <point x="352" y="651"/>
      <point x="317" y="664"/>
      <point x="269" y="664" type="curve" smooth="yes"/>
      <point x="128" y="664"/>
      <point x="60" y="583"/>
      <point x="60" y="482" type="curve" smooth="yes"/>
      <point x="60" y="385"/>
      <point x="147" y="340"/>
      <point x="225" y="291" type="curve"/>
      <point x="291" y="253"/>
      <point x="330" y="230"/>
      <point x="330" y="158" type="curve" smooth="yes"/>
      <point x="330" y="93"/>
      <point x="283" y="51"/>
      <point x="219" y="51" type="curve" smooth="yes"/>
      <point x="167" y="51"/>
      <point x="113" y="82"/>
      <point x="89" y="160" type="curve" smooth="yes"/>
      <point x="85" y="170"/>
      <point x="77" y="175"/>
      <point x="66" y="175" type="curve" smooth="yes"/>
      <point x="50" y="175"/>
      <point x="39" y="167"/>
      <point x="40" y="157" type="curve" smooth="yes"/>
      <point x="42" y="129"/>
      <point x="43" y="79"/>
      <point x="50" y="52" type="curve" smooth="yes"/>
      <point x="52" y="44"/>
      <point x="58" y="37"/>
      <point x="63" y="32" type="curve"/>
      <point x="100" y="1"/>
      <point x="148" y="-16"/>
    </contour>
  </outline>
</glyph>
<glyph name="T" format="1">
  <advance width="670"/>
  <unicode hex="0054"/>
  <outline>
    <contour>
      <point x="214" y="-5" type="curve" smooth="yes"/>
      <point x="268" y="-5"/>
      <point x="292" y="0"/>
      <point x="342" y="0" type="curve" smooth="yes"/>
      <point x="388" y="0"/>
      <point x="405" y="-5"/>
      <point x="459" y="-5" type="curve" smooth="yes"/>
      <point x="476" y="-5"/>
      <point x="488" y="0"/>
      <point x="488" y="14" type="curve" smooth="yes"/>
      <point x="488" y="29"/>
      <point x="478" y="38"/>
      <point x="447" y="44" type="curve" smooth="yes"/>
      <point x="405" y="53"/>
      <point x="376" y="74"/>
      <point x="376" y="122" type="curve" smooth="yes"/>
      <point x="376" y="464" type="line" smooth="yes"/>
      <point x="376" y="574"/>
      <point x="381" y="579"/>
      <point x="426" y="579" type="curve" smooth="yes"/>
      <point x="502" y="579" type="line" smooth="yes"/>
      <point x="566" y="579"/>
      <point x="589" y="561"/>
      <point x="594" y="533" type="curve"/>
      <point x="603" y="507"/>
      <point x="610" y="492"/>
      <point x="627" y="492" type="curve" smooth="yes"/>
      <point x="644" y="492"/>
      <point x="654" y="512"/>
      <point x="654" y="524" type="curve" smooth="yes"/>
      <point x="654" y="540" type="line" smooth="yes"/>
      <point x="654" y="574"/>
      <point x="658" y="569"/>
      <point x="664" y="618" type="curve" smooth="yes"/>
      <point x="665" y="625"/>
      <point x="668" y="645"/>
      <point x="668" y="654" type="curve" smooth="yes"/>
      <point x="668" y="664"/>
      <point x="663" y="677"/>
      <point x="656" y="677" type="curve" smooth="yes"/>
      <point x="629" y="677"/>
      <point x="617" y="666"/>
      <point x="590" y="657" type="curve" smooth="yes"/>
      <point x="567" y="649"/>
      <point x="541" y="642"/>
      <point x="495" y="642" type="curve" smooth="yes"/>
      <point x="204" y="642" type="line" smooth="yes"/>
      <point x="176" y="642"/>
      <point x="147" y="649"/>
      <point x="134" y="662" type="curve" smooth="yes"/>
      <point x="123" y="674"/>
      <point x="100" y="694"/>
      <point x="89" y="694" type="curve" smooth="yes"/>
      <point x="79" y="694"/>
      <point x="65" y="687"/>
      <point x="63" y="665" type="curve" smooth="yes"/>
      <point x="58" y="611"/>
      <point x="51" y="579"/>
      <point x="31" y="531" type="curve" smooth="yes"/>
      <point x="29" y="524"/>
      <point x="27" y="517"/>
      <point x="27" y="511" type="curve" smooth="yes"/>
      <point x="27" y="503"/>
      <point x="34" y="497"/>
      <point x="42" y="497" type="curve" smooth="yes"/>
      <point x="64" y="497"/>
      <point x="86" y="526"/>
      <point x="93" y="540" type="curve" smooth="yes"/>
      <point x="107" y="565"/>
      <point x="136" y="579"/>
      <point x="164" y="579" type="curve" smooth="yes"/>
      <point x="204" y="579" type="line" smooth="yes"/>
      <point x="238" y="579"/>
      <point x="256" y="579"/>
      <point x="275" y="575" type="curve" smooth="yes"/>
      <point x="291" y="572"/>
      <point x="296" y="550"/>
      <point x="296" y="459" type="curve" smooth="yes"/>
      <point x="296" y="122" type="line" smooth="yes"/>
      <point x="296" y="74"/>
      <point x="268" y="53"/>
      <point x="224" y="44" type="curve" smooth="yes"/>
      <point x="195" y="38"/>
      <point x="185" y="29"/>
      <point x="185" y="14" type="curve" smooth="yes"/>
      <point x="185" y="0"/>
      <point x="197" y="-5"/>
    </contour>
  </outline>
</glyph>
<glyph name="U" format="1">
  <advance width="738"/>
  <unicode hex="0055"/>
  <outline>
    <contour>
      <point x="377" y="-14" type="curve" smooth="yes"/>
      <point x="527" y="-14"/>
      <point x="640" y="95"/>
      <point x="645" y="250" type="curve" smooth="yes"/>
      <point x="648" y="342"/>
      <point x="649" y="410"/>
      <point x="655" y="525" type="curve" smooth="yes"/>
      <point x="656" y="565"/>
      <point x="668" y="588"/>
      <point x="695" y="600" type="curve" smooth="yes"/>
      <point x="719" y="610"/>
      <point x="728" y="618"/>
      <point x="728" y="634" type="curve" smooth="yes"/>
      <point x="728" y="647"/>
      <point x="716" y="652"/>
      <point x="699" y="652" type="curve" smooth="yes"/>
      <point x="675" y="652"/>
      <point x="647" y="649"/>
      <point x="613" y="649" type="curve" smooth="yes"/>
      <point x="582" y="649"/>
      <point x="565" y="650"/>
      <point x="533" y="650" type="curve" smooth="yes"/>
      <point x="516" y="650"/>
      <point x="504" y="645"/>
      <point x="504" y="632" type="curve" smooth="yes"/>
      <point x="504" y="616"/>
      <point x="522" y="604"/>
      <point x="537" y="598" type="curve" smooth="yes"/>
      <point x="565" y="586"/>
      <point x="577" y="540"/>
      <point x="578" y="489" type="curve" smooth="yes"/>
      <point x="580" y="412"/>
      <point x="582" y="340"/>
      <point x="582" y="296" type="curve" smooth="yes"/>
      <point x="582" y="152"/>
      <point x="522" y="56"/>
      <point x="388" y="56" type="curve" smooth="yes"/>
      <point x="269" y="56"/>
      <point x="183" y="122"/>
      <point x="183" y="270" type="curve" smooth="yes"/>
      <point x="183" y="527" type="line" smooth="yes"/>
      <point x="183" y="567"/>
      <point x="209" y="591"/>
      <point x="225" y="599" type="curve" smooth="yes"/>
      <point x="246" y="610"/>
      <point x="258" y="618"/>
      <point x="258" y="633" type="curve" smooth="yes"/>
      <point x="258" y="647"/>
      <point x="246" y="652"/>
      <point x="229" y="652" type="curve" smooth="yes"/>
      <point x="208" y="652"/>
      <point x="180" y="650"/>
      <point x="149" y="650" type="curve" smooth="yes"/>
      <point x="112" y="650"/>
      <point x="83" y="653"/>
      <point x="53" y="653" type="curve" smooth="yes"/>
      <point x="36" y="653"/>
      <point x="24" y="648"/>
      <point x="24" y="634" type="curve" smooth="yes"/>
      <point x="24" y="619"/>
      <point x="34" y="609"/>
      <point x="57" y="597" type="curve" smooth="yes"/>
      <point x="77" y="587"/>
      <point x="103" y="572"/>
      <point x="103" y="524" type="curve" smooth="yes"/>
      <point x="103" y="240" type="line" smooth="yes"/>
      <point x="103" y="87"/>
      <point x="194" y="-14"/>
    </contour>
  </outline>
</glyph>
<glyph name="V" format="1">
  <advance width="664"/>
  <unicode hex="0056"/>
  <outline>
    <contour>
      <point x="326" y="-12" type="curve" smooth="yes"/>
      <point x="330" y="-12"/>
      <point x="337" y="-9"/>
      <point x="340" y="-5" type="curve" smooth="yes"/>
      <point x="355" y="18"/>
      <point x="370" y="57"/>
      <point x="379" y="79" type="curve" smooth="yes"/>
      <point x="548" y="515" type="line" smooth="yes"/>
      <point x="568" y="566"/>
      <point x="598" y="595"/>
      <point x="647" y="606" type="curve" smooth="yes"/>
      <point x="669" y="611"/>
      <point x="678" y="620"/>
      <point x="678" y="634" type="curve" smooth="yes"/>
      <point x="678" y="646"/>
      <point x="666" y="653"/>
      <point x="649" y="653" type="curve" smooth="yes"/>
      <point x="623" y="653"/>
      <point x="574" y="650"/>
      <point x="535" y="650" type="curve" smooth="yes"/>
      <point x="497" y="650"/>
      <point x="462" y="651"/>
      <point x="436" y="651" type="curve" smooth="yes"/>
      <point x="419" y="651"/>
      <point x="407" y="647"/>
      <point x="407" y="634" type="curve" smooth="yes"/>
      <point x="407" y="621"/>
      <point x="416" y="611"/>
      <point x="444" y="607" type="curve" smooth="yes"/>
      <point x="479" y="601"/>
      <point x="501" y="576"/>
      <point x="478" y="513" type="curve" smooth="yes"/>
      <point x="344" y="159" type="line" smooth="yes"/>
      <point x="341" y="150"/>
      <point x="335" y="153"/>
      <point x="333" y="158" type="curve" smooth="yes"/>
      <point x="199" y="523" type="line" smooth="yes"/>
      <point x="196" y="532"/>
      <point x="189" y="548"/>
      <point x="189" y="570" type="curve" smooth="yes"/>
      <point x="189" y="590"/>
      <point x="216" y="602"/>
      <point x="246" y="605" type="curve" smooth="yes"/>
      <point x="273" y="608"/>
      <point x="282" y="620"/>
      <point x="282" y="634" type="curve" smooth="yes"/>
      <point x="282" y="645"/>
      <point x="270" y="652"/>
      <point x="253" y="652" type="curve" smooth="yes"/>
      <point x="233" y="652"/>
      <point x="191" y="650"/>
      <point x="151" y="650" type="curve" smooth="yes"/>
      <point x="105" y="650"/>
      <point x="60" y="653"/>
      <point x="29" y="653" type="curve" smooth="yes"/>
      <point x="12" y="653"/>
      <point x="0" y="649"/>
      <point x="0" y="637" type="curve" smooth="yes"/>
      <point x="0" y="624"/>
      <point x="13" y="616"/>
      <point x="39" y="605" type="curve" smooth="yes"/>
      <point x="78" y="591"/>
      <point x="97" y="559"/>
      <point x="109" y="527" type="curve" smooth="yes"/>
      <point x="284" y="56" type="line" smooth="yes"/>
      <point x="291" y="37"/>
      <point x="301" y="10"/>
      <point x="309" y="-5" type="curve" smooth="yes"/>
      <point x="312" y="-10"/>
      <point x="320" y="-12"/>
    </contour>
  </outline>
</glyph>
<glyph name="W" format="1">
  <advance width="916"/>
  <unicode hex="0057"/>
  <outline>
    <contour>
      <point x="334" y="-16" type="curve" smooth="yes"/>
      <point x="344" y="-16"/>
      <point x="356" y="0"/>
      <point x="363" y="15" type="curve" smooth="yes"/>
      <point x="409" y="124"/>
      <point x="434" y="175"/>
      <point x="479" y="288" type="curve" smooth="yes"/>
      <point x="484" y="301"/>
      <point x="486" y="303"/>
      <point x="490" y="294" type="curve"/>
      <point x="537" y="177"/>
      <point x="554" y="126"/>
      <point x="599" y="7" type="curve" smooth="yes"/>
      <point x="603" y="-3"/>
      <point x="615" y="-12"/>
      <point x="621" y="-12" type="curve" smooth="yes"/>
      <point x="632" y="-12"/>
      <point x="644" y="1"/>
      <point x="647" y="11" type="curve" smooth="yes"/>
      <point x="814" y="511" type="line" smooth="yes"/>
      <point x="825" y="541"/>
      <point x="843" y="591"/>
      <point x="893" y="604" type="curve" smooth="yes"/>
      <point x="920" y="610"/>
      <point x="930" y="620"/>
      <point x="930" y="635" type="curve" smooth="yes"/>
      <point x="930" y="648"/>
      <point x="918" y="653"/>
      <point x="901" y="653" type="curve" smooth="yes"/>
      <point x="876" y="653"/>
      <point x="844" y="648"/>
      <point x="811" y="648" type="curve" smooth="yes"/>
      <point x="785" y="648"/>
      <point x="765" y="650"/>
      <point x="739" y="650" type="curve" smooth="yes"/>
      <point x="722" y="650"/>
      <point x="710" y="644"/>
      <point x="710" y="632" type="curve" smooth="yes"/>
      <point x="710" y="616"/>
      <point x="723" y="607"/>
      <point x="735" y="600" type="curve" smooth="yes"/>
      <point x="751" y="593"/>
      <point x="760" y="581"/>
      <point x="760" y="562" type="curve" smooth="yes"/>
      <point x="760" y="551"/>
      <point x="758" y="538"/>
      <point x="752" y="521" type="curve" smooth="yes"/>
      <point x="711" y="400"/>
      <point x="667" y="259"/>
      <point x="635" y="169" type="curve"/>
      <point x="631" y="160"/>
      <point x="627" y="156"/>
      <point x="624" y="163" type="curve" smooth="yes"/>
      <point x="541" y="388" type="line" smooth="yes"/>
      <point x="538" y="395"/>
      <point x="543" y="416"/>
      <point x="547" y="426" type="curve" smooth="yes"/>
      <point x="564" y="469"/>
      <point x="589" y="528"/>
      <point x="600" y="547" type="curve" smooth="yes"/>
      <point x="623" y="585"/>
      <point x="631" y="597"/>
      <point x="666" y="607" type="curve" smooth="yes"/>
      <point x="688" y="612"/>
      <point x="698" y="622"/>
      <point x="698" y="636" type="curve" smooth="yes"/>
      <point x="698" y="649"/>
      <point x="687" y="653"/>
      <point x="672" y="653" type="curve" smooth="yes"/>
      <point x="645" y="653"/>
      <point x="626" y="649"/>
      <point x="603" y="649" type="curve" smooth="yes"/>
      <point x="584" y="649"/>
      <point x="573" y="651"/>
      <point x="544" y="651" type="curve" smooth="yes"/>
      <point x="527" y="651"/>
      <point x="515" y="647"/>
      <point x="515" y="635" type="curve" smooth="yes"/>
      <point x="515" y="615"/>
      <point x="544" y="612"/>
      <point x="544" y="585" type="curve" smooth="yes"/>
      <point x="544" y="583"/>
      <point x="543" y="578"/>
      <point x="542" y="575" type="curve" smooth="yes"/>
      <point x="536" y="558"/>
      <point x="527" y="532"/>
      <point x="511" y="496" type="curve" smooth="yes"/>
      <point x="503" y="478"/>
      <point x="500" y="480"/>
      <point x="493" y="496" type="curve" smooth="yes"/>
      <point x="485" y="515"/>
      <point x="463" y="567"/>
      <point x="459" y="579" type="curve" smooth="yes"/>
      <point x="458" y="582"/>
      <point x="457" y="585"/>
      <point x="457" y="588" type="curve" smooth="yes"/>
      <point x="457" y="613"/>
      <point x="494" y="615"/>
      <point x="494" y="633" type="curve" smooth="yes"/>
      <point x="494" y="646"/>
      <point x="482" y="652"/>
      <point x="465" y="652" type="curve" smooth="yes"/>
      <point x="445" y="652"/>
      <point x="418" y="650"/>
      <point x="388" y="650" type="curve" smooth="yes"/>
      <point x="352" y="650"/>
      <point x="325" y="653"/>
      <point x="294" y="653" type="curve" smooth="yes"/>
      <point x="277" y="653"/>
      <point x="265" y="648"/>
      <point x="265" y="635" type="curve" smooth="yes"/>
      <point x="265" y="620"/>
      <point x="277" y="609"/>
      <point x="304" y="601" type="curve" smooth="yes"/>
      <point x="335" y="592"/>
      <point x="383" y="563"/>
      <point x="399" y="523" type="curve" smooth="yes"/>
      <point x="445" y="410" type="line" smooth="yes"/>
      <point x="450" y="397"/>
      <point x="453" y="389"/>
      <point x="453" y="381" type="curve" smooth="yes"/>
      <point x="453" y="375"/>
      <point x="452" y="368"/>
      <point x="447" y="358" type="curve" smooth="yes"/>
      <point x="363" y="177" type="line" smooth="yes"/>
      <point x="359" y="166"/>
      <point x="355" y="163"/>
      <point x="348" y="178" type="curve" smooth="yes"/>
      <point x="282" y="328"/>
      <point x="262" y="376"/>
      <point x="199" y="532" type="curve" smooth="yes"/>
      <point x="195" y="541"/>
      <point x="192" y="557"/>
      <point x="192" y="572" type="curve" smooth="yes"/>
      <point x="192" y="586"/>
      <point x="195" y="599"/>
      <point x="207" y="603" type="curve"/>
      <point x="230" y="612"/>
      <point x="240" y="620"/>
      <point x="240" y="635" type="curve" smooth="yes"/>
      <point x="240" y="648"/>
      <point x="228" y="652"/>
      <point x="211" y="652" type="curve" smooth="yes"/>
      <point x="191" y="652"/>
      <point x="155" y="650"/>
      <point x="118" y="650" type="curve" smooth="yes"/>
      <point x="84" y="650"/>
      <point x="60" y="653"/>
      <point x="29" y="653" type="curve" smooth="yes"/>
      <point x="12" y="653"/>
      <point x="0" y="648"/>
      <point x="0" y="636" type="curve" smooth="yes"/>
      <point x="0" y="621"/>
      <point x="11" y="610"/>
      <point x="43" y="598" type="curve" smooth="yes"/>
      <point x="71" y="588"/>
      <point x="96" y="567"/>
      <point x="114" y="531" type="curve"/>
      <point x="315" y="12" type="line" smooth="yes"/>
      <point x="320" y="-2"/>
      <point x="330" y="-16"/>
    </contour>
  </outline>
</glyph>
<glyph name="X" format="1">
  <advance width="707"/>
  <unicode hex="0058"/>
  <outline>
    <contour>
      <point x="24" y="-5" type="curve" smooth="yes"/>
      <point x="57" y="-5"/>
      <point x="105" y="1"/>
      <point x="150" y="1" type="curve" smooth="yes"/>
      <point x="186" y="1"/>
      <point x="221" y="-1"/>
      <point x="239" y="-1" type="curve" smooth="yes"/>
      <point x="256" y="-1"/>
      <point x="268" y="7"/>
      <point x="268" y="21" type="curve" smooth="yes"/>
      <point x="268" y="34"/>
      <point x="258" y="40"/>
      <point x="239" y="48" type="curve" smooth="yes"/>
      <point x="221" y="55"/>
      <point x="212" y="66"/>
      <point x="212" y="78" type="curve" smooth="yes"/>
      <point x="212" y="85"/>
      <point x="215" y="93"/>
      <point x="221" y="101" type="curve" smooth="yes"/>
      <point x="340" y="257" type="line" smooth="yes"/>
      <point x="347" y="266"/>
      <point x="352" y="266"/>
      <point x="362" y="252" type="curve" smooth="yes"/>
      <point x="451" y="127" type="line"/>
      <point x="460" y="113"/>
      <point x="463" y="103"/>
      <point x="463" y="93" type="curve" smooth="yes"/>
      <point x="463" y="70"/>
      <point x="444" y="55"/>
      <point x="428" y="49" type="curve" smooth="yes"/>
      <point x="414" y="42"/>
      <point x="395" y="37"/>
      <point x="395" y="23" type="curve" smooth="yes"/>
      <point x="395" y="9"/>
      <point x="407" y="0"/>
      <point x="424" y="0" type="curve" smooth="yes"/>
      <point x="448" y="0"/>
      <point x="486" y="1"/>
      <point x="527" y="1" type="curve" smooth="yes"/>
      <point x="574" y="1"/>
      <point x="642" y="-5"/>
      <point x="670" y="-5" type="curve" smooth="yes"/>
      <point x="687" y="-5"/>
      <point x="699" y="-1"/>
      <point x="699" y="12" type="curve" smooth="yes"/>
      <point x="699" y="26"/>
      <point x="689" y="35"/>
      <point x="659" y="44" type="curve" smooth="yes"/>
      <point x="623" y="55"/>
      <point x="578" y="84"/>
      <point x="546" y="130" type="curve" smooth="yes"/>
      <point x="410" y="326" type="line"/>
      <point x="403" y="341"/>
      <point x="406" y="345"/>
      <point x="424" y="366" type="curve" smooth="yes"/>
      <point x="541" y="509" type="line" smooth="yes"/>
      <point x="581" y="558"/>
      <point x="637" y="597"/>
      <point x="665" y="605" type="curve" smooth="yes"/>
      <point x="692" y="614"/>
      <point x="702" y="621"/>
      <point x="702" y="635" type="curve" smooth="yes"/>
      <point x="702" y="647"/>
      <point x="690" y="657"/>
      <point x="673" y="657" type="curve" smooth="yes"/>
      <point x="642" y="657"/>
      <point x="594" y="651"/>
      <point x="551" y="651" type="curve" smooth="yes"/>
      <point x="517" y="651"/>
      <point x="470" y="652"/>
      <point x="450" y="652" type="curve" smooth="yes"/>
      <point x="433" y="652"/>
      <point x="421" y="644"/>
      <point x="421" y="631" type="curve" smooth="yes"/>
      <point x="421" y="617"/>
      <point x="434" y="606"/>
      <point x="451" y="603" type="curve" smooth="yes"/>
      <point x="473" y="599"/>
      <point x="494" y="591"/>
      <point x="494" y="576" type="curve" smooth="yes"/>
      <point x="494" y="567"/>
      <point x="489" y="556"/>
      <point x="480" y="544" type="curve" smooth="yes"/>
      <point x="377" y="410" type="line" smooth="yes"/>
      <point x="367" y="396"/>
      <point x="362" y="393"/>
      <point x="349" y="413" type="curve" smooth="yes"/>
      <point x="271" y="522" type="line"/>
      <point x="257" y="541"/>
      <point x="252" y="553"/>
      <point x="252" y="563" type="curve" smooth="yes"/>
      <point x="252" y="584"/>
      <point x="270" y="595"/>
      <point x="289" y="603" type="curve" smooth="yes"/>
      <point x="306" y="610"/>
      <point x="322" y="614"/>
      <point x="322" y="628" type="curve" smooth="yes"/>
      <point x="322" y="642"/>
      <point x="310" y="651"/>
      <point x="293" y="651" type="curve" smooth="yes"/>
      <point x="271" y="651"/>
      <point x="232" y="650"/>
      <point x="191" y="650" type="curve" smooth="yes"/>
      <point x="144" y="650"/>
      <point x="78" y="656"/>
      <point x="48" y="656" type="curve" smooth="yes"/>
      <point x="31" y="656"/>
      <point x="19" y="651"/>
      <point x="19" y="638" type="curve" smooth="yes"/>
      <point x="19" y="624"/>
      <point x="30" y="615"/>
      <point x="59" y="606" type="curve" smooth="yes"/>
      <point x="94" y="595"/>
      <point x="137" y="572"/>
      <point x="175" y="518" type="curve" smooth="yes"/>
      <point x="290" y="355" type="line" smooth="yes"/>
      <point x="309" y="328"/>
      <point x="299" y="313"/>
      <point x="285" y="294" type="curve"/>
      <point x="160" y="138" type="line" smooth="yes"/>
      <point x="121" y="89"/>
      <point x="59" y="56"/>
      <point x="32" y="47" type="curve" smooth="yes"/>
      <point x="5" y="38"/>
      <point x="-5" y="30"/>
      <point x="-5" y="17" type="curve" smooth="yes"/>
      <point x="-5" y="4"/>
      <point x="7" y="-5"/>
    </contour>
  </outline>
</glyph>
<glyph name="Y" format="1">
  <advance width="578"/>
  <unicode hex="0059"/>
  <outline>
    <contour>
      <point x="182" y="-5" type="curve" smooth="yes"/>
      <point x="236" y="-5"/>
      <point x="260" y="0"/>
      <point x="310" y="0" type="curve" smooth="yes"/>
      <point x="356" y="0"/>
      <point x="373" y="-5"/>
      <point x="427" y="-5" type="curve" smooth="yes"/>
      <point x="444" y="-5"/>
      <point x="456" y="0"/>
      <point x="456" y="14" type="curve" smooth="yes"/>
      <point x="456" y="29"/>
      <point x="446" y="38"/>
      <point x="423" y="42" type="curve" smooth="yes"/>
      <point x="373" y="53"/>
      <point x="344" y="86"/>
      <point x="344" y="137" type="curve" smooth="yes"/>
      <point x="344" y="239" type="line" smooth="yes"/>
      <point x="344" y="278"/>
      <point x="343" y="286"/>
      <point x="369" y="329" type="curve" smooth="yes"/>
      <point x="415" y="404"/>
      <point x="438" y="440"/>
      <point x="493" y="523" type="curve" smooth="yes"/>
      <point x="522" y="568"/>
      <point x="538" y="592"/>
      <point x="569" y="599" type="curve" smooth="yes"/>
      <point x="597" y="609"/>
      <point x="621" y="617"/>
      <point x="621" y="630" type="curve" smooth="yes"/>
      <point x="621" y="645"/>
      <point x="612" y="653"/>
      <point x="592" y="653" type="curve" smooth="yes"/>
      <point x="569" y="653"/>
      <point x="529" y="650"/>
      <point x="488" y="650" type="curve" smooth="yes"/>
      <point x="459" y="650"/>
      <point x="429" y="651"/>
      <point x="399" y="651" type="curve" smooth="yes"/>
      <point x="382" y="651"/>
      <point x="370" y="646"/>
      <point x="370" y="634" type="curve" smooth="yes"/>
      <point x="370" y="619"/>
      <point x="389" y="604"/>
      <point x="403" y="601" type="curve" smooth="yes"/>
      <point x="416" y="598"/>
      <point x="432" y="593"/>
      <point x="432" y="571" type="curve" smooth="yes"/>
      <point x="432" y="561"/>
      <point x="429" y="547"/>
      <point x="419" y="528" type="curve" smooth="yes"/>
      <point x="388" y="468"/>
      <point x="372" y="441"/>
      <point x="345" y="398" type="curve" smooth="yes"/>
      <point x="330" y="376"/>
      <point x="323" y="365"/>
      <point x="315" y="365" type="curve" smooth="yes"/>
      <point x="309" y="365"/>
      <point x="301" y="377"/>
      <point x="287" y="403" type="curve" smooth="yes"/>
      <point x="213" y="542" type="line" smooth="yes"/>
      <point x="204" y="558"/>
      <point x="200" y="570"/>
      <point x="200" y="578" type="curve" smooth="yes"/>
      <point x="200" y="592"/>
      <point x="210" y="596"/>
      <point x="224" y="601" type="curve" smooth="yes"/>
      <point x="245" y="608"/>
      <point x="255" y="619"/>
      <point x="255" y="633" type="curve" smooth="yes"/>
      <point x="255" y="646"/>
      <point x="243" y="652"/>
      <point x="226" y="652" type="curve" smooth="yes"/>
      <point x="205" y="652"/>
      <point x="177" y="650"/>
      <point x="146" y="650" type="curve" smooth="yes"/>
      <point x="100" y="650"/>
      <point x="59" y="653"/>
      <point x="29" y="653" type="curve" smooth="yes"/>
      <point x="12" y="653"/>
      <point x="0" y="648"/>
      <point x="0" y="635" type="curve" smooth="yes"/>
      <point x="0" y="620"/>
      <point x="10" y="610"/>
      <point x="37" y="600" type="curve" smooth="yes"/>
      <point x="66" y="590"/>
      <point x="109" y="542"/>
      <point x="122" y="522" type="curve" smooth="yes"/>
      <point x="239" y="330" type="line"/>
      <point x="244" y="321"/>
      <point x="264" y="283"/>
      <point x="264" y="256" type="curve" smooth="yes"/>
      <point x="264" y="137" type="line" smooth="yes"/>
      <point x="264" y="83"/>
      <point x="236" y="53"/>
      <point x="186" y="42" type="curve" smooth="yes"/>
      <point x="163" y="38"/>
      <point x="153" y="29"/>
      <point x="153" y="14" type="curve" smooth="yes"/>
      <point x="153" y="0"/>
      <point x="165" y="-5"/>
    </contour>
  </outline>
</glyph>
<glyph name="Z" format="1">
  <advance width="603"/>
  <unicode hex="005A"/>
  <outline>
    <contour>
      <point x="533" y="-5" type="curve" smooth="yes"/>
      <point x="543" y="-5"/>
      <point x="547" y="4"/>
      <point x="551" y="12" type="curve" smooth="yes"/>
      <point x="562" y="36"/>
      <point x="588" y="147"/>
      <point x="588" y="158" type="curve" smooth="yes"/>
      <point x="588" y="174"/>
      <point x="583" y="182"/>
      <point x="572" y="182" type="curve" smooth="yes"/>
      <point x="554" y="182"/>
      <point x="538" y="158"/>
      <point x="528" y="138" type="curve" smooth="yes"/>
      <point x="511" y="95"/>
      <point x="479" y="70"/>
      <point x="431" y="67" type="curve" smooth="yes"/>
      <point x="387" y="64"/>
      <point x="342" y="62"/>
      <point x="300" y="62" type="curve" smooth="yes"/>
      <point x="259" y="62"/>
      <point x="223" y="64"/>
      <point x="196" y="67" type="curve"/>
      <point x="190" y="68"/>
      <point x="186" y="76"/>
      <point x="186" y="84" type="curve" smooth="yes"/>
      <point x="186" y="88"/>
      <point x="187" y="93"/>
      <point x="189" y="96" type="curve" smooth="yes"/>
      <point x="315" y="287"/>
      <point x="371" y="364"/>
      <point x="509" y="550" type="curve" smooth="yes"/>
      <point x="570" y="631" type="line" smooth="yes"/>
      <point x="574" y="636"/>
      <point x="565" y="649"/>
      <point x="559" y="649" type="curve" smooth="yes"/>
      <point x="485" y="647"/>
      <point x="411" y="646"/>
      <point x="328" y="646" type="curve" smooth="yes"/>
      <point x="283" y="646"/>
      <point x="235" y="646"/>
      <point x="202" y="646" type="curve" smooth="yes"/>
      <point x="168" y="646"/>
      <point x="129" y="656"/>
      <point x="116" y="662" type="curve" smooth="yes"/>
      <point x="105" y="667"/>
      <point x="90" y="676"/>
      <point x="85" y="676" type="curve" smooth="yes"/>
      <point x="80" y="676"/>
      <point x="71" y="674"/>
      <point x="70" y="659" type="curve" smooth="yes"/>
      <point x="67" y="617"/>
      <point x="50" y="562"/>
      <point x="45" y="547" type="curve"/>
      <point x="41" y="536"/>
      <point x="35" y="516"/>
      <point x="36" y="506" type="curve" smooth="yes"/>
      <point x="37" y="496"/>
      <point x="45" y="490"/>
      <point x="56" y="490" type="curve" smooth="yes"/>
      <point x="78" y="490"/>
      <point x="86" y="512"/>
      <point x="94" y="531" type="curve" smooth="yes"/>
      <point x="109" y="566"/>
      <point x="140" y="582"/>
      <point x="180" y="584" type="curve" smooth="yes"/>
      <point x="201" y="586"/>
      <point x="235" y="586"/>
      <point x="271" y="586" type="curve" smooth="yes"/>
      <point x="320" y="586"/>
      <point x="372" y="585"/>
      <point x="404" y="584" type="curve"/>
      <point x="418" y="583"/>
      <point x="422" y="580"/>
      <point x="422" y="576" type="curve" smooth="yes"/>
      <point x="422" y="573"/>
      <point x="420" y="571"/>
      <point x="418" y="568" type="curve" smooth="yes"/>
      <point x="290" y="376"/>
      <point x="222" y="290"/>
      <point x="86" y="104" type="curve" smooth="yes"/>
      <point x="63" y="73"/>
      <point x="28" y="21"/>
      <point x="28" y="11" type="curve"/>
      <point x="28" y="11"/>
      <point x="29" y="-3"/>
      <point x="35" y="-3" type="curve" smooth="yes"/>
      <point x="112" y="-3" type="line" smooth="yes"/>
      <point x="150" y="-3"/>
      <point x="191" y="-2"/>
      <point x="231" y="-2" type="curve" smooth="yes"/>
      <point x="320" y="-2"/>
      <point x="419" y="-5"/>
    </contour>
  </outline>
</glyph>
<glyph name="backslash" format="1">
  <advance width="399"/>
  <unicode hex="005C"/>
  <outline>
    <contour>
      <point x="356" y="-62" type="curve" smooth="yes"/>
      <point x="373" y="-62"/>
      <point x="381" y="-53"/>
      <point x="377" y="-43" type="curve" smooth="yes"/>
      <point x="99" y="643" type="line" smooth="yes"/>
      <point x="91" y="662"/>
      <point x="70" y="665"/>
      <point x="49" y="665" type="curve" smooth="yes"/>
      <point x="32" y="665"/>
      <point x="27" y="654"/>
      <point x="32" y="643" type="curve" smooth="yes"/>
      <point x="310" y="-43" type="line" smooth="yes"/>
      <point x="317" y="-60"/>
      <point x="337" y="-62"/>
    </contour>
  </outline>
</glyph>
<glyph name="asciicircum" format="1">
  <advance width="500"/>
  <unicode hex="005E"/>
  <outline>
    <contour>
      <point x="65" y="283" type="curve" smooth="yes"/>
      <point x="83" y="283"/>
      <point x="114" y="293"/>
      <point x="127" y="311" type="curve" smooth="yes"/>
      <point x="242" y="470" type="line"/>
      <point x="248" y="478"/>
      <point x="250" y="478"/>
      <point x="257" y="470" type="curve"/>
      <point x="373" y="310" type="line" smooth="yes"/>
      <point x="383" y="297"/>
      <point x="413" y="283"/>
      <point x="434" y="283" type="curve" smooth="yes"/>
      <point x="448" y="283"/>
      <point x="451" y="303"/>
      <point x="443" y="314" type="curve"/>
      <point x="253" y="603" type="line"/>
      <point x="248" y="603" type="line"/>
      <point x="57" y="313" type="line"/>
      <point x="53" y="310"/>
      <point x="52" y="304"/>
      <point x="52" y="299" type="curve" smooth="yes"/>
      <point x="52" y="290"/>
      <point x="58" y="283"/>
    </contour>
  </outline>
</glyph>
<glyph name="grave" format="1">
  <advance width="201"/>
  <unicode hex="0060"/>
  <outline>
    <contour>
      <point x="166" y="520" type="curve" smooth="yes"/>
      <point x="178" y="520"/>
      <point x="183" y="522"/>
      <point x="178" y="539" type="curve" smooth="yes"/>
      <point x="176" y="547"/>
      <point x="174" y="557"/>
      <point x="166" y="570" type="curve" smooth="yes"/>
      <point x="148" y="603"/>
      <point x="115" y="658"/>
      <point x="97" y="687" type="curve" smooth="yes"/>
      <point x="85" y="705"/>
      <point x="75" y="711"/>
      <point x="60" y="711" type="curve" smooth="yes"/>
      <point x="37" y="711"/>
      <point x="18" y="703"/>
      <point x="21" y="687" type="curve" smooth="yes"/>
      <point x="23" y="680"/>
      <point x="28" y="672"/>
      <point x="33" y="663" type="curve" smooth="yes"/>
      <point x="62" y="614"/>
      <point x="86" y="587"/>
      <point x="118" y="551" type="curve" smooth="yes"/>
      <point x="136" y="530"/>
      <point x="156" y="520"/>
    </contour>
  </outline>
</glyph>
<glyph name="a" format="1">
  <advance width="399"/>
  <unicode hex="0061"/>
  <outline>
    <contour>
      <point x="117" y="-14" type="curve" smooth="yes"/>
      <point x="160" y="-14"/>
      <point x="198" y="2"/>
      <point x="242" y="38" type="curve"/>
      <point x="245" y="38" type="line"/>
      <point x="263" y="3"/>
      <point x="287" y="-14"/>
      <point x="318" y="-14" type="curve" smooth="yes"/>
      <point x="339" y="-14"/>
      <point x="366" y="0"/>
      <point x="387" y="21" type="curve" smooth="yes"/>
      <point x="393" y="27"/>
      <point x="398" y="37"/>
      <point x="398" y="43" type="curve" smooth="yes"/>
      <point x="398" y="52"/>
      <point x="391" y="60"/>
      <point x="381" y="60" type="curve" smooth="yes"/>
      <point x="379" y="60"/>
      <point x="376" y="58"/>
      <point x="370" y="52" type="curve" smooth="yes"/>
      <point x="362" y="45"/>
      <point x="353" y="42"/>
      <point x="337" y="42" type="curve" smooth="yes"/>
      <point x="319" y="42"/>
      <point x="306" y="58"/>
      <point x="306" y="83" type="curve" smooth="yes"/>
      <point x="311" y="375" type="line" smooth="yes"/>
      <point x="312" y="426"/>
      <point x="277" y="464"/>
      <point x="229" y="464" type="curve" smooth="yes"/>
      <point x="189" y="464"/>
      <point x="121" y="429"/>
      <point x="79" y="388" type="curve" smooth="yes"/>
      <point x="55" y="365"/>
      <point x="40" y="339"/>
      <point x="40" y="318" type="curve" smooth="yes"/>
      <point x="40" y="313"/>
      <point x="44" y="309"/>
      <point x="51" y="309" type="curve" smooth="yes"/>
      <point x="71" y="309"/>
      <point x="117" y="334"/>
      <point x="117" y="344" type="curve" smooth="yes"/>
      <point x="117" y="349"/>
      <point x="116" y="357"/>
      <point x="116" y="357" type="curve" smooth="yes"/>
      <point x="116" y="366"/>
      <point x="118" y="374"/>
      <point x="125" y="379" type="curve" smooth="yes"/>
      <point x="138" y="388"/>
      <point x="161" y="397"/>
      <point x="181" y="397" type="curve" smooth="yes"/>
      <point x="219" y="397"/>
      <point x="241" y="377"/>
      <point x="240" y="351" type="curve" smooth="yes"/>
      <point x="238" y="284" type="line" smooth="yes"/>
      <point x="236" y="251"/>
      <point x="237" y="248"/>
      <point x="210" y="236" type="curve" smooth="yes"/>
      <point x="108" y="190" type="line" smooth="yes"/>
      <point x="58" y="168"/>
      <point x="36" y="137"/>
      <point x="36" y="86" type="curve" smooth="yes"/>
      <point x="36" y="39"/>
      <point x="82" y="-14"/>
    </contour>
    <contour>
      <point x="166" y="56" type="curve" smooth="yes"/>
      <point x="142" y="56"/>
      <point x="118" y="71"/>
      <point x="118" y="103" type="curve" smooth="yes"/>
      <point x="118" y="134"/>
      <point x="137" y="151"/>
      <point x="210" y="178" type="curve" smooth="yes"/>
      <point x="221" y="182"/>
      <point x="226" y="183"/>
      <point x="230" y="183" type="curve" smooth="yes"/>
      <point x="237" y="183"/>
      <point x="238" y="178"/>
      <point x="238" y="165" type="curve" smooth="yes"/>
      <point x="236" y="113" type="line" smooth="yes"/>
      <point x="235" y="93"/>
      <point x="230" y="85"/>
      <point x="222" y="78" type="curve" smooth="yes"/>
      <point x="208" y="65"/>
      <point x="187" y="56"/>
    </contour>
  </outline>
</glyph>
<glyph name="b" format="1">
  <advance width="515"/>
  <unicode hex="0062"/>
  <outline>
    <contour>
      <point x="259" y="-14" type="curve" smooth="yes"/>
      <point x="390" y="-14"/>
      <point x="480" y="91"/>
      <point x="480" y="244" type="curve" smooth="yes"/>
      <point x="480" y="368"/>
      <point x="401" y="464"/>
      <point x="300" y="464" type="curve" smooth="yes"/>
      <point x="256" y="464"/>
      <point x="195" y="439"/>
      <point x="154" y="402" type="curve"/>
      <point x="147" y="403"/>
      <point x="145" y="410"/>
      <point x="145" y="439" type="curve" smooth="yes"/>
      <point x="145" y="593" type="line" smooth="yes"/>
      <point x="145" y="649"/>
      <point x="148" y="693"/>
      <point x="148" y="698" type="curve" smooth="yes"/>
      <point x="148" y="702"/>
      <point x="145" y="705"/>
      <point x="142" y="705" type="curve" smooth="yes"/>
      <point x="140" y="705"/>
      <point x="137" y="704"/>
      <point x="133" y="702" type="curve" smooth="yes"/>
      <point x="120" y="696"/>
      <point x="57" y="677"/>
      <point x="31" y="672" type="curve" smooth="yes"/>
      <point x="22" y="670"/>
      <point x="16" y="662"/>
      <point x="16" y="654" type="curve" smooth="yes"/>
      <point x="16" y="646"/>
      <point x="23" y="635"/>
      <point x="29" y="632" type="curve" smooth="yes"/>
      <point x="62" y="617"/>
      <point x="75" y="605"/>
      <point x="75" y="559" type="curve" smooth="yes"/>
      <point x="75" y="81" type="line" smooth="yes"/>
      <point x="75" y="56"/>
      <point x="68" y="21"/>
      <point x="68" y="9" type="curve" smooth="yes"/>
      <point x="68" y="2"/>
      <point x="76" y="-3"/>
      <point x="82" y="-3" type="curve" smooth="yes"/>
      <point x="85" y="-3"/>
      <point x="88" y="-1"/>
      <point x="91" y="2" type="curve" smooth="yes"/>
      <point x="97" y="8"/>
      <point x="105" y="15"/>
      <point x="113" y="15" type="curve" smooth="yes"/>
      <point x="120" y="15"/>
      <point x="144" y="7"/>
      <point x="173" y="-1" type="curve" smooth="yes"/>
      <point x="199" y="-8"/>
      <point x="230" y="-14"/>
    </contour>
    <contour>
      <point x="282" y="39" type="curve" smooth="yes"/>
      <point x="210" y="39"/>
      <point x="145" y="78"/>
      <point x="145" y="146" type="curve" smooth="yes"/>
      <point x="145" y="347" type="line"/>
      <point x="174" y="373"/>
      <point x="214" y="392"/>
      <point x="267" y="392" type="curve" smooth="yes"/>
      <point x="362" y="392"/>
      <point x="405" y="294"/>
      <point x="405" y="216" type="curve" smooth="yes"/>
      <point x="405" y="117"/>
      <point x="358" y="39"/>
    </contour>
  </outline>
</glyph>
<glyph name="c" format="1">
  <advance width="407"/>
  <unicode hex="0063"/>
  <outline>
    <contour>
      <point x="213" y="-15" type="curve" smooth="yes"/>
      <point x="274" y="-15"/>
      <point x="325" y="6"/>
      <point x="357" y="49" type="curve" smooth="yes"/>
      <point x="367" y="64"/>
      <point x="374" y="80"/>
      <point x="374" y="89" type="curve" smooth="yes"/>
      <point x="374" y="100"/>
      <point x="371" y="105"/>
      <point x="365" y="105" type="curve" smooth="yes"/>
      <point x="362" y="105"/>
      <point x="355" y="103"/>
      <point x="352" y="99" type="curve" smooth="yes"/>
      <point x="323" y="65"/>
      <point x="295" y="53"/>
      <point x="256" y="53" type="curve" smooth="yes"/>
      <point x="164" y="53"/>
      <point x="104" y="118"/>
      <point x="104" y="233" type="curve" smooth="yes"/>
      <point x="104" y="335"/>
      <point x="149" y="409"/>
      <point x="214" y="409" type="curve" smooth="yes"/>
      <point x="242" y="409"/>
      <point x="279" y="384"/>
      <point x="308" y="363" type="curve" smooth="yes"/>
      <point x="316" y="357"/>
      <point x="322" y="353"/>
      <point x="329" y="353" type="curve" smooth="yes"/>
      <point x="346" y="353"/>
      <point x="375" y="371"/>
      <point x="375" y="396" type="curve" smooth="yes"/>
      <point x="375" y="413"/>
      <point x="368" y="421"/>
      <point x="360" y="427" type="curve" smooth="yes"/>
      <point x="328" y="451"/>
      <point x="289" y="464"/>
      <point x="246" y="464" type="curve" smooth="yes"/>
      <point x="129" y="464"/>
      <point x="35" y="348"/>
      <point x="35" y="203" type="curve" smooth="yes"/>
      <point x="35" y="79"/>
      <point x="112" y="-15"/>
    </contour>
  </outline>
</glyph>
<glyph name="d" format="1">
  <advance width="506"/>
  <unicode hex="0064"/>
  <outline>
    <contour>
      <point x="357" y="-19" type="curve" smooth="yes"/>
      <point x="361" y="-19"/>
      <point x="362" y="-19"/>
      <point x="373" y="-13" type="curve" smooth="yes"/>
      <point x="420" y="7"/>
      <point x="453" y="16"/>
      <point x="484" y="20" type="curve" smooth="yes"/>
      <point x="496" y="21"/>
      <point x="504" y="36"/>
      <point x="504" y="53" type="curve" smooth="yes"/>
      <point x="504" y="65"/>
      <point x="494" y="71"/>
      <point x="480" y="70" type="curve" smooth="yes"/>
      <point x="463" y="69"/>
      <point x="450" y="66"/>
      <point x="443" y="66" type="curve" smooth="yes"/>
      <point x="428" y="66"/>
      <point x="422" y="94"/>
      <point x="422" y="127" type="curve" smooth="yes"/>
      <point x="422" y="562" type="line" smooth="yes"/>
      <point x="422" y="652"/>
      <point x="430" y="686"/>
      <point x="428" y="698" type="curve" smooth="yes"/>
      <point x="427" y="702"/>
      <point x="425" y="704"/>
      <point x="421" y="704" type="curve" smooth="yes"/>
      <point x="418" y="704"/>
      <point x="413" y="703"/>
      <point x="408" y="701" type="curve" smooth="yes"/>
      <point x="389" y="693"/>
      <point x="362" y="686"/>
      <point x="309" y="673" type="curve" smooth="yes"/>
      <point x="297" y="670"/>
      <point x="293" y="662"/>
      <point x="293" y="652" type="curve" smooth="yes"/>
      <point x="293" y="645"/>
      <point x="299" y="634"/>
      <point x="306" y="632" type="curve" smooth="yes"/>
      <point x="338" y="620"/>
      <point x="352" y="610"/>
      <point x="352" y="554" type="curve" smooth="yes"/>
      <point x="352" y="466" type="line" smooth="yes"/>
      <point x="352" y="453"/>
      <point x="348" y="449"/>
      <point x="345" y="449" type="curve" smooth="yes"/>
      <point x="342" y="449"/>
      <point x="338" y="450"/>
      <point x="332" y="452" type="curve" smooth="yes"/>
      <point x="317" y="457"/>
      <point x="287" y="464"/>
      <point x="260" y="464" type="curve" smooth="yes"/>
      <point x="120" y="464"/>
      <point x="35" y="343"/>
      <point x="35" y="214" type="curve" smooth="yes"/>
      <point x="35" y="101"/>
      <point x="106" y="-14"/>
      <point x="220" y="-14" type="curve" smooth="yes"/>
      <point x="286" y="-14"/>
      <point x="331" y="31"/>
      <point x="351" y="65" type="curve"/>
      <point x="351" y="51" type="line" smooth="yes"/>
      <point x="351" y="34"/>
      <point x="346" y="4"/>
      <point x="346" y="-9" type="curve" smooth="yes"/>
      <point x="346" y="-12"/>
      <point x="354" y="-19"/>
    </contour>
    <contour>
      <point x="257" y="59" type="curve" smooth="yes"/>
      <point x="214" y="59"/>
      <point x="110" y="84"/>
      <point x="110" y="239" type="curve" smooth="yes"/>
      <point x="110" y="376"/>
      <point x="185" y="409"/>
      <point x="231" y="409" type="curve" smooth="yes"/>
      <point x="324" y="409"/>
      <point x="352" y="368"/>
      <point x="352" y="301" type="curve" smooth="yes"/>
      <point x="351" y="109" type="line"/>
      <point x="327" y="80"/>
      <point x="292" y="59"/>
    </contour>
  </outline>
</glyph>
<glyph name="e" format="1">
  <advance width="390"/>
  <unicode hex="0065"/>
  <outline>
    <contour>
      <point x="213" y="-15" type="curve" smooth="yes"/>
      <point x="257" y="-15"/>
      <point x="300" y="0"/>
      <point x="331" y="27" type="curve" smooth="yes"/>
      <point x="354" y="46"/>
      <point x="371" y="75"/>
      <point x="371" y="105" type="curve" smooth="yes"/>
      <point x="371" y="115"/>
      <point x="366" y="122"/>
      <point x="358" y="122" type="curve" smooth="yes"/>
      <point x="352" y="122"/>
      <point x="348" y="120"/>
      <point x="339" y="105" type="curve" smooth="yes"/>
      <point x="317" y="68"/>
      <point x="286" y="46"/>
      <point x="248" y="46" type="curve" smooth="yes"/>
      <point x="163" y="46"/>
      <point x="94" y="131"/>
      <point x="94" y="236" type="curve" smooth="yes"/>
      <point x="94" y="270"/>
      <point x="100" y="278"/>
      <point x="119" y="278" type="curve" smooth="yes"/>
      <point x="330" y="278" type="line" smooth="yes"/>
      <point x="351" y="278"/>
      <point x="360" y="290"/>
      <point x="360" y="315" type="curve" smooth="yes"/>
      <point x="360" y="402"/>
      <point x="303" y="464"/>
      <point x="223" y="464" type="curve" smooth="yes"/>
      <point x="118" y="464"/>
      <point x="30" y="357"/>
      <point x="30" y="228" type="curve" smooth="yes"/>
      <point x="30" y="82"/>
      <point x="103" y="-15"/>
    </contour>
    <contour>
      <point x="127" y="322" type="line" smooth="yes"/>
      <point x="119" y="322"/>
      <point x="115" y="324"/>
      <point x="115" y="332" type="curve" smooth="yes"/>
      <point x="115" y="370"/>
      <point x="164" y="412"/>
      <point x="209" y="412" type="curve" smooth="yes"/>
      <point x="253" y="412"/>
      <point x="290" y="384"/>
      <point x="290" y="347" type="curve" smooth="yes"/>
      <point x="290" y="334"/>
      <point x="288" y="327"/>
      <point x="282" y="326" type="curve" smooth="yes"/>
      <point x="261" y="323"/>
      <point x="242" y="322"/>
      <point x="212" y="322" type="curve" smooth="yes"/>
    </contour>
  </outline>
</glyph>
<glyph name="f" format="1">
  <advance width="318"/>
  <unicode hex="0066"/>
  <outline>
    <contour>
      <point x="44" y="-3" type="curve" smooth="yes"/>
      <point x="83" y="-3"/>
      <point x="91" y="2"/>
      <point x="126" y="2" type="curve" smooth="yes"/>
      <point x="161" y="2"/>
      <point x="190" y="-3"/>
      <point x="230" y="-3" type="curve" smooth="yes"/>
      <point x="238" y="-3"/>
      <point x="250" y="-1"/>
      <point x="250" y="13" type="curve" smooth="yes"/>
      <point x="250" y="29"/>
      <point x="239" y="36"/>
      <point x="227" y="41" type="curve" smooth="yes"/>
      <point x="197" y="50"/>
      <point x="160" y="58"/>
      <point x="160" y="95" type="curve" smooth="yes"/>
      <point x="160" y="368" type="line" smooth="yes"/>
      <point x="160" y="376"/>
      <point x="163" y="381"/>
      <point x="179" y="381" type="curve" smooth="yes"/>
      <point x="269" y="381" type="line" smooth="yes"/>
      <point x="283" y="381"/>
      <point x="292" y="385"/>
      <point x="297" y="394" type="curve" smooth="yes"/>
      <point x="300" y="403"/>
      <point x="309" y="430"/>
      <point x="309" y="439" type="curve" smooth="yes"/>
      <point x="309" y="445"/>
      <point x="303" y="450"/>
      <point x="296" y="450" type="curve" smooth="yes"/>
      <point x="171" y="450" type="line" smooth="yes"/>
      <point x="165" y="450"/>
      <point x="160" y="452"/>
      <point x="160" y="458" type="curve" smooth="yes"/>
      <point x="160" y="511" type="line" smooth="yes"/>
      <point x="160" y="605"/>
      <point x="205" y="649"/>
      <point x="268" y="649" type="curve" smooth="yes"/>
      <point x="312" y="649"/>
      <point x="331" y="631"/>
      <point x="348" y="616" type="curve" smooth="yes"/>
      <point x="361" y="606"/>
      <point x="370" y="595"/>
      <point x="382" y="595" type="curve" smooth="yes"/>
      <point x="402" y="595"/>
      <point x="420" y="609"/>
      <point x="420" y="632" type="curve" smooth="yes"/>
      <point x="420" y="675"/>
      <point x="384" y="706"/>
      <point x="310" y="706" type="curve" smooth="yes"/>
      <point x="225" y="706"/>
      <point x="90" y="657"/>
      <point x="90" y="490" type="curve" smooth="yes"/>
      <point x="90" y="456" type="line"/>
      <point x="70" y="446"/>
      <point x="55" y="432"/>
      <point x="35" y="416" type="curve" smooth="yes"/>
      <point x="29" y="410"/>
      <point x="24" y="404"/>
      <point x="24" y="398" type="curve" smooth="yes"/>
      <point x="24" y="391"/>
      <point x="34" y="381"/>
      <point x="38" y="381" type="curve" smooth="yes"/>
      <point x="59" y="379"/>
      <point x="77" y="379"/>
      <point x="90" y="379" type="curve"/>
      <point x="90" y="95" type="line" smooth="yes"/>
      <point x="90" y="58"/>
      <point x="70" y="49"/>
      <point x="47" y="41" type="curve" smooth="yes"/>
      <point x="35" y="36"/>
      <point x="24" y="29"/>
      <point x="24" y="13" type="curve" smooth="yes"/>
      <point x="24" y="-1"/>
      <point x="35" y="-3"/>
    </contour>
  </outline>
</glyph>
<glyph name="g" format="1">
  <advance width="435"/>
  <unicode hex="0067"/>
  <outline>
    <contour>
      <point x="195" y="-290" type="curve" smooth="yes"/>
      <point x="303" y="-290"/>
      <point x="418" y="-180"/>
      <point x="418" y="-77" type="curve" smooth="yes"/>
      <point x="418" y="-16"/>
      <point x="359" y="17"/>
      <point x="236" y="24" type="curve" smooth="yes"/>
      <point x="159" y="29"/>
      <point x="106" y="46"/>
      <point x="114" y="74" type="curve" smooth="yes"/>
      <point x="114" y="88"/>
      <point x="136" y="109"/>
      <point x="165" y="120" type="curve"/>
      <point x="116" y="143" type="line"/>
      <point x="106" y="124"/>
      <point x="102" y="120"/>
      <point x="61" y="83" type="curve" smooth="yes"/>
      <point x="46" y="69"/>
      <point x="40" y="58"/>
      <point x="40" y="44" type="curve" smooth="yes"/>
      <point x="40" y="-7"/>
      <point x="82" y="-28"/>
      <point x="207" y="-37" type="curve" smooth="yes"/>
      <point x="313" y="-43"/>
      <point x="357" y="-63"/>
      <point x="357" y="-103" type="curve" smooth="yes"/>
      <point x="357" y="-145"/>
      <point x="337" y="-184"/>
      <point x="304" y="-207" type="curve" smooth="yes"/>
      <point x="280" y="-223"/>
      <point x="245" y="-232"/>
      <point x="205" y="-232" type="curve" smooth="yes"/>
      <point x="138" y="-232"/>
      <point x="90" y="-199"/>
      <point x="90" y="-145" type="curve" smooth="yes"/>
      <point x="90" y="-96"/>
      <point x="115" y="-66"/>
      <point x="175" y="-29" type="curve"/>
      <point x="126" y="-12" type="line"/>
      <point x="94" y="-42"/>
      <point x="62" y="-70"/>
      <point x="43" y="-88" type="curve" smooth="yes"/>
      <point x="21" y="-107"/>
      <point x="11" y="-131"/>
      <point x="11" y="-170" type="curve" smooth="yes"/>
      <point x="11" y="-244"/>
      <point x="81" y="-290"/>
    </contour>
    <contour>
      <point x="207" y="164" type="curve" smooth="yes"/>
      <point x="153" y="164"/>
      <point x="111" y="221"/>
      <point x="111" y="295" type="curve" smooth="yes"/>
      <point x="111" y="357"/>
      <point x="153" y="413"/>
      <point x="200" y="413" type="curve" smooth="yes"/>
      <point x="252" y="413"/>
      <point x="295" y="371"/>
      <point x="295" y="300" type="curve" smooth="yes"/>
      <point x="295" y="220"/>
      <point x="260" y="164"/>
    </contour>
    <contour>
      <point x="201" y="106" type="curve" smooth="yes"/>
      <point x="291" y="106"/>
      <point x="360" y="197"/>
      <point x="360" y="308" type="curve" smooth="yes"/>
      <point x="360" y="339"/>
      <point x="362" y="356"/>
      <point x="366" y="364" type="curve" smooth="yes"/>
      <point x="368" y="369"/>
      <point x="378" y="371"/>
      <point x="396" y="371" type="curve" smooth="yes"/>
      <point x="423" y="371" type="line" smooth="yes"/>
      <point x="425" y="371"/>
      <point x="428" y="375"/>
      <point x="431" y="380" type="curve" smooth="yes"/>
      <point x="437" y="389"/>
      <point x="441" y="402"/>
      <point x="441" y="409" type="curve" smooth="yes"/>
      <point x="441" y="423"/>
      <point x="435" y="433"/>
      <point x="428" y="433" type="curve" smooth="yes"/>
      <point x="418" y="433"/>
      <point x="389" y="430"/>
      <point x="373" y="430" type="curve" smooth="yes"/>
      <point x="353" y="430"/>
      <point x="338" y="431"/>
      <point x="306" y="441" type="curve" smooth="yes"/>
      <point x="278" y="450"/>
      <point x="252" y="465"/>
      <point x="213" y="465" type="curve" smooth="yes"/>
      <point x="122" y="465"/>
      <point x="39" y="390"/>
      <point x="39" y="282" type="curve" smooth="yes"/>
      <point x="39" y="185"/>
      <point x="117" y="106"/>
    </contour>
  </outline>
</glyph>
<glyph name="h" format="1">
  <advance width="516"/>
  <unicode hex="0068"/>
  <outline>
    <contour>
      <point x="39" y="-3" type="curve" smooth="yes"/>
      <point x="79" y="-3"/>
      <point x="85" y="6"/>
      <point x="120" y="6" type="curve" smooth="yes"/>
      <point x="155" y="6"/>
      <point x="160" y="-3"/>
      <point x="200" y="-3" type="curve" smooth="yes"/>
      <point x="213" y="-3"/>
      <point x="220" y="2"/>
      <point x="220" y="16" type="curve" smooth="yes"/>
      <point x="220" y="29"/>
      <point x="212" y="36"/>
      <point x="197" y="43" type="curve" smooth="yes"/>
      <point x="178" y="51"/>
      <point x="155" y="58"/>
      <point x="155" y="94" type="curve" smooth="yes"/>
      <point x="155" y="307" type="line" smooth="yes"/>
      <point x="155" y="339"/>
      <point x="161" y="350"/>
      <point x="182" y="363" type="curve" smooth="yes"/>
      <point x="201" y="376"/>
      <point x="240" y="383"/>
      <point x="265" y="383" type="curve" smooth="yes"/>
      <point x="315" y="383"/>
      <point x="358" y="350"/>
      <point x="358" y="293" type="curve" smooth="yes"/>
      <point x="358" y="95" type="line" smooth="yes"/>
      <point x="358" y="59"/>
      <point x="336" y="52"/>
      <point x="316" y="43" type="curve" smooth="yes"/>
      <point x="303" y="37"/>
      <point x="293" y="30"/>
      <point x="293" y="13" type="curve" smooth="yes"/>
      <point x="293" y="-1"/>
      <point x="304" y="-3"/>
      <point x="313" y="-3" type="curve" smooth="yes"/>
      <point x="353" y="-3"/>
      <point x="359" y="6"/>
      <point x="394" y="6" type="curve" smooth="yes"/>
      <point x="429" y="6"/>
      <point x="433" y="-3"/>
      <point x="473" y="-3" type="curve" smooth="yes"/>
      <point x="483" y="-3"/>
      <point x="493" y="-1"/>
      <point x="493" y="13" type="curve" smooth="yes"/>
      <point x="493" y="29"/>
      <point x="482" y="36"/>
      <point x="470" y="43" type="curve" smooth="yes"/>
      <point x="452" y="54"/>
      <point x="428" y="59"/>
      <point x="428" y="95" type="curve" smooth="yes"/>
      <point x="428" y="328" type="line" smooth="yes"/>
      <point x="428" y="406"/>
      <point x="379" y="464"/>
      <point x="314" y="464" type="curve" smooth="yes"/>
      <point x="240" y="464"/>
      <point x="172" y="408"/>
      <point x="148" y="391" type="curve"/>
      <point x="168" y="391" type="line"/>
      <point x="158" y="407"/>
      <point x="155" y="410"/>
      <point x="155" y="438" type="curve" smooth="yes"/>
      <point x="155" y="562" type="line" smooth="yes"/>
      <point x="155" y="669"/>
      <point x="164" y="686"/>
      <point x="164" y="698" type="curve" smooth="yes"/>
      <point x="164" y="702"/>
      <point x="161" y="705"/>
      <point x="157" y="705" type="curve" smooth="yes"/>
      <point x="155" y="705"/>
      <point x="153" y="704"/>
      <point x="151" y="703" type="curve"/>
      <point x="118" y="692"/>
      <point x="68" y="679"/>
      <point x="48" y="673" type="curve" smooth="yes"/>
      <point x="34" y="669"/>
      <point x="32" y="662"/>
      <point x="32" y="653" type="curve" smooth="yes"/>
      <point x="32" y="640"/>
      <point x="35" y="631"/>
      <point x="47" y="629" type="curve" smooth="yes"/>
      <point x="74" y="624"/>
      <point x="85" y="598"/>
      <point x="85" y="566" type="curve" smooth="yes"/>
      <point x="85" y="94" type="line" smooth="yes"/>
      <point x="85" y="58"/>
      <point x="62" y="50"/>
      <point x="42" y="43" type="curve" smooth="yes"/>
      <point x="26" y="37"/>
      <point x="19" y="32"/>
      <point x="19" y="16" type="curve" smooth="yes"/>
      <point x="19" y="2"/>
      <point x="27" y="-3"/>
    </contour>
  </outline>
</glyph>
<glyph name="i" format="1">
  <advance width="245"/>
  <unicode hex="0069"/>
  <outline>
    <contour>
      <point x="44" y="-3" type="curve" smooth="yes"/>
      <point x="83" y="-3"/>
      <point x="90" y="2"/>
      <point x="125" y="2" type="curve" smooth="yes"/>
      <point x="160" y="6"/>
      <point x="168" y="-3"/>
      <point x="206" y="-3" type="curve" smooth="yes"/>
      <point x="219" y="-3"/>
      <point x="226" y="2"/>
      <point x="226" y="16" type="curve" smooth="yes"/>
      <point x="226" y="32"/>
      <point x="214" y="37"/>
      <point x="203" y="42" type="curve" smooth="yes"/>
      <point x="176" y="52"/>
      <point x="160" y="63"/>
      <point x="160" y="94" type="curve" smooth="yes"/>
      <point x="160" y="338" type="line" smooth="yes"/>
      <point x="160" y="383"/>
      <point x="169" y="449"/>
      <point x="169" y="465" type="curve" smooth="yes"/>
      <point x="169" y="472"/>
      <point x="165" y="478"/>
      <point x="158" y="478" type="curve" smooth="yes"/>
      <point x="151" y="478"/>
      <point x="143" y="473"/>
      <point x="138" y="469" type="curve" smooth="yes"/>
      <point x="121" y="455"/>
      <point x="101" y="437"/>
      <point x="48" y="426" type="curve" smooth="yes"/>
      <point x="39" y="424"/>
      <point x="35" y="417"/>
      <point x="35" y="409" type="curve" smooth="yes"/>
      <point x="35" y="399"/>
      <point x="39" y="391"/>
      <point x="49" y="389" type="curve" smooth="yes"/>
      <point x="83" y="383"/>
      <point x="90" y="352"/>
      <point x="90" y="311" type="curve" smooth="yes"/>
      <point x="90" y="94" type="line" smooth="yes"/>
      <point x="90" y="61"/>
      <point x="75" y="52"/>
      <point x="47" y="42" type="curve" smooth="yes"/>
      <point x="36" y="37"/>
      <point x="24" y="32"/>
      <point x="24" y="16" type="curve" smooth="yes"/>
      <point x="24" y="2"/>
      <point x="32" y="-3"/>
    </contour>
    <contour>
      <point x="124" y="554" type="curve" smooth="yes"/>
      <point x="153" y="554"/>
      <point x="175" y="576"/>
      <point x="175" y="604" type="curve" smooth="yes"/>
      <point x="175" y="633"/>
      <point x="153" y="655"/>
      <point x="124" y="655" type="curve" smooth="yes"/>
      <point x="96" y="655"/>
      <point x="74" y="633"/>
      <point x="74" y="604" type="curve" smooth="yes"/>
      <point x="74" y="576"/>
      <point x="96" y="554"/>
    </contour>
  </outline>
</glyph>
<glyph name="j" format="1">
  <advance width="226"/>
  <unicode hex="006A"/>
  <outline>
    <contour>
      <point x="7" y="-287" type="curve" smooth="yes"/>
      <point x="41" y="-287"/>
      <point x="104" y="-220"/>
      <point x="129" y="-152" type="curve" smooth="yes"/>
      <point x="158" y="-72"/>
      <point x="159" y="29"/>
      <point x="159" y="91" type="curve" smooth="yes"/>
      <point x="159" y="319" type="line" smooth="yes"/>
      <point x="159" y="364"/>
      <point x="162" y="432"/>
      <point x="166" y="473" type="curve"/>
      <point x="166" y="476"/>
      <point x="163" y="478"/>
      <point x="159" y="478" type="curve" smooth="yes"/>
      <point x="157" y="478"/>
      <point x="153" y="475"/>
      <point x="146" y="472" type="curve" smooth="yes"/>
      <point x="127" y="461"/>
      <point x="92" y="434"/>
      <point x="48" y="427" type="curve" smooth="yes"/>
      <point x="38" y="425"/>
      <point x="35" y="414"/>
      <point x="35" y="409" type="curve" smooth="yes"/>
      <point x="35" y="399"/>
      <point x="39" y="392"/>
      <point x="47" y="390" type="curve" smooth="yes"/>
      <point x="81" y="379"/>
      <point x="89" y="356"/>
      <point x="89" y="319" type="curve" smooth="yes"/>
      <point x="89" y="75" type="line" smooth="yes"/>
      <point x="89" y="9"/>
      <point x="86" y="-116"/>
      <point x="57" y="-175" type="curve" smooth="yes"/>
      <point x="38" y="-212"/>
      <point x="16" y="-228"/>
      <point x="0" y="-232" type="curve" smooth="yes"/>
      <point x="-10" y="-234"/>
      <point x="-23" y="-247"/>
      <point x="-23" y="-262" type="curve" smooth="yes"/>
      <point x="-23" y="-278"/>
      <point x="-6" y="-287"/>
    </contour>
    <contour>
      <point x="116" y="554" type="curve" smooth="yes"/>
      <point x="145" y="554"/>
      <point x="167" y="576"/>
      <point x="167" y="604" type="curve" smooth="yes"/>
      <point x="167" y="633"/>
      <point x="145" y="655"/>
      <point x="116" y="655" type="curve" smooth="yes"/>
      <point x="88" y="655"/>
      <point x="66" y="633"/>
      <point x="66" y="604" type="curve" smooth="yes"/>
      <point x="66" y="576"/>
      <point x="88" y="554"/>
    </contour>
  </outline>
</glyph>
<glyph name="k" format="1">
  <advance width="469"/>
  <unicode hex="006B"/>
  <outline>
    <contour>
      <point x="42" y="-3" type="curve" smooth="yes"/>
      <point x="81" y="-3"/>
      <point x="85" y="4"/>
      <point x="120" y="4" type="curve" smooth="yes"/>
      <point x="155" y="4"/>
      <point x="151" y="-3"/>
      <point x="190" y="-3" type="curve" smooth="yes"/>
      <point x="195" y="-3"/>
      <point x="214" y="-1"/>
      <point x="214" y="16" type="curve" smooth="yes"/>
      <point x="214" y="33"/>
      <point x="203" y="39"/>
      <point x="190" y="44" type="curve" smooth="yes"/>
      <point x="169" y="52"/>
      <point x="155" y="67"/>
      <point x="155" y="101" type="curve" smooth="yes"/>
      <point x="155" y="117"/>
      <point x="154" y="133"/>
      <point x="154" y="143" type="curve" smooth="yes"/>
      <point x="154" y="166"/>
      <point x="154" y="207"/>
      <point x="155" y="226" type="curve"/>
      <point x="155" y="231"/>
      <point x="157" y="233"/>
      <point x="160" y="233" type="curve" smooth="yes"/>
      <point x="164" y="233"/>
      <point x="166" y="231"/>
      <point x="170" y="226" type="curve" smooth="yes"/>
      <point x="286" y="69" type="line"/>
      <point x="288" y="65"/>
      <point x="290" y="60"/>
      <point x="290" y="57" type="curve" smooth="yes"/>
      <point x="290" y="49"/>
      <point x="281" y="45"/>
      <point x="271" y="41" type="curve" smooth="yes"/>
      <point x="262" y="37"/>
      <point x="254" y="32"/>
      <point x="254" y="20" type="curve" smooth="yes"/>
      <point x="254" y="12"/>
      <point x="258" y="2"/>
      <point x="272" y="2" type="curve" smooth="yes"/>
      <point x="340" y="2"/>
      <point x="407" y="-3"/>
      <point x="459" y="-3" type="curve" smooth="yes"/>
      <point x="471" y="-3"/>
      <point x="479" y="0"/>
      <point x="479" y="14" type="curve" smooth="yes"/>
      <point x="479" y="31"/>
      <point x="464" y="39"/>
      <point x="449" y="43" type="curve" smooth="yes"/>
      <point x="410" y="53"/>
      <point x="375" y="71"/>
      <point x="345" y="103" type="curve" smooth="yes"/>
      <point x="324" y="123"/>
      <point x="286" y="189"/>
      <point x="236" y="250" type="curve" smooth="yes"/>
      <point x="235" y="252"/>
      <point x="233" y="255"/>
      <point x="233" y="257" type="curve" smooth="yes"/>
      <point x="233" y="260"/>
      <point x="235" y="263"/>
      <point x="239" y="267" type="curve" smooth="yes"/>
      <point x="286" y="317"/>
      <point x="355" y="381"/>
      <point x="369" y="392" type="curve" smooth="yes"/>
      <point x="383" y="403"/>
      <point x="403" y="413"/>
      <point x="425" y="421" type="curve" smooth="yes"/>
      <point x="438" y="425"/>
      <point x="449" y="435"/>
      <point x="449" y="447" type="curve" smooth="yes"/>
      <point x="449" y="456"/>
      <point x="444" y="462"/>
      <point x="435" y="462" type="curve" smooth="yes"/>
      <point x="416" y="462"/>
      <point x="375" y="450"/>
      <point x="344" y="450" type="curve" smooth="yes"/>
      <point x="287" y="450" type="line" smooth="yes"/>
      <point x="273" y="450"/>
      <point x="265" y="442"/>
      <point x="265" y="432" type="curve" smooth="yes"/>
      <point x="265" y="422"/>
      <point x="268" y="417"/>
      <point x="277" y="416" type="curve" smooth="yes"/>
      <point x="287" y="414"/>
      <point x="295" y="410"/>
      <point x="295" y="405" type="curve" smooth="yes"/>
      <point x="295" y="400"/>
      <point x="294" y="398"/>
      <point x="289" y="392" type="curve" smooth="yes"/>
      <point x="277" y="378"/>
      <point x="247" y="343"/>
      <point x="194" y="288" type="curve" smooth="yes"/>
      <point x="179" y="273"/>
      <point x="168" y="265"/>
      <point x="160" y="265" type="curve" smooth="yes"/>
      <point x="157" y="265"/>
      <point x="155" y="268"/>
      <point x="155" y="274" type="curve" smooth="yes"/>
      <point x="155" y="562" type="line" smooth="yes"/>
      <point x="155" y="647"/>
      <point x="164" y="682"/>
      <point x="164" y="696" type="curve" smooth="yes"/>
      <point x="164" y="702"/>
      <point x="162" y="705"/>
      <point x="158" y="705" type="curve" smooth="yes"/>
      <point x="155" y="705"/>
      <point x="153" y="704"/>
      <point x="149" y="702" type="curve" smooth="yes"/>
      <point x="119" y="691"/>
      <point x="92" y="682"/>
      <point x="51" y="674" type="curve" smooth="yes"/>
      <point x="36" y="671"/>
      <point x="31" y="665"/>
      <point x="31" y="652" type="curve" smooth="yes"/>
      <point x="31" y="639"/>
      <point x="34" y="633"/>
      <point x="48" y="630" type="curve" smooth="yes"/>
      <point x="73" y="623"/>
      <point x="85" y="605"/>
      <point x="85" y="555" type="curve" smooth="yes"/>
      <point x="85" y="101" type="line" smooth="yes"/>
      <point x="85" y="63"/>
      <point x="62" y="52"/>
      <point x="42" y="44" type="curve" smooth="yes"/>
      <point x="31" y="38"/>
      <point x="19" y="36"/>
      <point x="19" y="16" type="curve" smooth="yes"/>
      <point x="19" y="1"/>
      <point x="27" y="-3"/>
    </contour>
  </outline>
</glyph>
<glyph name="l" format="1">
  <advance width="240"/>
  <unicode hex="006C"/>
  <outline>
    <contour>
      <point x="39" y="-3" type="curve" smooth="yes"/>
      <point x="78" y="-3"/>
      <point x="85" y="2"/>
      <point x="120" y="2" type="curve" smooth="yes"/>
      <point x="155" y="2"/>
      <point x="162" y="-3"/>
      <point x="201" y="-3" type="curve" smooth="yes"/>
      <point x="208" y="-3"/>
      <point x="221" y="-1"/>
      <point x="221" y="12" type="curve" smooth="yes"/>
      <point x="221" y="29"/>
      <point x="209" y="35"/>
      <point x="198" y="41" type="curve" smooth="yes"/>
      <point x="178" y="49"/>
      <point x="155" y="56"/>
      <point x="155" y="94" type="curve" smooth="yes"/>
      <point x="155" y="562" type="line" smooth="yes"/>
      <point x="155" y="652"/>
      <point x="162" y="686"/>
      <point x="162" y="698" type="curve" smooth="yes"/>
      <point x="162" y="701"/>
      <point x="158" y="705"/>
      <point x="152" y="705" type="curve" smooth="yes"/>
      <point x="145" y="705"/>
      <point x="140" y="702"/>
      <point x="135" y="698" type="curve" smooth="yes"/>
      <point x="114" y="685"/>
      <point x="93" y="677"/>
      <point x="42" y="668" type="curve" smooth="yes"/>
      <point x="33" y="667"/>
      <point x="31" y="657"/>
      <point x="31" y="650" type="curve" smooth="yes"/>
      <point x="31" y="642"/>
      <point x="35" y="634"/>
      <point x="47" y="631" type="curve" smooth="yes"/>
      <point x="72" y="624"/>
      <point x="85" y="601"/>
      <point x="85" y="562" type="curve" smooth="yes"/>
      <point x="85" y="94" type="line" smooth="yes"/>
      <point x="85" y="56"/>
      <point x="62" y="49"/>
      <point x="42" y="41" type="curve" smooth="yes"/>
      <point x="31" y="35"/>
      <point x="19" y="29"/>
      <point x="19" y="12" type="curve" smooth="yes"/>
      <point x="19" y="-1"/>
      <point x="32" y="-3"/>
    </contour>
  </outline>
</glyph>
<glyph name="m" format="1">
  <advance width="778"/>
  <unicode hex="006D"/>
  <outline>
    <contour>
      <point x="47" y="-3" type="curve" smooth="yes"/>
      <point x="87" y="-3"/>
      <point x="90" y="2"/>
      <point x="125" y="2" type="curve" smooth="yes"/>
      <point x="160" y="2"/>
      <point x="164" y="-3"/>
      <point x="204" y="-3" type="curve" smooth="yes"/>
      <point x="216" y="-3"/>
      <point x="226" y="2"/>
      <point x="226" y="16" type="curve" smooth="yes"/>
      <point x="226" y="32"/>
      <point x="213" y="38"/>
      <point x="201" y="42" type="curve" smooth="yes"/>
      <point x="181" y="49"/>
      <point x="160" y="57"/>
      <point x="160" y="94" type="curve" smooth="yes"/>
      <point x="160" y="311" type="line" smooth="yes"/>
      <point x="160" y="337"/>
      <point x="168" y="354"/>
      <point x="187" y="365" type="curve" smooth="yes"/>
      <point x="212" y="380"/>
      <point x="240" y="385"/>
      <point x="274" y="385" type="curve" smooth="yes"/>
      <point x="317" y="385"/>
      <point x="354" y="350"/>
      <point x="354" y="314" type="curve" smooth="yes"/>
      <point x="354" y="94" type="line" smooth="yes"/>
      <point x="354" y="55"/>
      <point x="330" y="50"/>
      <point x="310" y="42" type="curve" smooth="yes"/>
      <point x="298" y="38"/>
      <point x="287" y="32"/>
      <point x="287" y="16" type="curve" smooth="yes"/>
      <point x="287" y="2"/>
      <point x="296" y="-3"/>
      <point x="307" y="-3" type="curve" smooth="yes"/>
      <point x="347" y="-3"/>
      <point x="355" y="2"/>
      <point x="390" y="2" type="curve" smooth="yes"/>
      <point x="425" y="2"/>
      <point x="432" y="-3"/>
      <point x="472" y="-3" type="curve" smooth="yes"/>
      <point x="485" y="-3"/>
      <point x="492" y="2"/>
      <point x="492" y="16" type="curve" smooth="yes"/>
      <point x="492" y="30"/>
      <point x="483" y="38"/>
      <point x="469" y="42" type="curve" smooth="yes"/>
      <point x="449" y="49"/>
      <point x="424" y="55"/>
      <point x="424" y="94" type="curve" smooth="yes"/>
      <point x="424" y="311" type="line" smooth="yes"/>
      <point x="424" y="337"/>
      <point x="434" y="354"/>
      <point x="452" y="365" type="curve" smooth="yes"/>
      <point x="477" y="380"/>
      <point x="505" y="385"/>
      <point x="539" y="385" type="curve" smooth="yes"/>
      <point x="582" y="385"/>
      <point x="619" y="350"/>
      <point x="619" y="314" type="curve" smooth="yes"/>
      <point x="619" y="94" type="line" smooth="yes"/>
      <point x="619" y="60"/>
      <point x="597" y="50"/>
      <point x="576" y="42" type="curve" smooth="yes"/>
      <point x="563" y="37"/>
      <point x="553" y="32"/>
      <point x="553" y="16" type="curve" smooth="yes"/>
      <point x="553" y="2"/>
      <point x="561" y="-3"/>
      <point x="573" y="-3" type="curve" smooth="yes"/>
      <point x="613" y="-3"/>
      <point x="621" y="2"/>
      <point x="656" y="2" type="curve" smooth="yes"/>
      <point x="691" y="2"/>
      <point x="695" y="-3"/>
      <point x="735" y="-3" type="curve" smooth="yes"/>
      <point x="750" y="-3"/>
      <point x="755" y="2"/>
      <point x="755" y="16" type="curve" smooth="yes"/>
      <point x="755" y="30"/>
      <point x="745" y="35"/>
      <point x="732" y="42" type="curve" smooth="yes"/>
      <point x="712" y="52"/>
      <point x="689" y="60"/>
      <point x="689" y="94" type="curve" smooth="yes"/>
      <point x="689" y="325" type="line" smooth="yes"/>
      <point x="689" y="395"/>
      <point x="654" y="464"/>
      <point x="589" y="464" type="curve" smooth="yes"/>
      <point x="524" y="464"/>
      <point x="469" y="433"/>
      <point x="426" y="395" type="curve"/>
      <point x="423" y="395" type="line"/>
      <point x="402" y="446"/>
      <point x="371" y="464"/>
      <point x="323" y="464" type="curve" smooth="yes"/>
      <point x="246" y="464"/>
      <point x="197" y="426"/>
      <point x="167" y="397" type="curve"/>
      <point x="165" y="397" type="line"/>
      <point x="164" y="398"/>
      <point x="163" y="403"/>
      <point x="163" y="409" type="curve" smooth="yes"/>
      <point x="163" y="428"/>
      <point x="168" y="458"/>
      <point x="168" y="467" type="curve" smooth="yes"/>
      <point x="168" y="473"/>
      <point x="162" y="480"/>
      <point x="156" y="480" type="curve" smooth="yes"/>
      <point x="148" y="480"/>
      <point x="142" y="476"/>
      <point x="134" y="470" type="curve" smooth="yes"/>
      <point x="111" y="456"/>
      <point x="92" y="441"/>
      <point x="58" y="432" type="curve" smooth="yes"/>
      <point x="48" y="429"/>
      <point x="43" y="420"/>
      <point x="43" y="412" type="curve" smooth="yes"/>
      <point x="43" y="403"/>
      <point x="46" y="396"/>
      <point x="56" y="393" type="curve" smooth="yes"/>
      <point x="86" y="386"/>
      <point x="90" y="357"/>
      <point x="90" y="316" type="curve" smooth="yes"/>
      <point x="90" y="94" type="line" smooth="yes"/>
      <point x="90" y="57"/>
      <point x="69" y="49"/>
      <point x="50" y="42" type="curve" smooth="yes"/>
      <point x="35" y="38"/>
      <point x="24" y="30"/>
      <point x="24" y="16" type="curve" smooth="yes"/>
      <point x="24" y="0"/>
      <point x="36" y="-3"/>
    </contour>
  </outline>
</glyph>
<glyph name="n" format="1">
  <advance width="528"/>
  <unicode hex="006E"/>
  <outline>
    <contour>
      <point x="44" y="-3" type="curve" smooth="yes"/>
      <point x="84" y="-3"/>
      <point x="90" y="6"/>
      <point x="125" y="6" type="curve" smooth="yes"/>
      <point x="160" y="6"/>
      <point x="166" y="-3"/>
      <point x="206" y="-3" type="curve" smooth="yes"/>
      <point x="219" y="-3"/>
      <point x="226" y="2"/>
      <point x="226" y="16" type="curve" smooth="yes"/>
      <point x="226" y="29"/>
      <point x="219" y="36"/>
      <point x="203" y="43" type="curve" smooth="yes"/>
      <point x="183" y="49"/>
      <point x="160" y="57"/>
      <point x="160" y="93" type="curve" smooth="yes"/>
      <point x="160" y="321" type="line" smooth="yes"/>
      <point x="160" y="329"/>
      <point x="163" y="339"/>
      <point x="168" y="344" type="curve" smooth="yes"/>
      <point x="194" y="370"/>
      <point x="231" y="384"/>
      <point x="279" y="384" type="curve" smooth="yes"/>
      <point x="333" y="383"/>
      <point x="369" y="348"/>
      <point x="369" y="290" type="curve" smooth="yes"/>
      <point x="369" y="93" type="line" smooth="yes"/>
      <point x="369" y="57"/>
      <point x="346" y="51"/>
      <point x="326" y="43" type="curve" smooth="yes"/>
      <point x="315" y="36"/>
      <point x="303" y="29"/>
      <point x="303" y="12" type="curve" smooth="yes"/>
      <point x="303" y="-1"/>
      <point x="316" y="-3"/>
      <point x="323" y="-3" type="curve" smooth="yes"/>
      <point x="363" y="-3"/>
      <point x="370" y="6"/>
      <point x="405" y="6" type="curve" smooth="yes"/>
      <point x="440" y="6"/>
      <point x="445" y="-3"/>
      <point x="485" y="-3" type="curve" smooth="yes"/>
      <point x="493" y="-3"/>
      <point x="505" y="-1"/>
      <point x="505" y="12" type="curve" smooth="yes"/>
      <point x="505" y="29"/>
      <point x="493" y="36"/>
      <point x="482" y="43" type="curve" smooth="yes"/>
      <point x="462" y="51"/>
      <point x="439" y="57"/>
      <point x="439" y="93" type="curve" smooth="yes"/>
      <point x="439" y="293" type="line" smooth="yes"/>
      <point x="439" y="389"/>
      <point x="391" y="464"/>
      <point x="326" y="464" type="curve" smooth="yes"/>
      <point x="263" y="464"/>
      <point x="212" y="441"/>
      <point x="165" y="394" type="curve"/>
      <point x="164" y="394"/>
      <point x="163" y="407"/>
      <point x="163" y="417" type="curve" smooth="yes"/>
      <point x="163" y="436"/>
      <point x="168" y="460"/>
      <point x="168" y="472" type="curve" smooth="yes"/>
      <point x="168" y="476"/>
      <point x="166" y="480"/>
      <point x="163" y="480" type="curve" smooth="yes"/>
      <point x="159" y="480"/>
      <point x="157" y="478"/>
      <point x="153" y="476" type="curve" smooth="yes"/>
      <point x="127" y="458"/>
      <point x="103" y="445"/>
      <point x="60" y="433" type="curve" smooth="yes"/>
      <point x="49" y="430"/>
      <point x="43" y="425"/>
      <point x="43" y="413" type="curve" smooth="yes"/>
      <point x="43" y="399"/>
      <point x="51" y="394"/>
      <point x="62" y="391" type="curve" smooth="yes"/>
      <point x="87" y="382"/>
      <point x="90" y="359"/>
      <point x="90" y="327" type="curve" smooth="yes"/>
      <point x="90" y="93" type="line" smooth="yes"/>
      <point x="90" y="57"/>
      <point x="67" y="49"/>
      <point x="47" y="43" type="curve" smooth="yes"/>
      <point x="32" y="36"/>
      <point x="24" y="33"/>
      <point x="24" y="16" type="curve" smooth="yes"/>
      <point x="24" y="2"/>
      <point x="32" y="-3"/>
    </contour>
  </outline>
</glyph>
<glyph name="o" format="1">
  <advance width="495"/>
  <unicode hex="006F"/>
  <outline>
    <contour>
      <point x="234" y="-14" type="curve" smooth="yes"/>
      <point x="367" y="-14"/>
      <point x="460" y="90"/>
      <point x="460" y="239" type="curve" smooth="yes"/>
      <point x="460" y="363"/>
      <point x="367" y="464"/>
      <point x="254" y="464" type="curve" smooth="yes"/>
      <point x="139" y="464"/>
      <point x="35" y="343"/>
      <point x="35" y="211" type="curve" smooth="yes"/>
      <point x="35" y="82"/>
      <point x="120" y="-14"/>
    </contour>
    <contour>
      <point x="255" y="38" type="curve" smooth="yes"/>
      <point x="179" y="38"/>
      <point x="117" y="124"/>
      <point x="117" y="235" type="curve" smooth="yes"/>
      <point x="117" y="353"/>
      <point x="156" y="411"/>
      <point x="237" y="411" type="curve" smooth="yes"/>
      <point x="316" y="411"/>
      <point x="378" y="326"/>
      <point x="378" y="214" type="curve" smooth="yes"/>
      <point x="378" y="91"/>
      <point x="340" y="38"/>
    </contour>
  </outline>
</glyph>
<glyph name="p" format="1">
  <advance width="519"/>
  <unicode hex="0070"/>
  <outline>
    <contour>
      <point x="39" y="-285" type="curve" smooth="yes"/>
      <point x="79" y="-285"/>
      <point x="85" y="-280"/>
      <point x="120" y="-280" type="curve" smooth="yes"/>
      <point x="155" y="-280"/>
      <point x="176" y="-285"/>
      <point x="215" y="-285" type="curve" smooth="yes"/>
      <point x="226" y="-285"/>
      <point x="236" y="-279"/>
      <point x="236" y="-263" type="curve" smooth="yes"/>
      <point x="236" y="-255"/>
      <point x="228" y="-248"/>
      <point x="213" y="-243" type="curve" smooth="yes"/>
      <point x="193" y="-238"/>
      <point x="155" y="-231"/>
      <point x="155" y="-194" type="curve" smooth="yes"/>
      <point x="155" y="-35" type="line" smooth="yes"/>
      <point x="155" y="-28"/>
      <point x="156" y="22"/>
      <point x="159" y="22" type="curve"/>
      <point x="179" y="2"/>
      <point x="231" y="-14"/>
      <point x="259" y="-14" type="curve" smooth="yes"/>
      <point x="385" y="-14"/>
      <point x="484" y="120"/>
      <point x="484" y="253" type="curve" smooth="yes"/>
      <point x="484" y="358"/>
      <point x="423" y="464"/>
      <point x="320" y="465" type="curve" smooth="yes"/>
      <point x="257" y="465"/>
      <point x="177" y="417"/>
      <point x="158" y="397" type="curve"/>
      <point x="157" y="404"/>
      <point x="157" y="408"/>
      <point x="157" y="411" type="curve" smooth="yes"/>
      <point x="157" y="427"/>
      <point x="162" y="456"/>
      <point x="162" y="468" type="curve" smooth="yes"/>
      <point x="162" y="472"/>
      <point x="159" y="476"/>
      <point x="156" y="476" type="curve" smooth="yes"/>
      <point x="155" y="476"/>
      <point x="155" y="475"/>
      <point x="154" y="475" type="curve"/>
      <point x="125" y="465"/>
      <point x="94" y="455"/>
      <point x="47" y="444" type="curve" smooth="yes"/>
      <point x="38" y="443"/>
      <point x="31" y="434"/>
      <point x="31" y="424" type="curve" smooth="yes"/>
      <point x="31" y="414"/>
      <point x="39" y="405"/>
      <point x="50" y="402" type="curve" smooth="yes"/>
      <point x="75" y="395"/>
      <point x="85" y="351"/>
      <point x="85" y="337" type="curve" smooth="yes"/>
      <point x="85" y="-194" type="line" smooth="yes"/>
      <point x="85" y="-223"/>
      <point x="63" y="-235"/>
      <point x="41" y="-243" type="curve" smooth="yes"/>
      <point x="30" y="-248"/>
      <point x="19" y="-254"/>
      <point x="19" y="-263" type="curve" smooth="yes"/>
      <point x="19" y="-279"/>
      <point x="27" y="-285"/>
    </contour>
    <contour>
      <point x="274" y="42" type="curve" smooth="yes"/>
      <point x="203" y="42"/>
      <point x="155" y="83"/>
      <point x="155" y="189" type="curve" smooth="yes"/>
      <point x="155" y="212"/>
      <point x="158" y="281"/>
      <point x="158" y="344" type="curve" smooth="yes"/>
      <point x="158" y="357"/>
      <point x="220" y="389"/>
      <point x="268" y="389" type="curve" smooth="yes"/>
      <point x="329" y="389"/>
      <point x="404" y="357"/>
      <point x="404" y="215" type="curve" smooth="yes"/>
      <point x="404" y="83"/>
      <point x="313" y="42"/>
    </contour>
  </outline>
</glyph>
<glyph name="q" format="1">
  <advance width="522"/>
  <unicode hex="0071"/>
  <outline>
    <contour>
      <point x="331" y="-285" type="curve" smooth="yes"/>
      <point x="371" y="-285"/>
      <point x="377" y="-280"/>
      <point x="412" y="-280" type="curve" smooth="yes"/>
      <point x="448" y="-280"/>
      <point x="462" y="-285"/>
      <point x="502" y="-285" type="curve" smooth="yes"/>
      <point x="510" y="-285"/>
      <point x="522" y="-284"/>
      <point x="522" y="-268" type="curve" smooth="yes"/>
      <point x="522" y="-255"/>
      <point x="511" y="-247"/>
      <point x="499" y="-241" type="curve" smooth="yes"/>
      <point x="478" y="-231"/>
      <point x="447" y="-229"/>
      <point x="447" y="-189" type="curve" smooth="yes"/>
      <point x="447" y="331" type="line" smooth="yes"/>
      <point x="447" y="395"/>
      <point x="459" y="446"/>
      <point x="459" y="460" type="curve" smooth="yes"/>
      <point x="459" y="466"/>
      <point x="442" y="472"/>
      <point x="432" y="472" type="curve" smooth="yes"/>
      <point x="427" y="472"/>
      <point x="422" y="470"/>
      <point x="419" y="464" type="curve" smooth="yes"/>
      <point x="414" y="451"/>
      <point x="409" y="434"/>
      <point x="396" y="434" type="curve" smooth="yes"/>
      <point x="391" y="434"/>
      <point x="343" y="464"/>
      <point x="282" y="464" type="curve" smooth="yes"/>
      <point x="135" y="464"/>
      <point x="35" y="358"/>
      <point x="35" y="200" type="curve" smooth="yes"/>
      <point x="35" y="62"/>
      <point x="131" y="-14"/>
      <point x="235" y="-14" type="curve" smooth="yes"/>
      <point x="288" y="-14"/>
      <point x="345" y="31"/>
      <point x="362" y="47" type="curve" smooth="yes"/>
      <point x="365" y="51"/>
      <point x="368" y="50"/>
      <point x="371" y="50" type="curve" smooth="yes"/>
      <point x="375" y="50"/>
      <point x="377" y="42"/>
      <point x="377" y="16" type="curve" smooth="yes"/>
      <point x="377" y="-188" type="line" smooth="yes"/>
      <point x="377" y="-218"/>
      <point x="360" y="-227"/>
      <point x="335" y="-240" type="curve" smooth="yes"/>
      <point x="324" y="-246"/>
      <point x="311" y="-252"/>
      <point x="311" y="-270" type="curve" smooth="yes"/>
      <point x="311" y="-284"/>
      <point x="324" y="-285"/>
    </contour>
    <contour>
      <point x="272" y="60" type="curve" smooth="yes"/>
      <point x="200" y="60"/>
      <point x="117" y="105"/>
      <point x="117" y="219" type="curve" smooth="yes"/>
      <point x="117" y="330"/>
      <point x="185" y="389"/>
      <point x="257" y="389" type="curve" smooth="yes"/>
      <point x="343" y="389"/>
      <point x="375" y="344"/>
      <point x="377" y="287" type="curve" smooth="yes"/>
      <point x="378" y="263"/>
      <point x="378" y="134"/>
      <point x="378" y="100" type="curve"/>
      <point x="361" y="82"/>
      <point x="316" y="60"/>
    </contour>
  </outline>
</glyph>
<glyph name="r" format="1">
  <advance width="334"/>
  <unicode hex="0072"/>
  <outline>
    <contour>
      <point x="49" y="-3" type="curve" smooth="yes"/>
      <point x="89" y="-3"/>
      <point x="95" y="2"/>
      <point x="130" y="2" type="curve" smooth="yes"/>
      <point x="165" y="2"/>
      <point x="177" y="-3"/>
      <point x="217" y="-3" type="curve" smooth="yes"/>
      <point x="231" y="-3"/>
      <point x="237" y="1"/>
      <point x="237" y="14" type="curve" smooth="yes"/>
      <point x="237" y="28"/>
      <point x="228" y="33"/>
      <point x="214" y="39" type="curve" smooth="yes"/>
      <point x="173" y="58"/>
      <point x="161" y="63"/>
      <point x="161" y="96" type="curve" smooth="yes"/>
      <point x="161" y="267" type="line" smooth="yes"/>
      <point x="161" y="349"/>
      <point x="194" y="374"/>
      <point x="230" y="374" type="curve" smooth="yes"/>
      <point x="240" y="374"/>
      <point x="251" y="368"/>
      <point x="262" y="363" type="curve" smooth="yes"/>
      <point x="272" y="357"/>
      <point x="282" y="351"/>
      <point x="290" y="351" type="curve" smooth="yes"/>
      <point x="310" y="351"/>
      <point x="329" y="392"/>
      <point x="329" y="418" type="curve" smooth="yes"/>
      <point x="329" y="441"/>
      <point x="309" y="459"/>
      <point x="281" y="459" type="curve" smooth="yes"/>
      <point x="242" y="459"/>
      <point x="198" y="430"/>
      <point x="166" y="391" type="curve"/>
      <point x="165" y="391"/>
      <point x="164" y="392"/>
      <point x="164" y="393" type="curve"/>
      <point x="166" y="425"/>
      <point x="167" y="461"/>
      <point x="167" y="468" type="curve"/>
      <point x="167" y="472"/>
      <point x="165" y="475"/>
      <point x="162" y="475" type="curve" smooth="yes"/>
      <point x="159" y="475"/>
      <point x="155" y="473"/>
      <point x="147" y="468" type="curve" smooth="yes"/>
      <point x="126" y="455"/>
      <point x="93" y="437"/>
      <point x="53" y="427" type="curve" smooth="yes"/>
      <point x="45" y="425"/>
      <point x="39" y="415"/>
      <point x="39" y="407" type="curve" smooth="yes"/>
      <point x="39" y="401"/>
      <point x="44" y="390"/>
      <point x="53" y="388" type="curve" smooth="yes"/>
      <point x="88" y="380"/>
      <point x="90" y="354"/>
      <point x="90" y="311" type="curve" smooth="yes"/>
      <point x="90" y="93" type="line" smooth="yes"/>
      <point x="90" y="68"/>
      <point x="77" y="52"/>
      <point x="52" y="44" type="curve" smooth="yes"/>
      <point x="37" y="37"/>
      <point x="29" y="33"/>
      <point x="29" y="16" type="curve" smooth="yes"/>
      <point x="29" y="2"/>
      <point x="35" y="-3"/>
    </contour>
  </outline>
</glyph>
<glyph name="s" format="1">
  <advance width="323"/>
  <unicode hex="0073"/>
  <outline>
    <contour>
      <point x="144" y="-14" type="curve" smooth="yes"/>
      <point x="231" y="-14"/>
      <point x="291" y="40"/>
      <point x="291" y="118" type="curve" smooth="yes"/>
      <point x="291" y="186"/>
      <point x="252" y="222"/>
      <point x="176" y="272" type="curve"/>
      <point x="129" y="305"/>
      <point x="117" y="322"/>
      <point x="117" y="358" type="curve" smooth="yes"/>
      <point x="117" y="394"/>
      <point x="143" y="414"/>
      <point x="172" y="414" type="curve" smooth="yes"/>
      <point x="210" y="414"/>
      <point x="229" y="394"/>
      <point x="246" y="359" type="curve" smooth="yes"/>
      <point x="248" y="354"/>
      <point x="256" y="348"/>
      <point x="267" y="348" type="curve" smooth="yes"/>
      <point x="275" y="348"/>
      <point x="281" y="354"/>
      <point x="281" y="358" type="curve" smooth="yes"/>
      <point x="281" y="387"/>
      <point x="272" y="430"/>
      <point x="262" y="445" type="curve"/>
      <point x="249" y="454"/>
      <point x="222" y="464"/>
      <point x="182" y="464" type="curve" smooth="yes"/>
      <point x="92" y="464"/>
      <point x="47" y="408"/>
      <point x="47" y="338" type="curve" smooth="yes"/>
      <point x="47" y="282"/>
      <point x="73" y="244"/>
      <point x="143" y="200" type="curve" smooth="yes"/>
      <point x="201" y="161"/>
      <point x="216" y="133"/>
      <point x="216" y="97" type="curve" smooth="yes"/>
      <point x="216" y="60"/>
      <point x="190" y="38"/>
      <point x="153" y="38" type="curve" smooth="yes"/>
      <point x="114" y="38"/>
      <point x="80" y="53"/>
      <point x="67" y="105" type="curve"/>
      <point x="64" y="117"/>
      <point x="55" y="119"/>
      <point x="48" y="119" type="curve" smooth="yes"/>
      <point x="38" y="119"/>
      <point x="29" y="116"/>
      <point x="29" y="106" type="curve" smooth="yes"/>
      <point x="30" y="79"/>
      <point x="33" y="36"/>
      <point x="40" y="22" type="curve"/>
      <point x="65" y="-1"/>
      <point x="103" y="-14"/>
    </contour>
  </outline>
</glyph>
<glyph name="t" format="1">
  <advance width="314"/>
  <unicode hex="0074"/>
  <outline>
    <contour>
      <point x="189" y="-14" type="curve" smooth="yes"/>
      <point x="250" y="-14"/>
      <point x="306" y="36"/>
      <point x="306" y="47" type="curve" smooth="yes"/>
      <point x="306" y="60"/>
      <point x="298" y="74"/>
      <point x="290" y="74" type="curve" smooth="yes"/>
      <point x="286" y="74"/>
      <point x="283" y="72"/>
      <point x="280" y="70" type="curve" smooth="yes"/>
      <point x="266" y="62"/>
      <point x="249" y="56"/>
      <point x="221" y="56" type="curve" smooth="yes"/>
      <point x="178" y="56"/>
      <point x="155" y="85"/>
      <point x="155" y="134" type="curve" smooth="yes"/>
      <point x="155" y="359" type="line" smooth="yes"/>
      <point x="155" y="384"/>
      <point x="161" y="387"/>
      <point x="195" y="387" type="curve" smooth="yes"/>
      <point x="294" y="387" type="line" smooth="yes"/>
      <point x="299" y="387"/>
      <point x="304" y="400"/>
      <point x="304" y="420" type="curve" smooth="yes"/>
      <point x="304" y="434"/>
      <point x="299" y="450"/>
      <point x="294" y="450" type="curve" smooth="yes"/>
      <point x="180" y="450" type="line" smooth="yes"/>
      <point x="163" y="450"/>
      <point x="154" y="454"/>
      <point x="156" y="469" type="curve" smooth="yes"/>
      <point x="160" y="502" type="line" smooth="yes"/>
      <point x="161" y="517"/>
      <point x="151" y="525"/>
      <point x="141" y="525" type="curve" smooth="yes"/>
      <point x="129" y="525"/>
      <point x="122" y="519"/>
      <point x="112" y="505" type="curve" smooth="yes"/>
      <point x="98" y="483"/>
      <point x="79" y="455"/>
      <point x="57" y="438" type="curve" smooth="yes"/>
      <point x="44" y="423"/>
      <point x="35" y="412"/>
      <point x="35" y="409" type="curve" smooth="yes"/>
      <point x="35" y="398"/>
      <point x="40" y="387"/>
      <point x="47" y="387" type="curve" smooth="yes"/>
      <point x="60" y="387" type="line" smooth="yes"/>
      <point x="79" y="387"/>
      <point x="85" y="378"/>
      <point x="85" y="364" type="curve" smooth="yes"/>
      <point x="85" y="105" type="line" smooth="yes"/>
      <point x="85" y="26"/>
      <point x="124" y="-14"/>
    </contour>
  </outline>
</glyph>
